<?plantuml 1.2026.2?><svg xmlns="http://www.w3.org/2000/svg" xmlns:xlink="http://www.w3.org/1999/xlink" contentStyleType="text/css" data-diagram-type="DESCRIPTION" height="1098px" preserveAspectRatio="none" style="width:4037px;height:1098px;background:#FFFFFF;" version="1.1" viewBox="0 0 4037 1098" width="4037px" zoomAndPan="magnify"><title>Canonical Proof Spine</title><defs/><g><g class="title" data-source-line="1"><text fill="#000000" font-family="sans-serif" font-size="14" font-weight="bold" lengthAdjust="spacing" textLength="151.6474" x="1934.6664" y="24.9659">Canonical Proof Spine</text></g><!--entity RealStack--><g class="entity" data-qualified-name="RealStack" data-source-line="27" id="ent0002"><rect fill="#DBEAFE" height="77.2038" rx="9" ry="9" style="stroke:#334155;stroke-width:0.5;" width="164.0734" x="579.7" y="672.0679"/><text fill="#0F172A" font-family="sans-serif" font-size="14" lengthAdjust="spacing" textLength="113.3856" x="605.0439" y="697.0339">Real stack source</text><text fill="#0F172A" font-family="sans-serif" font-size="14" lengthAdjust="spacing" textLength="144.0734" x="589.7" y="716.1018">ConcreteClosureStack</text><text fill="#0F172A" font-family="sans-serif" font-size="14" lengthAdjust="spacing" textLength="100.7016" x="611.3859" y="735.1697">[formal source]</text></g><!--entity StrongCQ--><g class="entity" data-qualified-name="StrongCQ" data-source-line="28" id="ent0003"><rect fill="#DCFCE7" height="96.2717" rx="9" ry="9" style="stroke:#334155;stroke-width:0.5;" width="249.3332" x="929.68" y="630.5379"/><text fill="#0F172A" font-family="sans-serif" font-size="14" lengthAdjust="spacing" textLength="160.9434" x="973.8749" y="655.5039">Strong quadratic forcing</text><text fill="#0F172A" font-family="sans-serif" font-size="14" lengthAdjust="spacing" textLength="229.3332" x="939.68" y="674.5718">ContractionForcesQuadraticStrong</text><text fill="#0F172A" font-family="sans-serif" font-size="14" lengthAdjust="spacing" textLength="55.6918" x="1026.5007" y="693.6397">[proved]</text><text fill="#0F172A" font-family="sans-serif" font-size="14" lengthAdjust="spacing" textLength="189.0973" x="959.798" y="712.7076">Active seam/bottleneck layer</text></g><!--entity SigBridge--><g class="entity" data-qualified-name="SigBridge" data-source-line="29" id="ent0004"><rect fill="#DCFCE7" height="77.2038" rx="9" ry="9" style="stroke:#334155;stroke-width:0.5;" width="345.4708" x="1384.92" y="528.0679"/><text fill="#0F172A" font-family="sans-serif" font-size="14" lengthAdjust="spacing" textLength="171.8353" x="1471.7377" y="553.0339">Lorentz / signature bridge</text><text fill="#0F172A" font-family="sans-serif" font-size="14" lengthAdjust="spacing" textLength="325.4708" x="1394.92" y="572.1018">ContractionQuadraticToSignatureBridgeTheorem</text><text fill="#0F172A" font-family="sans-serif" font-size="14" lengthAdjust="spacing" textLength="114.0996" x="1500.6056" y="591.1697">[proved + bridge]</text></g><!--entity CliffBridge--><g class="entity" data-qualified-name="CliffBridge" data-source-line="30" id="ent0005"><rect fill="#DCFCE7" height="77.2038" rx="9" ry="9" style="stroke:#334155;stroke-width:0.5;" width="253.0711" x="1431.12" y="640.0679"/><text fill="#0F172A" font-family="sans-serif" font-size="14" lengthAdjust="spacing" textLength="95.3256" x="1509.9927" y="665.0339">Clifford bridge</text><text fill="#0F172A" font-family="sans-serif" font-size="14" lengthAdjust="spacing" textLength="233.0711" x="1441.12" y="684.1018">QuadraticToCliffordBridgeTheorem</text><text fill="#0F172A" font-family="sans-serif" font-size="14" lengthAdjust="spacing" textLength="114.0996" x="1500.6058" y="703.1697">[proved + bridge]</text></g><!--entity CliffBundle--><g class="entity" data-qualified-name="CliffBundle" data-source-line="31" id="ent0006"><rect fill="#FEF3C7" height="77.2038" rx="9" ry="9" style="stroke:#334155;stroke-width:0.5;" width="329.4408" x="1938.39" y="528.0679"/><text fill="#0F172A" font-family="sans-serif" font-size="14" lengthAdjust="spacing" textLength="260.987" x="1972.6169" y="553.0339">Canonical contraction -&gt; Clifford bundle</text><text fill="#0F172A" font-family="sans-serif" font-size="14" lengthAdjust="spacing" textLength="309.4408" x="1948.39" y="572.1018">CanonicalContractionToCliffordBridgeTheorem</text><text fill="#0F172A" font-family="sans-serif" font-size="14" lengthAdjust="spacing" textLength="136.6115" x="2034.8047" y="591.1697">[canonical assembly]</text></g><!--entity FullClosure--><g class="entity" data-qualified-name="FullClosure" data-source-line="32" id="ent0007"><rect fill="#FEF3C7" height="77.2038" rx="9" ry="9" style="stroke:#334155;stroke-width:0.5;" width="253.6731" x="2500.5" y="431.0679"/><text fill="#0F172A" font-family="sans-serif" font-size="14" lengthAdjust="spacing" textLength="133.4055" x="2560.6338" y="456.0339">Full closure instance</text><text fill="#0F172A" font-family="sans-serif" font-size="14" lengthAdjust="spacing" textLength="177.3933" x="2538.6399" y="475.1018">PhysicsClosureFullInstance</text><text fill="#0F172A" font-family="sans-serif" font-size="14" lengthAdjust="spacing" textLength="233.6731" x="2510.5" y="494.1697">[current canonical closure package]</text></g><!--entity UnifiedOwner--><g class="entity" data-qualified-name="UnifiedOwner" data-source-line="33" id="ent0008"><rect fill="#FEF3C7" height="77.2038" rx="9" ry="9" style="stroke:#334155;stroke-width:0.5;" width="175.0074" x="3128.31" y="47.0679"/><text fill="#0F172A" font-family="sans-serif" font-size="14" lengthAdjust="spacing" textLength="153.3554" x="3139.136" y="72.0339">Unified theorem owner</text><text fill="#0F172A" font-family="sans-serif" font-size="14" lengthAdjust="spacing" textLength="155.0074" x="3138.31" y="91.1018">UnifiedPhysicsTheorem</text><text fill="#0F172A" font-family="sans-serif" font-size="14" lengthAdjust="spacing" textLength="136.4575" x="3147.5849" y="110.1697">[strong claim owner]</text></g><!--entity AdapterOwner--><g class="entity" data-qualified-name="AdapterOwner" data-source-line="34" id="ent0009"><rect fill="#FEF3C7" height="77.2038" rx="9" ry="9" style="stroke:#334155;stroke-width:0.5;" width="322.5388" x="3686.11" y="47.0679"/><text fill="#0F172A" font-family="sans-serif" font-size="14" lengthAdjust="spacing" textLength="206.7092" x="3744.0248" y="72.0339">Abstract/canonical seam owner</text><text fill="#0F172A" font-family="sans-serif" font-size="14" lengthAdjust="spacing" textLength="302.5388" x="3696.11" y="91.1018">PhysicsUnificationToCanonicalClosureAdapter</text><text fill="#0F172A" font-family="sans-serif" font-size="14" lengthAdjust="spacing" textLength="166.7954" x="3763.9817" y="110.1697">[adapter theorem owner]</text></g><!--entity AtomOwner--><g class="entity" data-qualified-name="AtomOwner" data-source-line="35" id="ent0010"><rect fill="#FEF3C7" height="77.2038" rx="9" ry="9" style="stroke:#334155;stroke-width:0.5;" width="251.9651" x="3721.39" y="448.0679"/><text fill="#0F172A" font-family="sans-serif" font-size="14" lengthAdjust="spacing" textLength="212.9252" x="3740.91" y="473.0339">Atom/chemistry recovery carrier</text><text fill="#0F172A" font-family="sans-serif" font-size="14" lengthAdjust="spacing" textLength="231.9651" x="3731.39" y="492.1018">AtomicChemistryRecoveryTheorem</text><text fill="#0F172A" font-family="sans-serif" font-size="14" lengthAdjust="spacing" textLength="181.0613" x="3756.8419" y="511.1697">[packaging + bridge owner]</text></g><!--entity MinimalCredible--><g class="entity" data-qualified-name="MinimalCredible" data-source-line="36" id="ent0011"><rect fill="#FEF3C7" height="77.2038" rx="9" ry="9" style="stroke:#334155;stroke-width:0.5;" width="312.0669" x="3059.78" y="623.0679"/><text fill="#0F172A" font-family="sans-serif" font-size="14" lengthAdjust="spacing" textLength="160.9854" x="3135.3207" y="648.0339">Minimal credible closure</text><text fill="#0F172A" font-family="sans-serif" font-size="14" lengthAdjust="spacing" textLength="292.0669" x="3069.78" y="667.1018">MinimalCrediblePhysicsClosureShiftInstance</text><text fill="#0F172A" font-family="sans-serif" font-size="14" lengthAdjust="spacing" textLength="126.3775" x="3152.6247" y="686.1697">[current milestone]</text></g><!--entity GRBridge--><g class="entity" data-qualified-name="GRBridge" data-source-line="37" id="ent0012"><rect fill="#FEE2E2" height="77.2038" rx="9" ry="9" style="stroke:#334155;stroke-width:0.5;" width="226.9332" x="3102.35" y="431.0679"/><text fill="#0F172A" font-family="sans-serif" font-size="14" lengthAdjust="spacing" textLength="154.9374" x="3138.3479" y="456.0339">Known-limits GR bridge</text><text fill="#0F172A" font-family="sans-serif" font-size="14" lengthAdjust="spacing" textLength="206.9332" x="3112.35" y="475.1018">KnownLimitsGRBridgeTheorem</text><text fill="#0F172A" font-family="sans-serif" font-size="14" lengthAdjust="spacing" textLength="166.6694" x="3132.4819" y="494.1697">[bridge, not full recovery]</text></g><!--entity QFTBridge--><g class="entity" data-qualified-name="QFTBridge" data-source-line="38" id="ent0013"><rect fill="#FEE2E2" height="77.2038" rx="9" ry="9" style="stroke:#334155;stroke-width:0.5;" width="234.0172" x="3098.8" y="239.0679"/><text fill="#0F172A" font-family="sans-serif" font-size="14" lengthAdjust="spacing" textLength="162.0214" x="3134.7979" y="264.0339">Known-limits QFT bridge</text><text fill="#0F172A" font-family="sans-serif" font-size="14" lengthAdjust="spacing" textLength="214.0172" x="3108.8" y="283.1018">KnownLimitsQFTBridgeTheorem</text><text fill="#0F172A" font-family="sans-serif" font-size="14" lengthAdjust="spacing" textLength="166.6694" x="3132.4739" y="302.1697">[bridge, not full recovery]</text></g><!--entity CoreSpineSupport--><g class="entity" data-qualified-name="CoreSpineSupport" data-source-line="39" id="ent0014"><rect fill="#DBEAFE" height="134.4075" rx="9" ry="9" style="stroke:#334155;stroke-width:0.5;" width="349.6988" x="7" y="737.4679"/><text fill="#0F172A" font-family="sans-serif" font-size="14" lengthAdjust="spacing" textLength="174.2013" x="94.7487" y="762.4339">CoreSpine / origin support</text><text fill="#0F172A" font-family="sans-serif" font-size="14" lengthAdjust="spacing" textLength="118.9435" x="122.3776" y="781.5018">TritTriTruthBridge</text><text fill="#0F172A" font-family="sans-serif" font-size="14" lengthAdjust="spacing" textLength="111.3976" x="126.1506" y="800.5697">TritCarrierBridge</text><text fill="#0F172A" font-family="sans-serif" font-size="14" lengthAdjust="spacing" textLength="187.6973" x="88.0007" y="819.6376">FascisticContractionInstance</text><text fill="#0F172A" font-family="sans-serif" font-size="14" lengthAdjust="spacing" textLength="280.3069" x="41.6959" y="838.7055">MoonshineBridge / CRTPeriodJFixedBridge</text><text fill="#0F172A" font-family="sans-serif" font-size="14" lengthAdjust="spacing" textLength="329.6988" x="17" y="857.7734">[bridge support, not canonical proof replacement]</text></g><!--entity OriginGates--><g class="entity" data-qualified-name="OriginGates" data-source-line="40" id="ent0015"><rect fill="#FECACA" height="153.4754" rx="9" ry="9" style="stroke:#334155;stroke-width:0.5;" width="256.1511" x="2499.27" y="584.9379"/><text fill="#0F172A" font-family="sans-serif" font-size="14" lengthAdjust="spacing" textLength="197.9873" x="2528.3519" y="609.9039">Traceability / promotion gates</text><text fill="#0F172A" font-family="sans-serif" font-size="14" lengthAdjust="spacing" textLength="162.8614" x="2545.9149" y="628.9718">OriginTraceabilityLedger</text><text fill="#0F172A" font-family="sans-serif" font-size="14" lengthAdjust="spacing" textLength="142.5755" x="2556.0578" y="648.0397">missing origin receipt</text><text fill="#0F172A" font-family="sans-serif" font-size="14" lengthAdjust="spacing" textLength="182.3913" x="2536.1499" y="667.1076">missing empirical adequacy</text><text fill="#0F172A" font-family="sans-serif" font-size="14" lengthAdjust="spacing" textLength="236.1511" x="2509.27" y="686.1755">missing convergence-rate dynamics</text><text fill="#0F172A" font-family="sans-serif" font-size="14" lengthAdjust="spacing" textLength="189.1113" x="2532.7899" y="705.2434">missing chemistry relaxation</text><text fill="#0F172A" font-family="sans-serif" font-size="14" lengthAdjust="spacing" textLength="124.1235" x="2565.2838" y="724.3114">[open governance]</text></g><g class="entity" data-qualified-name="GMN34" data-source-line="62" id="ent0035"><path d="M880.77,541.1079 L880.77,586.226 A9,9 0 0 0 889.77,595.226 L1050.34,595.226 L1054.34,630.1579 L1058.34,595.226 L1218.9142,595.226 A9,9 0 0 0 1227.9142,586.226 L1227.9142,542.1079 L1217.9142,532.1079 L889.77,532.1079 A9,9 0 0 0 880.77,541.1079" fill="#FFF7ED" style="stroke:#C2410C;stroke-width:0.5;"/><path d="M1217.9142,532.1079 L1217.9142,537.6079 A4.5,4.5 0 0 0 1222.4142,542.1079 L1227.9142,542.1079 L1217.9142,532.1079" fill="#FFF7ED" style="stroke:#C2410C;stroke-width:0.5;"/><text fill="#7C2D12" font-family="sans-serif" font-size="13" lengthAdjust="spacing" textLength="326.1442" x="886.77" y="551.0049">If a reader wants the current formal center of gravity,</text><text fill="#7C2D12" font-family="sans-serif" font-size="13" lengthAdjust="spacing" textLength="225.1342" x="937.275" y="568.7109">start here after the real stack source.</text><text fill="#7C2D12" font-family="sans-serif" font-size="13" lengthAdjust="spacing" textLength="273.8972" x="912.8935" y="586.417">This is where seam quality still matters most.</text></g><g class="entity" data-qualified-name="GMN37" data-source-line="68" id="ent0038"><path d="M3074.81,743.9679 L3074.81,771.3799 A9,9 0 0 0 3083.81,780.3799 L3347.8113,780.3799 A9,9 0 0 0 3356.8113,771.3799 L3356.8113,744.9679 L3346.8113,734.9679 L3219.81,734.9679 L3215.81,700.5179 L3211.81,734.9679 L3083.81,734.9679 A9,9 0 0 0 3074.81,743.9679" fill="#FFF7ED" style="stroke:#C2410C;stroke-width:0.5;"/><path d="M3346.8113,734.9679 L3346.8113,740.4679 A4.5,4.5 0 0 0 3351.3113,744.9679 L3356.8113,744.9679 L3346.8113,734.9679" fill="#FFF7ED" style="stroke:#C2410C;stroke-width:0.5;"/><text fill="#7C2D12" font-family="sans-serif" font-size="13" lengthAdjust="spacing" textLength="261.0013" x="3080.81" y="753.8649">This is the best current milestone package,</text><text fill="#7C2D12" font-family="sans-serif" font-size="13" lengthAdjust="spacing" textLength="176.1892" x="3123.216" y="771.5709">not a finished unified theory.</text></g><g class="entity" data-qualified-name="GMN40" data-source-line="73" id="ent0041"><path d="M3045.85,167.9679 L3045.85,195.3799 A9,9 0 0 0 3054.85,204.3799 L3376.7663,204.3799 A9,9 0 0 0 3385.7663,195.3799 L3385.7663,168.9679 L3375.7663,158.9679 L3219.81,158.9679 L3215.81,124.5179 L3211.81,158.9679 L3054.85,158.9679 A9,9 0 0 0 3045.85,167.9679" fill="#FFF7ED" style="stroke:#C2410C;stroke-width:0.5;"/><path d="M3375.7663,158.9679 L3375.7663,164.4679 A4.5,4.5 0 0 0 3380.2663,168.9679 L3385.7663,168.9679 L3375.7663,158.9679" fill="#FFF7ED" style="stroke:#C2410C;stroke-width:0.5;"/><text fill="#7C2D12" font-family="sans-serif" font-size="13" lengthAdjust="spacing" textLength="318.9163" x="3051.85" y="177.8649">This is where the strong repo-native claim lives now.</text><text fill="#7C2D12" font-family="sans-serif" font-size="13" lengthAdjust="spacing" textLength="269.8932" x="3076.3615" y="195.5709">It does not erase the remaining proof gates.</text></g><g class="entity" data-qualified-name="GMN43" data-source-line="78" id="ent0044"><path d="M3666.77,568.9679 L3666.77,596.3799 A9,9 0 0 0 3675.77,605.3799 L4018.9803,605.3799 A9,9 0 0 0 4027.9803,596.3799 L4027.9803,569.9679 L4017.9803,559.9679 L3851.38,559.9679 L3847.38,525.5179 L3843.38,559.9679 L3675.77,559.9679 A9,9 0 0 0 3666.77,568.9679" fill="#FFF7ED" style="stroke:#C2410C;stroke-width:0.5;"/><path d="M4017.9803,559.9679 L4017.9803,565.4679 A4.5,4.5 0 0 0 4022.4803,569.9679 L4027.9803,569.9679 L4017.9803,559.9679" fill="#FFF7ED" style="stroke:#C2410C;stroke-width:0.5;"/><text fill="#7C2D12" font-family="sans-serif" font-size="13" lengthAdjust="spacing" textLength="340.2103" x="3672.77" y="578.8649">This carries the strongest current atom/chemistry layer.</text><text fill="#7C2D12" font-family="sans-serif" font-size="13" lengthAdjust="spacing" textLength="250.3802" x="3717.6851" y="596.5709">It still keeps explicit recovery gates open.</text></g><g class="entity" data-qualified-name="GMN46" data-source-line="83" id="ent0047"><path d="M3087.68,551.9679 L3087.68,579.3799 A9,9 0 0 0 3096.68,588.3799 L3334.9412,588.3799 A9,9 0 0 0 3343.9412,579.3799 L3343.9412,552.9679 L3333.9412,542.9679 L3219.81,542.9679 L3215.81,508.5179 L3211.81,542.9679 L3096.68,542.9679 A9,9 0 0 0 3087.68,551.9679" fill="#FFF7ED" style="stroke:#C2410C;stroke-width:0.5;"/><path d="M3333.9412,542.9679 L3333.9412,548.4679 A4.5,4.5 0 0 0 3338.4412,552.9679 L3343.9412,552.9679 L3333.9412,542.9679" fill="#FFF7ED" style="stroke:#C2410C;stroke-width:0.5;"/><text fill="#7C2D12" font-family="sans-serif" font-size="13" lengthAdjust="spacing" textLength="235.2612" x="3093.68" y="561.8649">Read as "known-limits bridge surface".</text><text fill="#7C2D12" font-family="sans-serif" font-size="13" lengthAdjust="spacing" textLength="215.7872" x="3103.417" y="579.5709">Do not upgrade to full GR recovery.</text></g><g class="entity" data-qualified-name="GMN49" data-source-line="88" id="ent0050"><path d="M3087.68,359.9679 L3087.68,387.3799 A9,9 0 0 0 3096.68,396.3799 L3334.9412,396.3799 A9,9 0 0 0 3343.9412,387.3799 L3343.9412,360.9679 L3333.9412,350.9679 L3219.81,350.9679 L3215.81,316.5179 L3211.81,350.9679 L3096.68,350.9679 A9,9 0 0 0 3087.68,359.9679" fill="#FFF7ED" style="stroke:#C2410C;stroke-width:0.5;"/><path d="M3333.9412,350.9679 L3333.9412,356.4679 A4.5,4.5 0 0 0 3338.4412,360.9679 L3343.9412,360.9679 L3333.9412,350.9679" fill="#FFF7ED" style="stroke:#C2410C;stroke-width:0.5;"/><text fill="#7C2D12" font-family="sans-serif" font-size="13" lengthAdjust="spacing" textLength="235.2612" x="3093.68" y="369.8649">Read as "known-limits bridge surface".</text><text fill="#7C2D12" font-family="sans-serif" font-size="13" lengthAdjust="spacing" textLength="222.3652" x="3100.128" y="387.5709">Do not upgrade to full QFT recovery.</text></g><g class="entity" data-qualified-name="GMN52" data-source-line="93" id="ent0053"><path d="M2447.83,895.9679 L2447.83,923.3799 A9,9 0 0 0 2456.83,932.3799 L2797.8562,932.3799 A9,9 0 0 0 2806.8562,923.3799 L2806.8562,896.9679 L2796.8562,886.9679 L2631.34,886.9679 L2627.34,738.6579 L2623.34,886.9679 L2456.83,886.9679 A9,9 0 0 0 2447.83,895.9679" fill="#FFF7ED" style="stroke:#C2410C;stroke-width:0.5;"/><path d="M2796.8562,886.9679 L2796.8562,892.4679 A4.5,4.5 0 0 0 2801.3562,896.9679 L2806.8562,896.9679 L2796.8562,886.9679" fill="#FFF7ED" style="stroke:#C2410C;stroke-width:0.5;"/><text fill="#7C2D12" font-family="sans-serif" font-size="13" lengthAdjust="spacing" textLength="338.0262" x="2453.83" y="905.8649">This is the programmer checklist for honest promotion:</text><text fill="#7C2D12" font-family="sans-serif" font-size="13" lengthAdjust="spacing" textLength="311.5322" x="2467.077" y="923.5709">add theorem owners before changing claim colors.</text></g><!--link RealStack to StrongCQ--><g class="link" data-entity-1="ent0002" data-entity-2="ent0003" data-link-type="dependency" data-source-line="42" id="lnk16"><path d="M744.14,703.9979 C797.69,699.6179 862.82,694.278 923.34,689.318" fill="none" id="RealStack-to-StrongCQ" style="stroke:#181818;stroke-width:2;"/><polygon fill="#181818" points="929.32,688.8279,920.0233,685.5764,924.3367,689.2363,920.6768,693.5497,929.32,688.8279" style="stroke:#181818;stroke-width:2;"/><text fill="#000000" font-family="sans-serif" font-size="13" lengthAdjust="spacing" textLength="75.8421" x="774.77" y="691.5249">source stack</text></g><!--link StrongCQ to SigBridge--><g class="link" data-entity-1="ent0003" data-entity-2="ent0004" data-link-type="dependency" data-source-line="43" id="lnk17"><path d="M1179.26,650.9879 C1241.17,637.1579 1311.2043,621.506 1378.6643,606.436" fill="none" id="StrongCQ-to-SigBridge" style="stroke:#181818;stroke-width:2;"/><polygon fill="#181818" points="1384.52,605.1279,1374.8644,603.1863,1379.6403,606.218,1376.6086,610.9939,1384.52,605.1279" style="stroke:#181818;stroke-width:2;"/><text fill="#000000" font-family="sans-serif" font-size="13" lengthAdjust="spacing" textLength="95.0041" x="1258.92" y="608.5349">signature route</text></g><!--link StrongCQ to CliffBridge--><g class="link" data-entity-1="ent0003" data-entity-2="ent0005" data-link-type="dependency" data-source-line="44" id="lnk18"><path d="M1179.26,678.6679 C1255.81,678.6679 1347.75,678.6679 1424.68,678.6679" fill="none" id="StrongCQ-to-CliffBridge" style="stroke:#181818;stroke-width:2;"/><polygon fill="#181818" points="1430.68,678.6679,1421.68,674.6679,1425.68,678.6679,1421.68,682.6679,1430.68,678.6679" style="stroke:#181818;stroke-width:2;"/><text fill="#000000" font-family="sans-serif" font-size="13" lengthAdjust="spacing" textLength="94.9391" x="1259.42" y="674.5649">quadratic route</text></g><!--link SigBridge to CliffBundle--><g class="link" data-entity-1="ent0004" data-entity-2="ent0006" data-link-type="dependency" data-source-line="45" id="lnk19"><path d="M1730.6,566.6679 C1797,566.6679 1866.62,566.6679 1932.22,566.6679" fill="none" id="SigBridge-to-CliffBundle" style="stroke:#181818;stroke-width:2;"/><polygon fill="#181818" points="1938.22,566.6679,1929.22,562.6679,1933.22,566.6679,1929.22,570.6679,1938.22,566.6679" style="stroke:#181818;stroke-width:2;"/><text fill="#000000" font-family="sans-serif" font-size="13" lengthAdjust="spacing" textLength="146.1591" x="1761.39" y="562.5649">compatible Lorentz side</text></g><!--link CliffBridge to CliffBundle--><g class="link" data-entity-1="ent0005" data-entity-2="ent0006" data-link-type="dependency" data-source-line="46" id="lnk20"><path d="M1684.36,652.7679 C1759.76,637.2279 1850.6234,618.4988 1932.0134,601.7288" fill="none" id="CliffBridge-to-CliffBundle" style="stroke:#181818;stroke-width:2;"/><polygon fill="#181818" points="1937.89,600.5179,1928.2679,598.4165,1932.9929,601.5269,1929.8824,606.2519,1937.89,600.5179" style="stroke:#181818;stroke-width:2;"/><text fill="#000000" font-family="sans-serif" font-size="13" lengthAdjust="spacing" textLength="145.0411" x="1761.89" y="605.2449">compatible Clifford side</text></g><!--link CliffBundle to FullClosure--><g class="link" data-entity-1="ent0006" data-entity-2="ent0007" data-link-type="dependency" data-source-line="47" id="lnk21"><path d="M2268.27,536.1779 C2343.18,522.2679 2424.6109,507.1439 2494.2609,494.2039" fill="none" id="CliffBundle-to-FullClosure" style="stroke:#181818;stroke-width:2;"/><polygon fill="#181818" points="2500.16,493.1079,2490.5808,490.8192,2495.2441,494.0212,2492.0421,498.6846,2500.16,493.1079" style="stroke:#181818;stroke-width:2;"/><text fill="#000000" font-family="sans-serif" font-size="13" lengthAdjust="spacing" textLength="118.3001" x="2298.83" y="505.3849">canonical assembly</text></g><!--link FullClosure to UnifiedOwner--><g class="link" data-entity-1="ent0007" data-entity-2="ent0008" data-link-type="dependency" data-source-line="48" id="lnk22"><path d="M2665.62,430.7579 C2705.93,389.6879 2773,324.1579 2836.85,274.6679 C2923.88,207.2279 2946.4,188.9079 3045.85,141.6679 C3071.81,129.3379 3095.5009,120.4237 3122.4109,111.7237" fill="none" id="FullClosure-to-UnifiedOwner" style="stroke:#181818;stroke-width:2;"/><polygon fill="#181818" points="3128.12,109.8779,3118.3259,108.8405,3123.3625,111.416,3120.7869,116.4526,3128.12,109.8779" style="stroke:#181818;stroke-width:2;"/><text fill="#000000" font-family="sans-serif" font-size="13" lengthAdjust="spacing" textLength="177.7492" x="2837.85" y="153.4549">theorem-owned strong claim</text></g><!--link UnifiedOwner to AdapterOwner--><g class="link" data-entity-1="ent0008" data-entity-2="ent0009" data-link-type="dependency" data-source-line="49" id="lnk23"><path d="M3303.69,85.6679 C3402.02,85.6679 3558.29,85.6679 3679.82,85.6679" fill="none" id="UnifiedOwner-to-AdapterOwner" style="stroke:#181818;stroke-width:2;"/><polygon fill="#181818" points="3685.82,85.6679,3676.82,81.6679,3680.82,85.6679,3676.82,89.6679,3685.82,85.6679" style="stroke:#181818;stroke-width:2;"/><text fill="#000000" font-family="sans-serif" font-size="13" lengthAdjust="spacing" textLength="148.7331" x="3452.27" y="81.5649">abstract/canonical seam</text></g><!--link UnifiedOwner to AtomOwner--><g class="link" data-entity-1="ent0008" data-entity-2="ent0010" data-link-type="dependency" data-source-line="50" id="lnk24"><path d="M3303.66,108.5479 C3330.72,117.2179 3360.16,128.2879 3385.77,141.6679 C3554.46,229.8079 3722.7009,373.7923 3800.0309,443.7623" fill="none" id="UnifiedOwner-to-AtomOwner" style="stroke:#181818;stroke-width:2;"/><polygon fill="#181818" points="3804.48,447.7879,3800.4901,438.7834,3800.7724,444.4332,3795.1226,444.7155,3804.48,447.7879" style="stroke:#181818;stroke-width:2;"/><text fill="#000000" font-family="sans-serif" font-size="13" lengthAdjust="spacing" textLength="219.0242" x="3416.77" y="159.9849">atom/chemistry interpretation layer</text></g><!--link FullClosure to MinimalCredible--><g class="link" data-entity-1="ent0007" data-entity-2="ent0011" data-link-type="dependency" data-source-line="51" id="lnk25"><path d="M2708.46,508.5979 C2740.1,525.2479 2776.15,545.8679 2806.85,567.6679 C2821.48,578.0579 2820.73,586.7979 2836.85,594.6679 C2875.93,613.7479 2967.4385,629.9521 3053.5985,642.0721" fill="none" id="FullClosure-to-MinimalCredible" style="stroke:#181818;stroke-width:2;"/><polygon fill="#181818" points="3059.54,642.9079,3051.1849,637.6932,3054.5887,642.2114,3050.0706,645.6152,3059.54,642.9079" style="stroke:#181818;stroke-width:2;"/><text fill="#000000" font-family="sans-serif" font-size="13" lengthAdjust="spacing" textLength="173.4462" x="2839.85" y="590.5649">bounded milestone package</text></g><!--link FullClosure to GRBridge--><g class="link" data-entity-1="ent0007" data-entity-2="ent0012" data-link-type="dependency" data-source-line="52" id="lnk26"><path d="M2754.51,469.6679 C2857.87,469.6679 2996.77,469.6679 3096.23,469.6679" fill="none" id="FullClosure-to-GRBridge" style="stroke:#181818;stroke-width:2;"/><polygon fill="#181818" points="3102.23,469.6679,3093.23,465.6679,3097.23,469.6679,3093.23,473.6679,3102.23,469.6679" style="stroke:#181818;stroke-width:2;"/><text fill="#000000" font-family="sans-serif" font-size="13" lengthAdjust="spacing" textLength="120.6011" x="2866.35" y="465.5649">downstream bridge</text></g><!--link FullClosure to QFTBridge--><g class="link" data-entity-1="ent0007" data-entity-2="ent0013" data-link-type="dependency" data-source-line="53" id="lnk27"><path d="M2682.29,430.6179 C2722.89,403.0779 2780.93,367.5179 2836.85,346.6679 C2921.54,315.1079 3016.5157,298.3674 3092.7657,288.8974" fill="none" id="FullClosure-to-QFTBridge" style="stroke:#181818;stroke-width:2;"/><polygon fill="#181818" points="3098.72,288.1579,3089.2956,285.2977,3093.7581,288.7742,3090.2816,293.2367,3098.72,288.1579" style="stroke:#181818;stroke-width:2;"/><text fill="#000000" font-family="sans-serif" font-size="13" lengthAdjust="spacing" textLength="120.6011" x="2866.35" y="297.5649">downstream bridge</text></g><!--link CoreSpineSupport to RealStack--><g class="link" data-entity-1="ent0014" data-entity-2="ent0002" data-link-type="dependency" data-source-line="54" id="lnk28"><path d="M357.07,770.4079 C433.09,755.4479 512.6828,739.796 573.5328,727.826" fill="none" id="CoreSpineSupport-to-RealStack" style="stroke:#181818;stroke-width:2;"/><polygon fill="#181818" points="579.42,726.6679,569.8172,724.4803,574.514,727.633,571.3613,732.3298,579.42,726.6679" style="stroke:#181818;stroke-width:2;"/><text fill="#000000" font-family="sans-serif" font-size="13" lengthAdjust="spacing" textLength="161.9411" x="387.7" y="729.2849">carrier vocabulary support</text></g><!--link CoreSpineSupport to MinimalCredible--><g class="link" data-entity-1="ent0014" data-entity-2="ent0011" data-link-type="dependency" data-source-line="55" id="lnk29"><path d="M357.19,820.3379 C447.67,827.1779 560.06,833.6679 660.74,833.6679 C660.74,833.6679 660.74,833.6679 2628.34,833.6679 C2675.29,833.6679 2931.9693,753.2884 3089.4393,702.5384" fill="none" id="CoreSpineSupport-to-MinimalCredible" style="stroke:#181818;stroke-width:2;"/><polygon fill="#181818" points="3095.15,700.6979,3085.3569,699.6515,3090.391,702.2317,3087.8109,707.2658,3095.15,700.6979" style="stroke:#181818;stroke-width:2;"/><text fill="#000000" font-family="sans-serif" font-size="13" lengthAdjust="spacing" textLength="138.9311" x="1488.65" y="829.5649">origin receipt pressure</text></g><!--link OriginGates to MinimalCredible--><g class="link" data-entity-1="ent0015" data-entity-2="ent0011" data-link-type="dependency" data-source-line="56" id="lnk30"><path d="M2755.6,661.6679 C2844.79,661.6679 2958.52,661.6679 3053.37,661.6679" fill="none" id="OriginGates-to-MinimalCredible" style="stroke:#181818;stroke-width:2;"/><polygon fill="#181818" points="3059.37,661.6679,3050.37,657.6679,3054.37,661.6679,3050.37,665.6679,3059.37,661.6679" style="stroke:#181818;stroke-width:2;"/><text fill="#000000" font-family="sans-serif" font-size="13" lengthAdjust="spacing" textLength="132.7301" x="2860.35" y="657.5649">receipt not co-located</text></g><!--link OriginGates to AtomOwner--><g class="link" data-entity-1="ent0015" data-entity-2="ent0010" data-link-type="dependency" data-source-line="57" id="lnk31"><path d="M2755.79,731.5079 C2909.75,806.0979 3174.41,902.6579 3385.77,816.6679 C3547.34,750.9379 3516.94,631.9779 3666.77,542.6679 C3683.6,532.6379 3696.7811,526.3053 3715.7211,519.3153" fill="none" id="OriginGates-to-AtomOwner" style="stroke:#181818;stroke-width:2;"/><polygon fill="#181818" points="3721.35,517.2379,3711.5217,516.6014,3716.6593,518.9691,3714.2916,524.1066,3721.35,517.2379" style="stroke:#181818;stroke-width:2;"/><text fill="#000000" font-family="sans-serif" font-size="13" lengthAdjust="spacing" textLength="136.5781" x="3147.81" y="812.5649">recovery gates remain</text></g><!--link OriginGates to GRBridge--><g class="link" data-entity-1="ent0015" data-entity-2="ent0012" data-link-type="dependency" data-source-line="58" id="lnk32"><path d="M2755.66,603.2779 C2782.22,592.0679 2810.24,580.9579 2836.85,571.6679 C2924.45,541.1279 3020.2616,515.5827 3096.0616,497.0527" fill="none" id="OriginGates-to-GRBridge" style="stroke:#181818;stroke-width:2;"/><polygon fill="#181818" points="3101.89,495.6279,3092.1976,493.8795,3097.033,496.8152,3094.0973,501.6507,3101.89,495.6279" style="stroke:#181818;stroke-width:2;"/><text fill="#000000" font-family="sans-serif" font-size="13" lengthAdjust="spacing" textLength="130.3901" x="2861.35" y="514.7549">no full recovery claim</text></g><!--link OriginGates to QFTBridge--><g class="link" data-entity-1="ent0015" data-entity-2="ent0013" data-link-type="dependency" data-source-line="59" id="lnk33"><path d="M2749.47,584.6779 C2770.64,567.2079 2790.94,547.3379 2806.85,525.6679 C2830.07,494.0579 2809.41,470.6979 2836.85,442.6679 C2896.5,381.7479 2947.86,425.1079 3015.85,373.6679 C3033.58,360.2679 3027.82,346.6479 3045.85,333.6679 C3061.66,322.2979 3074.3434,315.3517 3092.8834,307.9917" fill="none" id="OriginGates-to-QFTBridge" style="stroke:#181818;stroke-width:2;"/><polygon fill="#181818" points="3098.46,305.7779,3088.6191,305.3809,3093.8128,307.6228,3091.5709,312.8164,3098.46,305.7779" style="stroke:#181818;stroke-width:2;"/><text fill="#000000" font-family="sans-serif" font-size="13" lengthAdjust="spacing" textLength="130.3901" x="2861.35" y="369.5649">no full recovery claim</text></g><g class="legend" data-source-line="97"><rect fill="#DDDDDD" height="128.4075" rx="9" ry="9" style="stroke:#000000;stroke-width:1;" width="387.5085" x="3621.4718" y="950.3799"/><text fill="#000000" font-family="sans-serif" font-size="14" font-weight="bold" lengthAdjust="spacing" textLength="36.9179" x="3630.1118" y="972.3459">Color</text><text fill="#000000" font-family="sans-serif" font-size="14" font-weight="bold" lengthAdjust="spacing" textLength="61.1798" x="3674.3096" y="972.3459">Meaning</text><rect fill="#DBEAFE" height="19.0679" style="stroke:none;stroke-width:1;" width="44.1978" x="3626.4718" y="976.4479"/><text fill="#000000" font-family="sans-serif" font-size="14" lengthAdjust="spacing" textLength="3.64" x="3626.4718" y="991.4138">&#160;</text><text fill="#000000" font-family="sans-serif" font-size="14" lengthAdjust="spacing" textLength="44.2258" x="3674.3096" y="991.4138">source</text><rect fill="#DCFCE7" height="19.0679" style="stroke:none;stroke-width:1;" width="44.1978" x="3626.4718" y="995.5158"/><text fill="#000000" font-family="sans-serif" font-size="14" lengthAdjust="spacing" textLength="3.64" x="3626.4718" y="1010.4817">&#160;</text><text fill="#000000" font-family="sans-serif" font-size="14" lengthAdjust="spacing" textLength="171.3313" x="3674.3096" y="1010.4817">proved / theorem-bearing</text><rect fill="#FEF3C7" height="19.0679" style="stroke:none;stroke-width:1;" width="44.1978" x="3626.4718" y="1014.5837"/><text fill="#000000" font-family="sans-serif" font-size="14" lengthAdjust="spacing" textLength="3.64" x="3626.4718" y="1029.5496">&#160;</text><text fill="#000000" font-family="sans-serif" font-size="14" lengthAdjust="spacing" textLength="326.0307" x="3674.3096" y="1029.5496">canonical packaging / theorem owner / milestone</text><rect fill="#FEE2E2" height="19.0679" style="stroke:none;stroke-width:1;" width="44.1978" x="3626.4718" y="1033.6516"/><text fill="#000000" font-family="sans-serif" font-size="14" lengthAdjust="spacing" textLength="3.64" x="3626.4718" y="1048.6176">&#160;</text><text fill="#000000" font-family="sans-serif" font-size="14" lengthAdjust="spacing" textLength="252.069" x="3674.3096" y="1048.6176">downstream bridge, not final recovery</text><rect fill="#FECACA" height="19.0679" style="stroke:none;stroke-width:1;" width="44.1978" x="3626.4718" y="1052.7195"/><text fill="#000000" font-family="sans-serif" font-size="14" lengthAdjust="spacing" textLength="3.64" x="3626.4718" y="1067.6855">&#160;</text><text fill="#000000" font-family="sans-serif" font-size="14" lengthAdjust="spacing" textLength="209.0192" x="3674.3096" y="1067.6855">open gate / governance blocker</text><line style="stroke:#000000;stroke-width:1;" x1="3626.4718" x2="4003.9803" y1="957.3799" y2="957.3799"/><line style="stroke:#000000;stroke-width:1;" x1="3626.4718" x2="4003.9803" y1="976.4479" y2="976.4479"/><line style="stroke:#000000;stroke-width:1;" x1="3626.4718" x2="4003.9803" y1="995.5158" y2="995.5158"/><line style="stroke:#000000;stroke-width:1;" x1="3626.4718" x2="4003.9803" y1="1014.5837" y2="1014.5837"/><line style="stroke:#000000;stroke-width:1;" x1="3626.4718" x2="4003.9803" y1="1033.6516" y2="1033.6516"/><line style="stroke:#000000;stroke-width:1;" x1="3626.4718" x2="4003.9803" y1="1052.7195" y2="1052.7195"/><line style="stroke:#000000;stroke-width:1;" x1="3626.4718" x2="4003.9803" y1="1071.7875" y2="1071.7875"/><line style="stroke:#000000;stroke-width:1;" x1="3626.4718" x2="3626.4718" y1="957.3799" y2="1071.7875"/><line style="stroke:#000000;stroke-width:1;" x1="3670.6697" x2="3670.6697" y1="957.3799" y2="1071.7875"/><line style="stroke:#000000;stroke-width:1;" x1="4003.9803" x2="4003.9803" y1="957.3799" y2="1071.7875"/></g><?plantuml-src fLXRRzis57xNho3InpLnatP8OMm5KWyfkhLectXFTHzewiWc8f4QIIVnblttVRn8ecmdw3QWBMJoN3uUVkV2EkbgOZEkj9A2r-opqRfYrwrKLDHKEUOqCtArTgoKXeIJMXM5lP6gvOOtpAvvgU-aMh6ArvQo7QCtgXJQA3Biz7MsqN9nmrTqxRPmx4rojQfppP8glgdTdExTHIrNgY7bcC0_P3Af2sFqtNmjnOqYQzbPiU-2_LKmzXRVgm1cfcjjsBFgTSKhuNUqAScarPSlNvt--2DMBxLoQUr5TNf-nek_SzCzu6ZylvXGsZq6hQhEgTorAyvUdRuGOxldugmyFVDs1q17LuGBj0vMcTKR8sYXPbe9GuvcjRORWw1ZSw6-LjeqNZP8VJjYt3Al7BRPit99lABSyhKp6dVynuQNXZif60m8t7fmu0mFlBZ46jaldKpKWRFMw5iglotK1SHkYLdYpMIf7OYd2FvglYKJC4ILsHT049MWynp21sr0WJ_PX5bmWZkSXYsDB5Sq0j6xd-lhJkvj49kl2IQQ7X3x8Ud7yqCwoXroFgjbXIENlSVCJRVtNLw2y1D--ZmKmv7OyHis001RQd_aJZ8x--DOH6-NMqlDijxcS899i8-gbs84vt9J0qca3fCAr5AUL9_NMok5JPpoGk_xlQzYOqn8sE4eoK3AokZPQoK3Xpp_hcGb4JqNZy3q7Uh8GgNb160uduty53MNIJPwIVAV_CeXDnTB6u8t6T1wTdRkafzWHV0KuZxm4Vr5oLldXR_o-3N6774aeSTnEDrCn9eQ2JnRNsJ07Nm8Repqnhs05BDEuYe9P6mBmVM5k2FSo3_K7tN-KIhfgm4AHIcNM4aNjb1fPvOsnlT-lPQLEt3nZQp9EgtIHU_OE0JWDmMenxLifBFitLMVP67zGrX-TxLBwIZqt5TJLdcUTa6BRZi5xu_EwEnHVrykvuSSOlbVUkmr3hcSmKPeggXV6lrKAcOtRQkDMwYvaGv_vsRZrcyJ4hysYvVVBLroAt3vOC6GyKFuFsgjx1eE4eO9crtDFvEHklprKjvJsPb9n-ZSn-CCz6z3_pVKrboGxxofK7JuhwFQeIOn1oZYIrbBjuL_M6fqg5yhxiWkrATmxbpg0m49s0rIMq_T51dO9DcwOPsQLffOlaf24nBROG-54dUm8aJX61MPMBbL7BbYCv4iiMf-7n8PWT0j0Pk_GULZ60yQGRxpYFqz2YvuKGozyHYrkEzIqzH0Oyyj-lKWrBUJQTQmqEmTZGNpZZ3DEcmIxSqCih5SJt7ofeMeJwgkELfPKf5RV5AhRogPMXJpQdc5dhBz3bBa0bvXL6odNHayzcK8Bh8ANOmalUgeFauPFroM3-ZrTGrAuneg_RpOOlO9rns7Z3t8kyLfofP-70FUlefrRMjFjwymKuOH68beVEU8sRKdF1I7Gz9xsULL1j9Dkpx0RhNWoqtDSRwKluTrzyyrJYqa9uPcW2jolX_Mx5H2dT37DI0u3AcxYlbLzFqhP3v-DbogFOqiW4gFAshYoQv67iL7L8emNJlTCl-CIObMlAyOXoIgXs5tNA7iWvsiwrXf6evF3A-tClmMvUbvWSH6HDU4M-HLwktUpdZCFYdm3h4CV-w2Q1WXaCcX4A9Y0sN37TGjQxHr9mMfChm24be_2-l6Ezw9Vc_Nkrs2ZsoloNRqVEvDuP0LBDWr2Bp99wZj4pxpfDevY7UR4XSTGH-ZYla1FevPDJujJDwT5E_nEjJXXsDakAKK9t_jlW37fXB8y0IGda4HHUIypK3a0TZ9zf3U0KYCzmrHQndTjxKKqkqIqbV-9u1qnFHrl_HDuUWcdnZw1cegjBAZa-8N7Kw-QS6RqfClCXEJJEVt2MSzf_-dDp_7V8UxBAL6xC8LmLxJWEE8ghYf4LUV66mDabatTFDfmSkTkHmW2Q8WnXgZWEm7SU7VggCRhsdbVuJ_K2WUVcRnDOkFZyG3KnwAXv_IQF7ceMklSJ4ybh2OtbMJli50slIwSRg4M3RIzAFnP8mRluSyIjf-S8FsNerEOvzKF2ivISSF2T29yuGVGIRPMC6Mg9WtSFRWun03KFm3?></g></svg>