<?plantuml 1.2026.2?><svg xmlns="http://www.w3.org/2000/svg" xmlns:xlink="http://www.w3.org/1999/xlink" contentStyleType="text/css" data-diagram-type="DESCRIPTION" height="1136px" preserveAspectRatio="none" style="width:4049px;height:1136px;background:#FFFFFF;" version="1.1" viewBox="0 0 4049 1136" width="4049px" zoomAndPan="magnify"><title>Canonical Proof Spine - repo-roadmap context, not Paper 1 completed-unification claim</title><defs/><g><g class="title" data-source-line="1"><text fill="#000000" font-family="sans-serif" font-size="14" font-weight="bold" lengthAdjust="spacing" textLength="607.3038" x="1712.4032" y="24.9659">Canonical Proof Spine - repo-roadmap context, not Paper 1 completed-unification claim</text></g><!--entity RealStack--><g class="entity" data-qualified-name="RealStack" data-source-line="27" id="ent0002"><rect fill="#DBEAFE" height="77.2038" rx="9" ry="9" style="stroke:#334155;stroke-width:0.5;" width="164.0734" x="579.7" y="709.5979"/><text fill="#0F172A" font-family="sans-serif" font-size="14" lengthAdjust="spacing" textLength="113.3856" x="605.0439" y="734.5639">Real stack source</text><text fill="#0F172A" font-family="sans-serif" font-size="14" lengthAdjust="spacing" textLength="144.0734" x="589.7" y="753.6318">ConcreteClosureStack</text><text fill="#0F172A" font-family="sans-serif" font-size="14" lengthAdjust="spacing" textLength="100.7016" x="611.3859" y="772.6997">[formal source]</text></g><!--entity StrongCQ--><g class="entity" data-qualified-name="StrongCQ" data-source-line="28" id="ent0003"><rect fill="#DCFCE7" height="96.2717" rx="9" ry="9" style="stroke:#334155;stroke-width:0.5;" width="249.3332" x="929.68" y="668.0679"/><text fill="#0F172A" font-family="sans-serif" font-size="14" lengthAdjust="spacing" textLength="160.9434" x="973.8749" y="693.0339">Strong quadratic forcing</text><text fill="#0F172A" font-family="sans-serif" font-size="14" lengthAdjust="spacing" textLength="229.3332" x="939.68" y="712.1018">ContractionForcesQuadraticStrong</text><text fill="#0F172A" font-family="sans-serif" font-size="14" lengthAdjust="spacing" textLength="55.6918" x="1026.5007" y="731.1697">[proved]</text><text fill="#0F172A" font-family="sans-serif" font-size="14" lengthAdjust="spacing" textLength="189.0973" x="959.798" y="750.2376">Active seam/bottleneck layer</text></g><!--entity SigBridge--><g class="entity" data-qualified-name="SigBridge" data-source-line="29" id="ent0004"><rect fill="#DCFCE7" height="77.2038" rx="9" ry="9" style="stroke:#334155;stroke-width:0.5;" width="345.4708" x="1384.92" y="565.5979"/><text fill="#0F172A" font-family="sans-serif" font-size="14" lengthAdjust="spacing" textLength="171.8353" x="1471.7377" y="590.5639">Lorentz / signature bridge</text><text fill="#0F172A" font-family="sans-serif" font-size="14" lengthAdjust="spacing" textLength="325.4708" x="1394.92" y="609.6318">ContractionQuadraticToSignatureBridgeTheorem</text><text fill="#0F172A" font-family="sans-serif" font-size="14" lengthAdjust="spacing" textLength="114.0996" x="1500.6056" y="628.6997">[proved + bridge]</text></g><!--entity CliffBridge--><g class="entity" data-qualified-name="CliffBridge" data-source-line="30" id="ent0005"><rect fill="#DCFCE7" height="77.2038" rx="9" ry="9" style="stroke:#334155;stroke-width:0.5;" width="253.0711" x="1431.12" y="677.5979"/><text fill="#0F172A" font-family="sans-serif" font-size="14" lengthAdjust="spacing" textLength="95.3256" x="1509.9927" y="702.5639">Clifford bridge</text><text fill="#0F172A" font-family="sans-serif" font-size="14" lengthAdjust="spacing" textLength="233.0711" x="1441.12" y="721.6318">QuadraticToCliffordBridgeTheorem</text><text fill="#0F172A" font-family="sans-serif" font-size="14" lengthAdjust="spacing" textLength="114.0996" x="1500.6058" y="740.6997">[proved + bridge]</text></g><!--entity CliffBundle--><g class="entity" data-qualified-name="CliffBundle" data-source-line="31" id="ent0006"><rect fill="#FEF3C7" height="77.2038" rx="9" ry="9" style="stroke:#334155;stroke-width:0.5;" width="329.4408" x="1938.39" y="565.5979"/><text fill="#0F172A" font-family="sans-serif" font-size="14" lengthAdjust="spacing" textLength="260.987" x="1972.6169" y="590.5639">Canonical contraction -&gt; Clifford bundle</text><text fill="#0F172A" font-family="sans-serif" font-size="14" lengthAdjust="spacing" textLength="309.4408" x="1948.39" y="609.6318">CanonicalContractionToCliffordBridgeTheorem</text><text fill="#0F172A" font-family="sans-serif" font-size="14" lengthAdjust="spacing" textLength="136.6115" x="2034.8047" y="628.6997">[canonical assembly]</text></g><!--entity FullClosure--><g class="entity" data-qualified-name="FullClosure" data-source-line="32" id="ent0007"><rect fill="#FEF3C7" height="96.2717" rx="9" ry="9" style="stroke:#334155;stroke-width:0.5;" width="225.7572" x="2514.46" y="459.0679"/><text fill="#0F172A" font-family="sans-serif" font-size="14" lengthAdjust="spacing" textLength="133.4055" x="2560.6359" y="484.0339">Full closure instance</text><text fill="#0F172A" font-family="sans-serif" font-size="14" lengthAdjust="spacing" textLength="177.3933" x="2538.642" y="503.1018">PhysicsClosureFullInstance</text><text fill="#0F172A" font-family="sans-serif" font-size="14" lengthAdjust="spacing" textLength="198.7992" x="2527.939" y="522.1697">[repo theorem-owner context;</text><text fill="#0F172A" font-family="sans-serif" font-size="14" lengthAdjust="spacing" textLength="205.7572" x="2524.46" y="541.2376">not Paper 1 completed closure]</text></g><!--entity UnifiedOwner--><g class="entity" data-qualified-name="UnifiedOwner" data-source-line="33" id="ent0008"><rect fill="#FEF3C7" height="96.2717" rx="9" ry="9" style="stroke:#334155;stroke-width:0.5;" width="246.8551" x="3097.95" y="47.0679"/><text fill="#0F172A" font-family="sans-serif" font-size="14" lengthAdjust="spacing" textLength="153.3554" x="3144.6999" y="72.0339">Unified theorem owner</text><text fill="#0F172A" font-family="sans-serif" font-size="14" lengthAdjust="spacing" textLength="155.0074" x="3143.8739" y="91.1018">UnifiedPhysicsTheorem</text><text fill="#0F172A" font-family="sans-serif" font-size="14" lengthAdjust="spacing" textLength="129.2475" x="3156.7538" y="110.1697">[repo-native owner;</text><text fill="#0F172A" font-family="sans-serif" font-size="14" lengthAdjust="spacing" textLength="226.8551" x="3107.95" y="129.2376">not accepted full-unification claim]</text></g><!--entity AdapterOwner--><g class="entity" data-qualified-name="AdapterOwner" data-source-line="34" id="ent0009"><rect fill="#FEF3C7" height="77.2038" rx="9" ry="9" style="stroke:#334155;stroke-width:0.5;" width="322.5388" x="3697.23" y="56.5979"/><text fill="#0F172A" font-family="sans-serif" font-size="14" lengthAdjust="spacing" textLength="206.7092" x="3755.1448" y="81.5639">Abstract/canonical seam owner</text><text fill="#0F172A" font-family="sans-serif" font-size="14" lengthAdjust="spacing" textLength="302.5388" x="3707.23" y="100.6318">PhysicsUnificationToCanonicalClosureAdapter</text><text fill="#0F172A" font-family="sans-serif" font-size="14" lengthAdjust="spacing" textLength="166.7954" x="3775.1017" y="119.6997">[adapter theorem owner]</text></g><!--entity AtomOwner--><g class="entity" data-qualified-name="AtomOwner" data-source-line="35" id="ent0010"><rect fill="#FEF3C7" height="77.2038" rx="9" ry="9" style="stroke:#334155;stroke-width:0.5;" width="251.9651" x="3732.52" y="471.5979"/><text fill="#0F172A" font-family="sans-serif" font-size="14" lengthAdjust="spacing" textLength="212.9252" x="3752.04" y="496.5639">Atom/chemistry recovery carrier</text><text fill="#0F172A" font-family="sans-serif" font-size="14" lengthAdjust="spacing" textLength="231.9651" x="3742.52" y="515.6318">AtomicChemistryRecoveryTheorem</text><text fill="#0F172A" font-family="sans-serif" font-size="14" lengthAdjust="spacing" textLength="181.0613" x="3767.9719" y="534.6997">[packaging + bridge owner]</text></g><!--entity MinimalCredible--><g class="entity" data-qualified-name="MinimalCredible" data-source-line="36" id="ent0011"><rect fill="#FEF3C7" height="77.2038" rx="9" ry="9" style="stroke:#334155;stroke-width:0.5;" width="312.0669" x="3065.34" y="660.5979"/><text fill="#0F172A" font-family="sans-serif" font-size="14" lengthAdjust="spacing" textLength="160.9854" x="3140.8807" y="685.5639">Minimal credible closure</text><text fill="#0F172A" font-family="sans-serif" font-size="14" lengthAdjust="spacing" textLength="292.0669" x="3075.34" y="704.6318">MinimalCrediblePhysicsClosureShiftInstance</text><text fill="#0F172A" font-family="sans-serif" font-size="14" lengthAdjust="spacing" textLength="126.3775" x="3158.1847" y="723.6997">[current milestone]</text></g><!--entity GRBridge--><g class="entity" data-qualified-name="GRBridge" data-source-line="37" id="ent0012"><rect fill="#FEE2E2" height="77.2038" rx="9" ry="9" style="stroke:#334155;stroke-width:0.5;" width="226.9332" x="3107.91" y="468.5979"/><text fill="#0F172A" font-family="sans-serif" font-size="14" lengthAdjust="spacing" textLength="154.9374" x="3143.9079" y="493.5639">Known-limits GR bridge</text><text fill="#0F172A" font-family="sans-serif" font-size="14" lengthAdjust="spacing" textLength="206.9332" x="3117.91" y="512.6318">KnownLimitsGRBridgeTheorem</text><text fill="#0F172A" font-family="sans-serif" font-size="14" lengthAdjust="spacing" textLength="166.6694" x="3138.0419" y="531.6997">[bridge, not full recovery]</text></g><!--entity QFTBridge--><g class="entity" data-qualified-name="QFTBridge" data-source-line="38" id="ent0013"><rect fill="#FEE2E2" height="77.2038" rx="9" ry="9" style="stroke:#334155;stroke-width:0.5;" width="234.0172" x="3104.37" y="276.5979"/><text fill="#0F172A" font-family="sans-serif" font-size="14" lengthAdjust="spacing" textLength="162.0214" x="3140.3679" y="301.5639">Known-limits QFT bridge</text><text fill="#0F172A" font-family="sans-serif" font-size="14" lengthAdjust="spacing" textLength="214.0172" x="3114.37" y="320.6318">KnownLimitsQFTBridgeTheorem</text><text fill="#0F172A" font-family="sans-serif" font-size="14" lengthAdjust="spacing" textLength="166.6694" x="3138.0439" y="339.6997">[bridge, not full recovery]</text></g><!--entity CoreSpineSupport--><g class="entity" data-qualified-name="CoreSpineSupport" data-source-line="39" id="ent0014"><rect fill="#DBEAFE" height="134.4075" rx="9" ry="9" style="stroke:#334155;stroke-width:0.5;" width="349.6988" x="7" y="774.9979"/><text fill="#0F172A" font-family="sans-serif" font-size="14" lengthAdjust="spacing" textLength="174.2013" x="94.7487" y="799.9639">CoreSpine / origin support</text><text fill="#0F172A" font-family="sans-serif" font-size="14" lengthAdjust="spacing" textLength="118.9435" x="122.3776" y="819.0318">TritTriTruthBridge</text><text fill="#0F172A" font-family="sans-serif" font-size="14" lengthAdjust="spacing" textLength="111.3976" x="126.1506" y="838.0997">TritCarrierBridge</text><text fill="#0F172A" font-family="sans-serif" font-size="14" lengthAdjust="spacing" textLength="187.6973" x="88.0007" y="857.1676">FascisticContractionInstance</text><text fill="#0F172A" font-family="sans-serif" font-size="14" lengthAdjust="spacing" textLength="280.3069" x="41.6959" y="876.2355">MoonshineBridge / CRTPeriodJFixedBridge</text><text fill="#0F172A" font-family="sans-serif" font-size="14" lengthAdjust="spacing" textLength="329.6988" x="17" y="895.3034">[bridge support, not canonical proof replacement]</text></g><!--entity OriginGates--><g class="entity" data-qualified-name="OriginGates" data-source-line="40" id="ent0015"><rect fill="#FECACA" height="153.4754" rx="9" ry="9" style="stroke:#334155;stroke-width:0.5;" width="256.1511" x="2499.27" y="622.4679"/><text fill="#0F172A" font-family="sans-serif" font-size="14" lengthAdjust="spacing" textLength="197.9873" x="2528.3519" y="647.4339">Traceability / promotion gates</text><text fill="#0F172A" font-family="sans-serif" font-size="14" lengthAdjust="spacing" textLength="162.8614" x="2545.9149" y="666.5018">OriginTraceabilityLedger</text><text fill="#0F172A" font-family="sans-serif" font-size="14" lengthAdjust="spacing" textLength="142.5755" x="2556.0578" y="685.5697">missing origin receipt</text><text fill="#0F172A" font-family="sans-serif" font-size="14" lengthAdjust="spacing" textLength="182.3913" x="2536.1499" y="704.6376">missing empirical adequacy</text><text fill="#0F172A" font-family="sans-serif" font-size="14" lengthAdjust="spacing" textLength="236.1511" x="2509.27" y="723.7055">missing convergence-rate dynamics</text><text fill="#0F172A" font-family="sans-serif" font-size="14" lengthAdjust="spacing" textLength="189.1113" x="2532.7899" y="742.7734">missing chemistry relaxation</text><text fill="#0F172A" font-family="sans-serif" font-size="14" lengthAdjust="spacing" textLength="124.1235" x="2565.2838" y="761.8414">[open governance]</text></g><g class="entity" data-qualified-name="GMN34" data-source-line="62" id="ent0035"><path d="M880.77,578.6379 L880.77,623.756 A9,9 0 0 0 889.77,632.756 L1050.34,632.756 L1054.34,667.6879 L1058.34,632.756 L1218.9142,632.756 A9,9 0 0 0 1227.9142,623.756 L1227.9142,579.6379 L1217.9142,569.6379 L889.77,569.6379 A9,9 0 0 0 880.77,578.6379" fill="#FFF7ED" style="stroke:#C2410C;stroke-width:0.5;"/><path d="M1217.9142,569.6379 L1217.9142,575.1379 A4.5,4.5 0 0 0 1222.4142,579.6379 L1227.9142,579.6379 L1217.9142,569.6379" fill="#FFF7ED" style="stroke:#C2410C;stroke-width:0.5;"/><text fill="#7C2D12" font-family="sans-serif" font-size="13" lengthAdjust="spacing" textLength="326.1442" x="886.77" y="588.5349">If a reader wants the current formal center of gravity,</text><text fill="#7C2D12" font-family="sans-serif" font-size="13" lengthAdjust="spacing" textLength="225.1342" x="937.275" y="606.2409">start here after the real stack source.</text><text fill="#7C2D12" font-family="sans-serif" font-size="13" lengthAdjust="spacing" textLength="273.8972" x="912.8935" y="623.947">This is where seam quality still matters most.</text></g><g class="entity" data-qualified-name="GMN37" data-source-line="68" id="ent0038"><path d="M3080.38,781.4979 L3080.38,808.9099 A9,9 0 0 0 3089.38,817.9099 L3353.3813,817.9099 A9,9 0 0 0 3362.3813,808.9099 L3362.3813,782.4979 L3352.3813,772.4979 L3225.38,772.4979 L3221.38,738.0479 L3217.38,772.4979 L3089.38,772.4979 A9,9 0 0 0 3080.38,781.4979" fill="#FFF7ED" style="stroke:#C2410C;stroke-width:0.5;"/><path d="M3352.3813,772.4979 L3352.3813,777.9979 A4.5,4.5 0 0 0 3356.8813,782.4979 L3362.3813,782.4979 L3352.3813,772.4979" fill="#FFF7ED" style="stroke:#C2410C;stroke-width:0.5;"/><text fill="#7C2D12" font-family="sans-serif" font-size="13" lengthAdjust="spacing" textLength="261.0013" x="3086.38" y="791.3949">This is the best current milestone package,</text><text fill="#7C2D12" font-family="sans-serif" font-size="13" lengthAdjust="spacing" textLength="176.1892" x="3128.786" y="809.1009">not a finished unified theory.</text></g><g class="entity" data-qualified-name="GMN40" data-source-line="73" id="ent0041"><path d="M3045.85,187.6379 L3045.85,232.756 A9,9 0 0 0 3054.85,241.756 L3387.8943,241.756 A9,9 0 0 0 3396.8943,232.756 L3396.8943,188.6379 L3386.8943,178.6379 L3225.38,178.6379 L3221.38,143.5679 L3217.38,178.6379 L3054.85,178.6379 A9,9 0 0 0 3045.85,187.6379" fill="#FFF7ED" style="stroke:#C2410C;stroke-width:0.5;"/><path d="M3386.8943,178.6379 L3386.8943,184.1379 A4.5,4.5 0 0 0 3391.3943,188.6379 L3396.8943,188.6379 L3386.8943,178.6379" fill="#FFF7ED" style="stroke:#C2410C;stroke-width:0.5;"/><text fill="#7C2D12" font-family="sans-serif" font-size="13" lengthAdjust="spacing" textLength="318.9163" x="3057.414" y="197.5349">This is where the strong repo-native claim lives now.</text><text fill="#7C2D12" font-family="sans-serif" font-size="13" lengthAdjust="spacing" textLength="330.0443" x="3051.85" y="215.2409">It does not erase the remaining proof gates and is not</text><text fill="#7C2D12" font-family="sans-serif" font-size="13" lengthAdjust="spacing" textLength="272.2852" x="3080.7295" y="232.947">the Paper 1 positive claim inventory by itself.</text></g><g class="entity" data-qualified-name="GMN43" data-source-line="79" id="ent0044"><path d="M3677.9,592.4979 L3677.9,619.9099 A9,9 0 0 0 3686.9,628.9099 L4030.1103,628.9099 A9,9 0 0 0 4039.1103,619.9099 L4039.1103,593.4979 L4029.1103,583.4979 L3862.5,583.4979 L3858.5,549.0479 L3854.5,583.4979 L3686.9,583.4979 A9,9 0 0 0 3677.9,592.4979" fill="#FFF7ED" style="stroke:#C2410C;stroke-width:0.5;"/><path d="M4029.1103,583.4979 L4029.1103,588.9979 A4.5,4.5 0 0 0 4033.6103,593.4979 L4039.1103,593.4979 L4029.1103,583.4979" fill="#FFF7ED" style="stroke:#C2410C;stroke-width:0.5;"/><text fill="#7C2D12" font-family="sans-serif" font-size="13" lengthAdjust="spacing" textLength="340.2103" x="3683.9" y="602.3949">This carries the strongest current atom/chemistry layer.</text><text fill="#7C2D12" font-family="sans-serif" font-size="13" lengthAdjust="spacing" textLength="250.3802" x="3728.8151" y="620.1009">It still keeps explicit recovery gates open.</text></g><g class="entity" data-qualified-name="GMN46" data-source-line="84" id="ent0047"><path d="M3093.25,589.4979 L3093.25,616.9099 A9,9 0 0 0 3102.25,625.9099 L3340.5112,625.9099 A9,9 0 0 0 3349.5112,616.9099 L3349.5112,590.4979 L3339.5112,580.4979 L3225.38,580.4979 L3221.38,546.0479 L3217.38,580.4979 L3102.25,580.4979 A9,9 0 0 0 3093.25,589.4979" fill="#FFF7ED" style="stroke:#C2410C;stroke-width:0.5;"/><path d="M3339.5112,580.4979 L3339.5112,585.9979 A4.5,4.5 0 0 0 3344.0112,590.4979 L3349.5112,590.4979 L3339.5112,580.4979" fill="#FFF7ED" style="stroke:#C2410C;stroke-width:0.5;"/><text fill="#7C2D12" font-family="sans-serif" font-size="13" lengthAdjust="spacing" textLength="235.2612" x="3099.25" y="599.3949">Read as "known-limits bridge surface".</text><text fill="#7C2D12" font-family="sans-serif" font-size="13" lengthAdjust="spacing" textLength="215.7872" x="3108.987" y="617.1009">Do not upgrade to full GR recovery.</text></g><g class="entity" data-qualified-name="GMN49" data-source-line="89" id="ent0050"><path d="M3093.25,397.4979 L3093.25,424.9099 A9,9 0 0 0 3102.25,433.9099 L3340.5112,433.9099 A9,9 0 0 0 3349.5112,424.9099 L3349.5112,398.4979 L3339.5112,388.4979 L3225.38,388.4979 L3221.38,354.0479 L3217.38,388.4979 L3102.25,388.4979 A9,9 0 0 0 3093.25,397.4979" fill="#FFF7ED" style="stroke:#C2410C;stroke-width:0.5;"/><path d="M3339.5112,388.4979 L3339.5112,393.9979 A4.5,4.5 0 0 0 3344.0112,398.4979 L3349.5112,398.4979 L3339.5112,388.4979" fill="#FFF7ED" style="stroke:#C2410C;stroke-width:0.5;"/><text fill="#7C2D12" font-family="sans-serif" font-size="13" lengthAdjust="spacing" textLength="235.2612" x="3099.25" y="407.3949">Read as "known-limits bridge surface".</text><text fill="#7C2D12" font-family="sans-serif" font-size="13" lengthAdjust="spacing" textLength="222.3652" x="3105.698" y="425.1009">Do not upgrade to full QFT recovery.</text></g><g class="entity" data-qualified-name="GMN52" data-source-line="94" id="ent0053"><path d="M2447.83,933.4979 L2447.83,960.9099 A9,9 0 0 0 2456.83,969.9099 L2797.8562,969.9099 A9,9 0 0 0 2806.8562,960.9099 L2806.8562,934.4979 L2796.8562,924.4979 L2631.34,924.4979 L2627.34,776.1879 L2623.34,924.4979 L2456.83,924.4979 A9,9 0 0 0 2447.83,933.4979" fill="#FFF7ED" style="stroke:#C2410C;stroke-width:0.5;"/><path d="M2796.8562,924.4979 L2796.8562,929.9979 A4.5,4.5 0 0 0 2801.3562,934.4979 L2806.8562,934.4979 L2796.8562,924.4979" fill="#FFF7ED" style="stroke:#C2410C;stroke-width:0.5;"/><text fill="#7C2D12" font-family="sans-serif" font-size="13" lengthAdjust="spacing" textLength="338.0262" x="2453.83" y="943.3949">This is the programmer checklist for honest promotion:</text><text fill="#7C2D12" font-family="sans-serif" font-size="13" lengthAdjust="spacing" textLength="311.5322" x="2467.077" y="961.1009">add theorem owners before changing claim colors.</text></g><!--link RealStack to StrongCQ--><g class="link" data-entity-1="ent0002" data-entity-2="ent0003" data-link-type="dependency" data-source-line="42" id="lnk16"><path d="M744.14,741.5279 C797.69,737.1479 862.82,731.808 923.34,726.848" fill="none" id="RealStack-to-StrongCQ" style="stroke:#181818;stroke-width:2;"/><polygon fill="#181818" points="929.32,726.3579,920.0233,723.1064,924.3367,726.7663,920.6768,731.0797,929.32,726.3579" style="stroke:#181818;stroke-width:2;"/><text fill="#000000" font-family="sans-serif" font-size="13" lengthAdjust="spacing" textLength="75.8421" x="774.77" y="729.0549">source stack</text></g><!--link StrongCQ to SigBridge--><g class="link" data-entity-1="ent0003" data-entity-2="ent0004" data-link-type="dependency" data-source-line="43" id="lnk17"><path d="M1179.26,688.5179 C1241.17,674.6879 1311.2043,659.036 1378.6643,643.966" fill="none" id="StrongCQ-to-SigBridge" style="stroke:#181818;stroke-width:2;"/><polygon fill="#181818" points="1384.52,642.6579,1374.8644,640.7163,1379.6403,643.748,1376.6086,648.5239,1384.52,642.6579" style="stroke:#181818;stroke-width:2;"/><text fill="#000000" font-family="sans-serif" font-size="13" lengthAdjust="spacing" textLength="95.0041" x="1258.92" y="646.0649">signature route</text></g><!--link StrongCQ to CliffBridge--><g class="link" data-entity-1="ent0003" data-entity-2="ent0005" data-link-type="dependency" data-source-line="44" id="lnk18"><path d="M1179.26,716.1979 C1255.81,716.1979 1347.75,716.1979 1424.68,716.1979" fill="none" id="StrongCQ-to-CliffBridge" style="stroke:#181818;stroke-width:2;"/><polygon fill="#181818" points="1430.68,716.1979,1421.68,712.1979,1425.68,716.1979,1421.68,720.1979,1430.68,716.1979" style="stroke:#181818;stroke-width:2;"/><text fill="#000000" font-family="sans-serif" font-size="13" lengthAdjust="spacing" textLength="94.9391" x="1259.42" y="712.0949">quadratic route</text></g><!--link SigBridge to CliffBundle--><g class="link" data-entity-1="ent0004" data-entity-2="ent0006" data-link-type="dependency" data-source-line="45" id="lnk19"><path d="M1730.6,604.1979 C1797,604.1979 1866.62,604.1979 1932.22,604.1979" fill="none" id="SigBridge-to-CliffBundle" style="stroke:#181818;stroke-width:2;"/><polygon fill="#181818" points="1938.22,604.1979,1929.22,600.1979,1933.22,604.1979,1929.22,608.1979,1938.22,604.1979" style="stroke:#181818;stroke-width:2;"/><text fill="#000000" font-family="sans-serif" font-size="13" lengthAdjust="spacing" textLength="146.1591" x="1761.39" y="600.0949">compatible Lorentz side</text></g><!--link CliffBridge to CliffBundle--><g class="link" data-entity-1="ent0005" data-entity-2="ent0006" data-link-type="dependency" data-source-line="46" id="lnk20"><path d="M1684.36,690.2979 C1759.76,674.7579 1850.6234,656.0288 1932.0134,639.2588" fill="none" id="CliffBridge-to-CliffBundle" style="stroke:#181818;stroke-width:2;"/><polygon fill="#181818" points="1937.89,638.0479,1928.2679,635.9465,1932.9929,639.0569,1929.8824,643.7819,1937.89,638.0479" style="stroke:#181818;stroke-width:2;"/><text fill="#000000" font-family="sans-serif" font-size="13" lengthAdjust="spacing" textLength="145.0411" x="1761.89" y="642.7749">compatible Clifford side</text></g><!--link CliffBundle to FullClosure--><g class="link" data-entity-1="ent0006" data-entity-2="ent0007" data-link-type="dependency" data-source-line="47" id="lnk21"><path d="M2268.27,573.7079 C2348.27,558.8479 2436.511,542.4641 2508.191,529.1441" fill="none" id="CliffBundle-to-FullClosure" style="stroke:#181818;stroke-width:2;"/><polygon fill="#181818" points="2514.09,528.0479,2504.5107,525.7595,2509.1742,528.9614,2505.9723,533.6249,2514.09,528.0479" style="stroke:#181818;stroke-width:2;"/><text fill="#000000" font-family="sans-serif" font-size="13" lengthAdjust="spacing" textLength="118.3001" x="2298.83" y="542.9149">canonical assembly</text></g><!--link FullClosure to UnifiedOwner--><g class="link" data-entity-1="ent0007" data-entity-2="ent0008" data-link-type="dependency" data-source-line="48" id="lnk22"><path d="M2673.82,458.7579 C2745.98,384.5579 2894.14,242.8279 3045.85,161.1979 C3062.26,152.3779 3074.5597,146.4912 3092.3597,139.0912" fill="none" id="FullClosure-to-UnifiedOwner" style="stroke:#181818;stroke-width:2;"/><polygon fill="#181818" points="3097.9,136.7879,3088.054,136.5493,3093.2831,138.7073,3091.1251,143.9364,3097.9,136.7879" style="stroke:#181818;stroke-width:2;"/><text fill="#000000" font-family="sans-serif" font-size="13" lengthAdjust="spacing" textLength="177.7492" x="2837.85" y="178.8449">theorem-owned strong claim</text></g><!--link UnifiedOwner to AdapterOwner--><g class="link" data-entity-1="ent0008" data-entity-2="ent0009" data-link-type="dependency" data-source-line="49" id="lnk23"><path d="M3345.21,95.1979 C3445.37,95.1979 3581.62,95.1979 3690.82,95.1979" fill="none" id="UnifiedOwner-to-AdapterOwner" style="stroke:#181818;stroke-width:2;"/><polygon fill="#181818" points="3696.82,95.1979,3687.82,91.1979,3691.82,95.1979,3687.82,99.1979,3696.82,95.1979" style="stroke:#181818;stroke-width:2;"/><text fill="#000000" font-family="sans-serif" font-size="13" lengthAdjust="spacing" textLength="148.7331" x="3463.4" y="91.0949">abstract/canonical seam</text></g><!--link UnifiedOwner to AtomOwner--><g class="link" data-entity-1="ent0008" data-entity-2="ent0010" data-link-type="dependency" data-source-line="50" id="lnk24"><path d="M3345.04,136.4579 C3362.81,143.8979 3380.6,152.1879 3396.9,161.1979 C3563.95,253.5479 3732.6323,397.3829 3810.5523,467.2329" fill="none" id="UnifiedOwner-to-AtomOwner" style="stroke:#181818;stroke-width:2;"/><polygon fill="#181818" points="3815.02,471.2379,3810.9885,462.252,3811.2969,467.9004,3805.6485,468.2089,3815.02,471.2379" style="stroke:#181818;stroke-width:2;"/><text fill="#000000" font-family="sans-serif" font-size="13" lengthAdjust="spacing" textLength="219.0242" x="3427.9" y="180.4849">atom/chemistry interpretation layer</text></g><!--link FullClosure to MinimalCredible--><g class="link" data-entity-1="ent0007" data-entity-2="ent0011" data-link-type="dependency" data-source-line="51" id="lnk25"><path d="M2726.23,555.6579 C2753.12,570.3679 2781.77,587.3979 2806.85,605.1979 C2821.48,615.5879 2820.72,624.3479 2836.85,632.1979 C2876.85,651.6679 2971.1658,668.0117 3059.1358,680.0917" fill="none" id="FullClosure-to-MinimalCredible" style="stroke:#181818;stroke-width:2;"/><polygon fill="#181818" points="3065.08,680.9079,3056.7078,675.7207,3060.1265,680.2277,3055.6195,683.6463,3065.08,680.9079" style="stroke:#181818;stroke-width:2;"/><text fill="#000000" font-family="sans-serif" font-size="13" lengthAdjust="spacing" textLength="173.4462" x="2839.85" y="628.0949">bounded milestone package</text></g><!--link FullClosure to GRBridge--><g class="link" data-entity-1="ent0007" data-entity-2="ent0012" data-link-type="dependency" data-source-line="52" id="lnk26"><path d="M2740.39,507.1979 C2845.57,507.1979 2996.09,507.1979 3101.52,507.1979" fill="none" id="FullClosure-to-GRBridge" style="stroke:#181818;stroke-width:2;"/><polygon fill="#181818" points="3107.52,507.1979,3098.52,503.1979,3102.52,507.1979,3098.52,511.1979,3107.52,507.1979" style="stroke:#181818;stroke-width:2;"/><text fill="#000000" font-family="sans-serif" font-size="13" lengthAdjust="spacing" textLength="120.6011" x="2866.35" y="503.0949">downstream bridge</text></g><!--link FullClosure to QFTBridge--><g class="link" data-entity-1="ent0007" data-entity-2="ent0013" data-link-type="dependency" data-source-line="53" id="lnk27"><path d="M2696.17,458.8279 C2735.51,432.9579 2787.01,402.7079 2836.85,384.1979 C2923.43,352.0579 3020.7629,335.2938 3098.3229,325.9738" fill="none" id="FullClosure-to-QFTBridge" style="stroke:#181818;stroke-width:2;"/><polygon fill="#181818" points="3104.28,325.2579,3094.8671,322.3602,3099.3157,325.8545,3095.8215,330.3031,3104.28,325.2579" style="stroke:#181818;stroke-width:2;"/><text fill="#000000" font-family="sans-serif" font-size="13" lengthAdjust="spacing" textLength="120.6011" x="2866.35" y="334.8149">downstream bridge</text></g><!--link CoreSpineSupport to RealStack--><g class="link" data-entity-1="ent0014" data-entity-2="ent0002" data-link-type="dependency" data-source-line="54" id="lnk28"><path d="M357.07,807.9379 C433.09,792.9779 512.6828,777.326 573.5328,765.356" fill="none" id="CoreSpineSupport-to-RealStack" style="stroke:#181818;stroke-width:2;"/><polygon fill="#181818" points="579.42,764.1979,569.8172,762.0103,574.514,765.163,571.3613,769.8598,579.42,764.1979" style="stroke:#181818;stroke-width:2;"/><text fill="#000000" font-family="sans-serif" font-size="13" lengthAdjust="spacing" textLength="161.9411" x="387.7" y="766.8149">carrier vocabulary support</text></g><!--link CoreSpineSupport to MinimalCredible--><g class="link" data-entity-1="ent0014" data-entity-2="ent0011" data-link-type="dependency" data-source-line="55" id="lnk29"><path d="M357.19,857.8679 C447.67,864.7079 560.06,871.1979 660.74,871.1979 C660.74,871.1979 660.74,871.1979 2628.34,871.1979 C2652.02,871.1979 2920.2398,790.7242 3087.0598,739.9742" fill="none" id="CoreSpineSupport-to-MinimalCredible" style="stroke:#181818;stroke-width:2;"/><polygon fill="#181818" points="3092.8,738.2279,3083.0254,737.0205,3088.0165,739.6832,3085.3538,744.6742,3092.8,738.2279" style="stroke:#181818;stroke-width:2;"/><text fill="#000000" font-family="sans-serif" font-size="13" lengthAdjust="spacing" textLength="138.9311" x="1488.65" y="867.0949">origin receipt pressure</text></g><!--link OriginGates to MinimalCredible--><g class="link" data-entity-1="ent0015" data-entity-2="ent0011" data-link-type="dependency" data-source-line="56" id="lnk30"><path d="M2755.71,699.1979 C2846.37,699.1979 2962.69,699.1979 3059.07,699.1979" fill="none" id="OriginGates-to-MinimalCredible" style="stroke:#181818;stroke-width:2;"/><polygon fill="#181818" points="3065.07,699.1979,3056.07,695.1979,3060.07,699.1979,3056.07,703.1979,3065.07,699.1979" style="stroke:#181818;stroke-width:2;"/><text fill="#000000" font-family="sans-serif" font-size="13" lengthAdjust="spacing" textLength="132.7301" x="2860.35" y="695.0949">receipt not co-located</text></g><!--link OriginGates to AtomOwner--><g class="link" data-entity-1="ent0015" data-entity-2="ent0010" data-link-type="dependency" data-source-line="57" id="lnk31"><path d="M2755.67,769.1779 C2911.94,845.2179 3182.57,944.5279 3396.9,854.1979 C3561.69,784.7479 3525.44,659.6679 3677.9,566.1979 C3694.61,555.9579 3707.7264,549.5297 3726.6264,542.4997" fill="none" id="OriginGates-to-AtomOwner" style="stroke:#181818;stroke-width:2;"/><polygon fill="#181818" points="3732.25,540.4079,3722.4201,539.7965,3727.5637,542.151,3725.2091,547.2946,3732.25,540.4079" style="stroke:#181818;stroke-width:2;"/><text fill="#000000" font-family="sans-serif" font-size="13" lengthAdjust="spacing" textLength="136.5781" x="3153.38" y="850.0949">recovery gates remain</text></g><!--link OriginGates to GRBridge--><g class="link" data-entity-1="ent0015" data-entity-2="ent0012" data-link-type="dependency" data-source-line="58" id="lnk32"><path d="M2755.64,640.7279 C2782.2,629.5279 2810.22,618.4379 2836.85,609.1979 C2926.36,578.1679 3024.5249,552.445 3101.6249,533.985" fill="none" id="OriginGates-to-GRBridge" style="stroke:#181818;stroke-width:2;"/><polygon fill="#181818" points="3107.46,532.5879,3097.776,530.7935,3102.5974,533.7522,3099.6388,538.5736,3107.46,532.5879" style="stroke:#181818;stroke-width:2;"/><text fill="#000000" font-family="sans-serif" font-size="13" lengthAdjust="spacing" textLength="130.3901" x="2861.35" y="552.0749">no full recovery claim</text></g><!--link OriginGates to QFTBridge--><g class="link" data-entity-1="ent0015" data-entity-2="ent0013" data-link-type="dependency" data-source-line="59" id="lnk33"><path d="M2755.6,625.1679 C2774.69,609.8579 2792.7,592.4579 2806.85,573.1979 C2832.59,538.2179 2807.01,511.7579 2836.85,480.1979 C2895.44,418.2479 2947.86,462.6379 3015.85,411.1979 C3033.58,397.7979 3027.75,384.0979 3045.85,371.1979 C3063.35,358.7379 3078.1266,351.0503 3098.6866,343.4003" fill="none" id="OriginGates-to-QFTBridge" style="stroke:#181818;stroke-width:2;"/><polygon fill="#181818" points="3104.31,341.3079,3094.4801,340.6975,3099.6239,343.0515,3097.2699,348.1953,3104.31,341.3079" style="stroke:#181818;stroke-width:2;"/><text fill="#000000" font-family="sans-serif" font-size="13" lengthAdjust="spacing" textLength="130.3901" x="2861.35" y="407.0949">no full recovery claim</text></g><g class="legend" data-source-line="98"><rect fill="#DDDDDD" height="128.4075" rx="9" ry="9" style="stroke:#000000;stroke-width:1;" width="387.5085" x="3632.6018" y="987.9099"/><text fill="#000000" font-family="sans-serif" font-size="14" font-weight="bold" lengthAdjust="spacing" textLength="36.9179" x="3641.2418" y="1009.8759">Color</text><text fill="#000000" font-family="sans-serif" font-size="14" font-weight="bold" lengthAdjust="spacing" textLength="61.1798" x="3685.4396" y="1009.8759">Meaning</text><rect fill="#DBEAFE" height="19.0679" style="stroke:none;stroke-width:1;" width="44.1978" x="3637.6018" y="1013.9779"/><text fill="#000000" font-family="sans-serif" font-size="14" lengthAdjust="spacing" textLength="3.64" x="3637.6018" y="1028.9438">&#160;</text><text fill="#000000" font-family="sans-serif" font-size="14" lengthAdjust="spacing" textLength="44.2258" x="3685.4396" y="1028.9438">source</text><rect fill="#DCFCE7" height="19.0679" style="stroke:none;stroke-width:1;" width="44.1978" x="3637.6018" y="1033.0458"/><text fill="#000000" font-family="sans-serif" font-size="14" lengthAdjust="spacing" textLength="3.64" x="3637.6018" y="1048.0117">&#160;</text><text fill="#000000" font-family="sans-serif" font-size="14" lengthAdjust="spacing" textLength="171.3313" x="3685.4396" y="1048.0117">proved / theorem-bearing</text><rect fill="#FEF3C7" height="19.0679" style="stroke:none;stroke-width:1;" width="44.1978" x="3637.6018" y="1052.1137"/><text fill="#000000" font-family="sans-serif" font-size="14" lengthAdjust="spacing" textLength="3.64" x="3637.6018" y="1067.0796">&#160;</text><text fill="#000000" font-family="sans-serif" font-size="14" lengthAdjust="spacing" textLength="326.0307" x="3685.4396" y="1067.0796">canonical packaging / theorem owner / milestone</text><rect fill="#FEE2E2" height="19.0679" style="stroke:none;stroke-width:1;" width="44.1978" x="3637.6018" y="1071.1816"/><text fill="#000000" font-family="sans-serif" font-size="14" lengthAdjust="spacing" textLength="3.64" x="3637.6018" y="1086.1476">&#160;</text><text fill="#000000" font-family="sans-serif" font-size="14" lengthAdjust="spacing" textLength="252.069" x="3685.4396" y="1086.1476">downstream bridge, not final recovery</text><rect fill="#FECACA" height="19.0679" style="stroke:none;stroke-width:1;" width="44.1978" x="3637.6018" y="1090.2495"/><text fill="#000000" font-family="sans-serif" font-size="14" lengthAdjust="spacing" textLength="3.64" x="3637.6018" y="1105.2155">&#160;</text><text fill="#000000" font-family="sans-serif" font-size="14" lengthAdjust="spacing" textLength="209.0192" x="3685.4396" y="1105.2155">open gate / governance blocker</text><line style="stroke:#000000;stroke-width:1;" x1="3637.6018" x2="4015.1103" y1="994.9099" y2="994.9099"/><line style="stroke:#000000;stroke-width:1;" x1="3637.6018" x2="4015.1103" y1="1013.9779" y2="1013.9779"/><line style="stroke:#000000;stroke-width:1;" x1="3637.6018" x2="4015.1103" y1="1033.0458" y2="1033.0458"/><line style="stroke:#000000;stroke-width:1;" x1="3637.6018" x2="4015.1103" y1="1052.1137" y2="1052.1137"/><line style="stroke:#000000;stroke-width:1;" x1="3637.6018" x2="4015.1103" y1="1071.1816" y2="1071.1816"/><line style="stroke:#000000;stroke-width:1;" x1="3637.6018" x2="4015.1103" y1="1090.2495" y2="1090.2495"/><line style="stroke:#000000;stroke-width:1;" x1="3637.6018" x2="4015.1103" y1="1109.3175" y2="1109.3175"/><line style="stroke:#000000;stroke-width:1;" x1="3637.6018" x2="3637.6018" y1="994.9099" y2="1109.3175"/><line style="stroke:#000000;stroke-width:1;" x1="3681.7997" x2="3681.7997" y1="994.9099" y2="1109.3175"/><line style="stroke:#000000;stroke-width:1;" x1="4015.1103" x2="4015.1103" y1="994.9099" y2="1109.3175"/></g><?plantuml-src fLZVZnCt47xVlyA2nnB27LIWj4KwKXsY1G5tuOdmu7YzYNMxzjPsxYxjzN_lDxPtrvlaJhIL06ti-V5vFFFD6AzyBTcSQwELu3NxP8sfs6Mhj6GJPcLh9jRmik4j4qPxUUkVC6qy-yHRQTa95fksbbwMawrM5KnuPJGJDLTDKSlACs-OLUkDPwMoKj1kKRWhfLjkUSFSXfVcHkargtZjPBPZpLQNmbXDRbvb6oqNLtmjB_qEmCaar-iwronbnRUrNm3hMQtMkf7QCu5_fCsapgmrDukD4bTQEiTEYqCNxA-2iJVuNWSmSrCRonvNhofU2TenjfGshJv__kBann-nUeuefRLdrSdBKrxydPlk0KVZ_yK4mdyVjAfwASjzk-BqnSapCRRxKfoM9wTaTm3qw48Y0Po7LURCrWgvr7EZXSNrpclZjXP1n-PIVwsCRKWsI7rxnBXZf1ossUDo9NabSykNtXhSyHzRNbfaY60m873hmO6tFEJ5ETQa-zp9H1quQwsvbkMtfJw3sBLaJl9ckZ8UYQib_DLy9st045Ncdm51L4A-p26yDnOfy2URCeUSu1wdOIkhohKSWUZTBynb9_ScY2qs4YQQ7X3x8Ud7yqCwoXrpFgzLXIENlSVCJRVtNLw2y0D--ZeMmv7Ov3KR021RQZfo9vcT_NuiehVBdPFDgjxbS899P9-ideiHdFDj3IGnTPZII2rDIVLfitDAk9HJ9FIkt_jAbCDyz3mnDrJ-YNX-MkgZpDDvY938NB9y3D8NOYde90yiU5Zgj9oG3GSF18WieBmBeWa45qAsvBk2kqFgYr2IqO_X44UmdArS2Frq22_bTeSfWVao6CS5zTSMZtXMSi20y5SUlyO7YpYIqFqul6ccOYCR1JmxeYXa7Zu4jrQHSH9GOjv9N2I1B5S3OHADT-awyW_rUvr_K5eHbu1cIhN2IhhDfKuxyxGnpfhBZQfybZPYQwc-MQDgwRpHAHlsR1m3yBi6r4cj6kKTUtlHbsXOVn-Mtrxi5qGKYgsGKg0FMdJRAP0_UIfFx_Nt-Nnnp26M_wN7NkEOopbin9O-PGRTM6dcjcrhh5_gXLKUVnTswpTl4X9QcyVBxvREkHEuV6J1m1T3-3yOezq63XA6APjVB3v9gqpvsxcwbMLd9XsZSn-FCwH_6wOF55tDXQI-dMYcmtyPrOwrc0L0IRvIjV8x-8UbneI2N7CltL9_3EVEfTvB845s8waTfMwA36nArVfXNJQjif7yIeaM9dR37gW9Tx2MYC84V2vPkTCSjU8oaQomQduR2Xc1CAq4Dhf1JJ6C1uqWtn9YkaV11I-AeRDEmEHzZvkbzXixTj6l1w6-6SsoTeTHmSknODvFPbb_JgAzcK4salqiq2z4gQYwrkfKAOlSueDQVKlArA8OgUKqFcE7_QV81KXXHBQpKGU1YpX_nB5q94cg8twSCNwSbe_ezRm6fJ67AfesMqnEiIc44UK0yZuvpTYAXZdWxLci6qKFT7k6cJ4Cq2X4IvqZLjU1y40EnwGFgejKXgIRTNs0NHl1LzkQutofVe_h7fvhN5eeJepS05Va-NvSirC9F64cDI2WxHuevbVHzwzG-VZPSAKFDB80QZDcr9Gd-nfv5EzHAS9ixatBw16L2gruLp4EIR27PJTSW_QHdQphM6cMZWyKqbjRVWrwUbAWi17HZSGjyYhrTh8p7jAV5dZ5E8O_Dq4qZ12ev424O6oWRBY7kcEDSVvf8NKPtX09BKtIfY77Uz7lxPBR5VAH7JJPBZsV564eOXKik0qIU9kFMRi7VEP5jNSGSfiADn_3GgHPZKy7apTFYtTuMvhmmpDfkPCfJdJjHC2ngSHauC2XWcX1GjqisHgdCkCAfAuzWBCLIjaxMLSF7A7FlOW_LelBuEUXs-E9G0pX2F6chgHi7PEtRQs4ylkfJ3tZ0I1TIbF7AAcTFBhAPus-zTeAJV3Hq-9N4sAsRP5n9QLjp6dCG9tV1vprrV0_lT44z1tkic8SvIKk5_QQXfu96xm6QyILIefja9xE3tF0hE3btjWFa1AYkFKDXWZLDGZm3Dx8BWTJopNz2F-HKTpzmk8h6XyV90yvTbVS_Po6ajTtNMEEY-6HXiNqdflshGdIjjUDSod4ic6e7wgdOzpuFLHWqgQH3ze7x9u6HgLvHbP9XyOBwCH9X8QNQJQGi1MuzWhExYWECG35Fm00?></g></svg>