<?plantuml 1.2026.2?><svg xmlns="http://www.w3.org/2000/svg" xmlns:xlink="http://www.w3.org/1999/xlink" contentStyleType="text/css" data-diagram-type="DESCRIPTION" height="802px" preserveAspectRatio="none" style="width:1480px;height:802px;background:#FFFFFF;" version="1.1" viewBox="0 0 1480 802" width="1480px" zoomAndPan="magnify"><title>Observable Signature Gauge Entry Round</title><defs/><g><g class="title" data-source-line="1"><text fill="#000000" font-family="sans-serif" font-size="14" font-weight="bold" lengthAdjust="spacing" textLength="288.9869" x="588.5281" y="24.9659">Observable Signature Gauge Entry Round</text></g><!--entity L0--><g class="entity" data-qualified-name="L0" data-source-line="5" id="ent0002"><rect fill="#F1F1F1" height="58.1358" rx="2.5" ry="2.5" style="stroke:#181818;stroke-width:0.5;" width="139.4895" x="1097.1" y="47.0679"/><text fill="#000000" font-family="sans-serif" font-size="14" lengthAdjust="spacing" textLength="119.4895" x="1107.1" y="72.0339">Arithmetic budget</text><text fill="#000000" font-family="sans-serif" font-size="14" lengthAdjust="spacing" textLength="56.3078" x="1107.1" y="91.1018">L0(state)</text></g><!--entity DQ--><g class="entity" data-qualified-name="DQ" data-source-line="6" id="ent0003"><rect fill="#F1F1F1" height="58.1358" rx="2.5" ry="2.5" style="stroke:#181818;stroke-width:0.5;" width="251.7411" x="1040.98" y="184.1979"/><text fill="#000000" font-family="sans-serif" font-size="14" lengthAdjust="spacing" textLength="134.0355" x="1050.98" y="209.1639">Delta to Q distortion</text><text fill="#000000" font-family="sans-serif" font-size="14" lengthAdjust="spacing" textLength="231.7411" x="1050.98" y="228.2318">weightedSupport + trackedSupport</text></g><!--entity Sig--><g class="entity" data-qualified-name="Sig" data-source-line="7" id="ent0004"><rect fill="#F1F1F1" height="58.1358" rx="2.5" ry="2.5" style="stroke:#181818;stroke-width:0.5;" width="253.2391" x="907.23" y="321.3379"/><text fill="#000000" font-family="sans-serif" font-size="14" lengthAdjust="spacing" textLength="106.2876" x="917.23" y="346.3039">Signature stress</text><text fill="#000000" font-family="sans-serif" font-size="14" lengthAdjust="spacing" textLength="233.2391" x="917.23" y="365.3718">forced / conditional / blocked / held</text></g><!--entity Obs--><g class="entity" data-qualified-name="Obs" data-source-line="8" id="ent0005"><rect fill="#F1F1F1" height="58.1358" rx="2.5" ry="2.5" style="stroke:#181818;stroke-width:0.5;" width="219.7372" x="244.98" y="321.3379"/><text fill="#000000" font-family="sans-serif" font-size="14" lengthAdjust="spacing" textLength="173.6694" x="254.98" y="346.3039">Observable transport gate</text><text fill="#000000" font-family="sans-serif" font-size="14" lengthAdjust="spacing" textLength="199.7372" x="254.98" y="365.3718">admissible + stable + coherent</text></g><!--entity Test--><g class="entity" data-qualified-name="Test" data-source-line="9" id="ent0006"><rect fill="#F1F1F1" height="58.1358" rx="2.5" ry="2.5" style="stroke:#181818;stroke-width:0.5;" width="165.0255" x="272.33" y="458.4679"/><text fill="#000000" font-family="sans-serif" font-size="14" lengthAdjust="spacing" textLength="145.0255" x="282.33" y="483.4339">Pressure test instance</text><text fill="#000000" font-family="sans-serif" font-size="14" lengthAdjust="spacing" textLength="127.0495" x="282.33" y="502.5018">canonical singleton</text></g><!--entity ShiftTest--><g class="entity" data-qualified-name="ShiftTest" data-source-line="10" id="ent0007"><rect fill="#F1F1F1" height="58.1358" rx="2.5" ry="2.5" style="stroke:#181818;stroke-width:0.5;" width="188.9514" x="472.37" y="458.4679"/><text fill="#000000" font-family="sans-serif" font-size="14" lengthAdjust="spacing" textLength="119.8396" x="482.37" y="483.4339">Shift pressure test</text><text fill="#000000" font-family="sans-serif" font-size="14" lengthAdjust="spacing" textLength="168.9514" x="482.37" y="502.5018">pointwise pressure status</text></g><!--entity Gauge--><g class="entity" data-qualified-name="Gauge" data-source-line="11" id="ent0008"><rect fill="#F1F1F1" height="58.1358" rx="2.5" ry="2.5" style="stroke:#181818;stroke-width:0.5;" width="129.1016" x="123.3" y="595.6079"/><text fill="#000000" font-family="sans-serif" font-size="14" lengthAdjust="spacing" textLength="81.3677" x="133.3" y="620.5739">Gauge entry</text><text fill="#000000" font-family="sans-serif" font-size="14" lengthAdjust="spacing" textLength="109.1016" x="133.3" y="639.6418">fiber/action laws</text></g><!--entity Exec--><g class="entity" data-qualified-name="Exec" data-source-line="12" id="ent0009"><rect fill="#F1F1F1" height="58.1358" rx="2.5" ry="2.5" style="stroke:#181818;stroke-width:0.5;" width="201.4813" x="696.11" y="458.4679"/><text fill="#000000" font-family="sans-serif" font-size="14" lengthAdjust="spacing" textLength="181.4813" x="706.11" y="483.4339">Canonical execution receipt</text><text fill="#000000" font-family="sans-serif" font-size="14" lengthAdjust="spacing" textLength="81.5357" x="706.11" y="502.5018">identity step</text></g><!--entity ShiftExec--><g class="entity" data-qualified-name="ShiftExec" data-source-line="13" id="ent0010"><rect fill="#F1F1F1" height="58.1358" rx="2.5" ry="2.5" style="stroke:#181818;stroke-width:0.5;" width="195.6433" x="933.03" y="458.4679"/><text fill="#000000" font-family="sans-serif" font-size="14" lengthAdjust="spacing" textLength="175.6433" x="943.03" y="483.4339">Live shift execution receipt</text><text fill="#000000" font-family="sans-serif" font-size="14" lengthAdjust="spacing" textLength="110.0396" x="943.03" y="502.5018">trajectory i0 -&gt; i1</text></g><!--entity Receipt--><g class="entity" data-qualified-name="Receipt" data-source-line="14" id="ent0011"><rect fill="#F1F1F1" height="58.1358" rx="2.5" ry="2.5" style="stroke:#181818;stroke-width:0.5;" width="272.517" x="687.59" y="595.6079"/><text fill="#000000" font-family="sans-serif" font-size="14" lengthAdjust="spacing" textLength="221.5211" x="697.59" y="620.5739">Internal physics-boundary receipt</text><text fill="#000000" font-family="sans-serif" font-size="14" lengthAdjust="spacing" textLength="252.517" x="697.59" y="639.6418">execution + statuses + support budget</text></g><g class="entity" data-qualified-name="GMN26" data-source-line="32" id="ent0027"><path d="M6,714.7479 L6,795.572 A0,0 0 0 0 6,795.572 L369.6933,795.572 A0,0 0 0 0 369.6933,795.572 L369.6933,724.7479 L359.6933,714.7479 L191.85,714.7479 L187.85,654.1879 L183.85,714.7479 L6,714.7479 A0,0 0 0 0 6,714.7479" fill="#FEFFDD" style="stroke:#181818;stroke-width:0.5;"/><path d="M359.6933,714.7479 L359.6933,724.7479 L369.6933,724.7479 L359.6933,714.7479" fill="#FEFFDD" style="stroke:#181818;stroke-width:0.5;"/><text fill="#000000" font-family="sans-serif" font-size="13" lengthAdjust="spacing" textLength="79.0921" x="12" y="733.6449">G is abstract.</text><text fill="#000000" font-family="sans-serif" font-size="13" lengthAdjust="spacing" textLength="275.5612" x="12" y="751.3509">No Standard Model or matter recovery claim.</text><text fill="#000000" font-family="sans-serif" font-size="13" lengthAdjust="spacing" textLength="342.6933" x="12" y="769.057">No W3 accepted authority, W4 adequacy, W5 correction,</text><text fill="#000000" font-family="sans-serif" font-size="13" lengthAdjust="spacing" textLength="173.2252" x="12" y="786.763">or physical calibration claim.</text></g><!--link L0 to DQ--><g class="link" data-entity-1="ent0002" data-entity-2="ent0003" data-link-type="dependency" data-source-line="16" id="lnk12"><path d="M1166.85,105.4579 C1166.85,128.5279 1166.85,154.9279 1166.85,177.9779" fill="none" id="L0-to-DQ" style="stroke:#181818;stroke-width:1;"/><polygon fill="#181818" points="1166.85,183.9779,1170.85,174.9779,1166.85,178.9779,1162.85,174.9779,1166.85,183.9779" style="stroke:#181818;stroke-width:1;"/><text fill="#000000" font-family="sans-serif" font-size="13" lengthAdjust="spacing" textLength="78.6631" x="1167.85" y="150.0949">finite budget</text></g><!--link DQ to Sig--><g class="link" data-entity-1="ent0003" data-entity-2="ent0004" data-link-type="dependency" data-source-line="17" id="lnk13"><path d="M1138.97,242.5979 C1116.27,265.6579 1088.5891,293.782 1065.8991,316.832" fill="none" id="DQ-to-Sig" style="stroke:#181818;stroke-width:1;"/><polygon fill="#181818" points="1061.69,321.1079,1070.8543,317.5001,1065.1976,317.5447,1065.1531,311.888,1061.69,321.1079" style="stroke:#181818;stroke-width:1;"/><text fill="#000000" font-family="sans-serif" font-size="13" lengthAdjust="spacing" textLength="137.2021" x="1109.31" y="287.2349">controlled carrier path</text></g><!--link Sig to Test--><g class="link" data-entity-1="ent0004" data-entity-2="ent0006" data-link-type="dependency" data-source-line="18" id="lnk14"><path d="M906.8,378.6279 C832.62,394.1179 737.12,413.3879 651.85,428.4679 C564.64,443.8979 541.42,439.8079 454.85,458.4679 C449.21,459.6879 449.2367,459.6063 443.4167,461.0363" fill="none" id="Sig-to-Test" style="stroke:#181818;stroke-width:1;"/><polygon fill="#181818" points="437.59,462.4679,447.2845,464.2049,442.4456,461.2749,445.3756,456.436,437.59,462.4679" style="stroke:#181818;stroke-width:1;"/><text fill="#000000" font-family="sans-serif" font-size="13" lengthAdjust="spacing" textLength="100.9841" x="747.45" y="424.3649">signature forced</text></g><!--link Obs to Test--><g class="link" data-entity-1="ent0005" data-entity-2="ent0006" data-link-type="dependency" data-source-line="19" id="lnk15"><path d="M354.85,379.7379 C354.85,402.7979 354.85,429.1979 354.85,452.2479" fill="none" id="Obs-to-Test" style="stroke:#181818;stroke-width:1;"/><polygon fill="#181818" points="354.85,458.2479,358.85,449.2479,354.85,453.2479,350.85,449.2479,354.85,458.2479" style="stroke:#181818;stroke-width:1;"/><text fill="#000000" font-family="sans-serif" font-size="13" lengthAdjust="spacing" textLength="110.0191" x="355.85" y="424.3649">observable forced</text></g><!--link Sig to ShiftTest--><g class="link" data-entity-1="ent0004" data-entity-2="ent0007" data-link-type="dependency" data-source-line="20" id="lnk16"><path d="M983.94,379.7979 C952.66,396.3979 910.98,416.4079 871.85,428.4679 C788.89,454.0579 763.93,441.2379 678.85,458.4679 C673.25,459.6079 673.3659,459.531 667.5859,460.821" fill="none" id="Sig-to-ShiftTest" style="stroke:#181818;stroke-width:1;"/><polygon fill="#181818" points="661.73,462.1279,671.3852,464.0715,666.6099,461.0388,669.6426,456.2635,661.73,462.1279" style="stroke:#181818;stroke-width:1;"/><text fill="#000000" font-family="sans-serif" font-size="13" lengthAdjust="spacing" textLength="151.5151" x="923.51" y="424.3649">request/check endpoints</text></g><!--link Obs to ShiftTest--><g class="link" data-entity-1="ent0005" data-entity-2="ent0007" data-link-type="dependency" data-source-line="21" id="lnk17"><path d="M421.21,379.9179 C439.11,388.5679 458.13,398.6679 474.85,409.4679 C496.89,423.7279 515.0525,438.6127 532.3525,454.1227" fill="none" id="Obs-to-ShiftTest" style="stroke:#181818;stroke-width:1;"/><polygon fill="#181818" points="536.82,458.1279,532.789,449.1418,533.0971,454.7902,527.4487,455.0984,536.82,458.1279" style="stroke:#181818;stroke-width:1;"/><text fill="#000000" font-family="sans-serif" font-size="13" lengthAdjust="spacing" textLength="143.8061" x="499.98" y="424.3649">held/control separation</text></g><!--link Test to Gauge--><g class="link" data-entity-1="ent0006" data-entity-2="ent0008" data-link-type="dependency" data-source-line="22" id="lnk18"><path d="M272.28,512.0679 C231.83,524.4279 190.56,538.6179 184.85,546.6079 C174.95,560.4379 174.4332,573.6365 177.6032,589.3465" fill="none" id="Test-to-Gauge" style="stroke:#181818;stroke-width:1;"/><polygon fill="#181818" points="178.79,595.2279,180.9308,585.6145,177.801,590.3267,173.0889,587.1969,178.79,595.2279" style="stroke:#181818;stroke-width:1;"/><text fill="#000000" font-family="sans-serif" font-size="13" lengthAdjust="spacing" textLength="188.5912" x="185.85" y="561.5049">minimal entry, no matter claim</text></g><!--link Exec to Receipt--><g class="link" data-entity-1="ent0009" data-entity-2="ent0011" data-link-type="dependency" data-source-line="23" id="lnk19"><path d="M802.51,516.8679 C807.11,539.9279 812.4162,566.4438 817.0162,589.5038" fill="none" id="Exec-to-Receipt" style="stroke:#181818;stroke-width:1;"/><polygon fill="#181818" points="818.19,595.3879,820.3521,585.7793,817.2119,590.4845,812.5067,587.3443,818.19,595.3879" style="stroke:#181818;stroke-width:1;"/><text fill="#000000" font-family="sans-serif" font-size="13" lengthAdjust="spacing" textLength="144.3781" x="812.96" y="561.5049">admissible identity step</text></g><!--link ShiftExec to Receipt--><g class="link" data-entity-1="ent0010" data-entity-2="ent0011" data-link-type="dependency" data-source-line="24" id="lnk20"><path d="M1012.21,516.8079 C1000.46,532.8579 984.1,552.3179 965.85,565.6079 C949.7,577.3679 936.3273,584.8369 917.7073,592.8869" fill="none" id="ShiftExec-to-Receipt" style="stroke:#181818;stroke-width:1;"/><polygon fill="#181818" points="912.2,595.2679,922.0483,595.368,916.7895,593.2838,918.8737,588.0249,912.2,595.2679" style="stroke:#181818;stroke-width:1;"/><text fill="#000000" font-family="sans-serif" font-size="13" lengthAdjust="spacing" textLength="125.0731" x="987.52" y="561.5049">admissible shift step</text></g><!--link Test to Receipt--><g class="link" data-entity-1="ent0006" data-entity-2="ent0011" data-link-type="dependency" data-source-line="25" id="lnk21"><path d="M380.67,516.9079 C397.76,533.8279 421.6,554.1779 446.85,565.6079 C522.11,599.6779 607.5601,613.8373 681.5401,619.9073" fill="none" id="Test-to-Receipt" style="stroke:#181818;stroke-width:1;"/><polygon fill="#181818" points="687.52,620.3979,678.8772,615.6753,682.5367,619.989,678.223,623.6486,687.52,620.3979" style="stroke:#181818;stroke-width:1;"/><text fill="#000000" font-family="sans-serif" font-size="13" lengthAdjust="spacing" textLength="150.7611" x="447.85" y="561.5049">internal receipt evidence</text></g><!--link ShiftTest to Receipt--><g class="link" data-entity-1="ent0007" data-entity-2="ent0011" data-link-type="dependency" data-source-line="26" id="lnk22"><path d="M582.66,516.7779 C593.21,533.2179 608.49,553.1079 626.85,565.6079 C645.04,578.0079 660.2827,585.7434 681.4927,593.4734" fill="none" id="ShiftTest-to-Receipt" style="stroke:#181818;stroke-width:1;"/><polygon fill="#181818" points="687.13,595.5279,680.0437,588.688,682.4323,593.8158,677.3044,596.2043,687.13,595.5279" style="stroke:#181818;stroke-width:1;"/><text fill="#000000" font-family="sans-serif" font-size="13" lengthAdjust="spacing" textLength="172.9131" x="627.85" y="561.5049">shift-backed status evidence</text></g><!--link DQ to Receipt--><g class="link" data-entity-1="ent0003" data-entity-2="ent0011" data-link-type="dependency" data-source-line="27" id="lnk23"><path d="M1226.92,242.7179 C1238,250.7279 1248.17,260.5479 1254.85,272.3379 C1308.37,366.8579 1321.2,424.9879 1262.85,516.6079 C1230.27,567.7679 1082.8441,595.447 966.4741,609.927" fill="none" id="DQ-to-Receipt" style="stroke:#181818;stroke-width:1;"/><polygon fill="#181818" points="960.52,610.6679,969.945,613.526,965.4817,610.0505,968.9572,605.5872,960.52,610.6679" style="stroke:#181818;stroke-width:1;"/><text fill="#000000" font-family="sans-serif" font-size="13" lengthAdjust="spacing" textLength="169.9232" x="1302.12" y="424.3649">pair support decomposition</text></g><!--link Obs to Receipt--><g class="link" data-entity-1="ent0005" data-entity-2="ent0011" data-link-type="dependency" data-source-line="28" id="lnk24"><path d="M250.07,379.9579 C210.96,396.2579 170.56,421.1479 147.85,458.4679 C122.57,499.9979 130.25,537.4179 169.85,565.6079 C210.94,594.8579 501.8552,611.1692 681.1852,618.6092" fill="none" id="Obs-to-Receipt" style="stroke:#181818;stroke-width:1;"/><polygon fill="#181818" points="687.18,618.8579,678.3535,614.4883,682.1843,618.6507,678.0219,622.4814,687.18,618.8579" style="stroke:#181818;stroke-width:1;"/><text fill="#000000" font-family="sans-serif" font-size="13" lengthAdjust="spacing" textLength="105.4431" x="148.85" y="492.9349">observableStatus</text></g><!--link Sig to Receipt--><g class="link" data-entity-1="ent0004" data-entity-2="ent0011" data-link-type="dependency" data-source-line="29" id="lnk25"><path d="M1077.97,379.8779 C1102.99,398.7879 1132,426.0679 1145.85,458.4679 C1165.03,503.3379 1160.58,535.9279 1121.85,565.6079 C1096.07,585.3679 1031.9694,598.7071 966.2794,608.1171" fill="none" id="Sig-to-Receipt" style="stroke:#181818;stroke-width:1;"/><polygon fill="#181818" points="960.34,608.9679,969.8163,611.6513,965.2895,608.2589,968.6819,603.7321,960.34,608.9679" style="stroke:#181818;stroke-width:1;"/><text fill="#000000" font-family="sans-serif" font-size="13" lengthAdjust="spacing" textLength="96.4081" x="1157.89" y="492.9349">signatureStatus</text></g><?plantuml-src TLHDRzim3BthLn0zRMYpTDXswM70i1J5WEoZpO1USf5b9kPYIvv4fyk_7oaxjbjiXm2AzTuZnVSa9guHlXS9uz4MijpGtblk8iATxVO8jvxZ2Hv2vqjZqe5yQwDjm8Mc3HuzR_Wah8YEhT_NQCou0nUV8d7L89E3eYlto5k_ldwLs3A-lW2RO7qzXw-mPWiSu1vAIXmYK_1R_uIqhnZBJTUsyWqkWQDrX_53LbhTpvMcGoIEcDBMxq9qMC9I6lSbgR2jvLzH1rMILOLrcPM4EvUQZKRA-fHRsCi9jjwM3QL4kdKfXMo_SA72ADGi9kovs0zjHjjYJ0paXUITA3dhWoSdBINIANBmcVvJOC_ELT6EePshR7qRoFCJ9PmsTCHTwe-Zb9SwlRMerifegC2uj4w70hLzwdaPCkTy7dl4F-YwZ1RRaLhfWKh149-aChQPVokWENrDH-ahz_yFlepsbqGeIDJe6XOVWTvEtR-K-k8Pe_hNLgT4BYqAJQSLxgWtbRWSXe59bqE4-ZJc2WyznPYrr9N2gtkuWHrvOXnWHZxfZWH3jYG_74DTIsYSZP4mGckvChghA1srmDAOm3vvHf8mtmzJh0R0MM0qJ50HVtUoMheAtK7yAhFNQHIROpN0ow4xIAZNL0TWyhQ2UzDle973DMgZsdy5Fa1ZMIOAhhRK69rsnW-J4SOiwC-CDgCz_oVqbcVqsCa4fBELWtE0HwtWq4n7Uyx8UeiYFm23jHDfS6f2jvRYw7g9EKGfN_znXXDuycIJTKTBPjNFjWu8uuFc93271i9kk3LtG0biaVITuZVcMm21Qq9B-1fAh274yypbtE684jqy_8nzV0VMEMpboGFRSHNa5HMV7j_BM2KFrkcV3nB4gA-k7ENAY5v_5sIIygEYz_uiAi41RTJy1G00?></g></svg>