<?plantuml 1.2026.2?><svg xmlns="http://www.w3.org/2000/svg" xmlns:xlink="http://www.w3.org/1999/xlink" contentStyleType="text/css" data-diagram-type="DESCRIPTION" height="1041px" preserveAspectRatio="none" style="width:1945px;height:1041px;background:#FFFFFF;" version="1.1" viewBox="0 0 1945 1041" width="1945px" zoomAndPan="magnify"><title>Paper 8 tower schema and gate mapping</title><defs/><g><rect fill="#FFFFCC" height="28.62" rx="2.5" ry="2.5" style="stroke:#FFDD88;stroke-width:3;" width="1934.8395" x="5" y="5"/><text fill="#000000" font-family="monospace" font-size="10" lengthAdjust="spacing" textLength="354" x="10" y="20">Please&#160;use&#160;'!option&#160;handwritten&#160;true'&#160;to&#160;enable&#160;handwritten</text><g class="title" data-source-line="1"><text fill="#000000" font-family="Helvetica" font-size="14" font-weight="bold" lengthAdjust="spacing" textLength="285.4309" x="815.7043" y="63.5859">Paper 8 tower schema and gate mapping</text></g><!--cluster Millennium lanes--><g class="cluster" data-qualified-name="Millennium lanes" data-source-line="27" id="ent0011"><rect fill="#F7F8FA" height="745.98" rx="2" ry="2" style="stroke:#2B2F36;stroke-width:1;" width="499" x="940" y="190.8279"/><text fill="#000000" font-family="Helvetica" font-size="14" font-weight="bold" lengthAdjust="spacing" textLength="119.9095" x="1129.5452" y="207.7938">Millennium lanes</text></g><!--cluster Gate map--><g class="cluster" data-qualified-name="Gate map" data-source-line="61" id="ent0040"><rect fill="#F7F8FA" height="306.92" rx="2" ry="2" style="stroke:#2B2F36;stroke-width:1;" width="909" x="7" y="472.1679"/><text fill="#000000" font-family="Helvetica" font-size="14" font-weight="bold" lengthAdjust="spacing" textLength="67.4797" x="427.7601" y="489.1338">Gate map</text></g><!--entity YM0--><g class="entity" data-qualified-name="Millennium lanes.YM0" data-source-line="28" id="ent0012"><rect fill="#F7F8FA" height="58.1358" rx="2" ry="2" style="stroke:#2B2F36;stroke-width:0.5;" width="212.2893" x="1004.86" y="238.3579"/><text fill="#000000" font-family="Helvetica" font-size="14" lengthAdjust="spacing" textLength="20.6219" x="1100.6937" y="263.3238">YM</text><text fill="#000000" font-family="Helvetica" font-size="14" lengthAdjust="spacing" textLength="192.2893" x="1014.86" y="282.3918">finite gap and gauge receipts</text></g><!--entity YM1--><g class="entity" data-qualified-name="Millennium lanes.YM1" data-source-line="29" id="ent0013"><rect fill="#F7F8FA" height="58.1358" rx="2" ry="2" style="stroke:#2B2F36;stroke-width:0.5;" width="182.8054" x="1047.6" y="367.0279"/><text fill="#000000" font-family="Helvetica" font-size="14" lengthAdjust="spacing" textLength="20.6219" x="1128.6917" y="391.9938">YM</text><text fill="#000000" font-family="Helvetica" font-size="14" lengthAdjust="spacing" textLength="162.8054" x="1057.6" y="411.0618">pro-object / depth family</text></g><!--entity YM2--><g class="entity" data-qualified-name="Millennium lanes.YM2" data-source-line="30" id="ent0014"><rect fill="#F7F8FA" height="58.1358" rx="2" ry="2" style="stroke:#2B2F36;stroke-width:0.5;" width="169.3794" x="1054.31" y="519.6979"/><text fill="#000000" font-family="Helvetica" font-size="14" lengthAdjust="spacing" textLength="20.6219" x="1128.6888" y="544.6638">YM</text><text fill="#000000" font-family="Helvetica" font-size="14" lengthAdjust="spacing" textLength="149.3794" x="1064.31" y="563.7318">Hamiltonian colimit lift</text></g><!--entity YM3--><g class="entity" data-qualified-name="Millennium lanes.YM3" data-source-line="31" id="ent0015"><rect fill="#F7F8FA" height="58.1358" rx="2" ry="2" style="stroke:#2B2F36;stroke-width:0.5;" width="185.2274" x="956.39" y="695.4179"/><text fill="#000000" font-family="Helvetica" font-size="14" lengthAdjust="spacing" textLength="20.6219" x="1038.6927" y="720.3838">YM</text><text fill="#000000" font-family="Helvetica" font-size="14" lengthAdjust="spacing" textLength="165.2274" x="966.39" y="739.4518">Clay mass-gap obligation</text></g><!--entity YM4--><g class="entity" data-qualified-name="Millennium lanes.YM4" data-source-line="32" id="ent0016"><rect fill="#F7F8FA" height="77.2038" rx="2" ry="2" style="stroke:#2B2F36;stroke-width:0.5;" width="222.7192" x="962.64" y="843.6079"/><text fill="#000000" font-family="Helvetica" font-size="14" lengthAdjust="spacing" textLength="20.6219" x="1063.6886" y="868.5738">YM</text><text fill="#000000" font-family="Helvetica" font-size="14" lengthAdjust="spacing" textLength="116.1856" x="1015.9068" y="887.6418">authority receipts</text><text fill="#000000" font-family="Helvetica" font-size="14" lengthAdjust="spacing" textLength="202.7192" x="972.64" y="906.7097">Balaban / constructive / Gribov</text></g><!--entity NS0--><g class="entity" data-qualified-name="Millennium lanes.NS0" data-source-line="34" id="ent0017"><rect fill="#F7F8FA" height="77.2038" rx="2" ry="2" style="stroke:#2B2F36;stroke-width:0.5;" width="168.2174" x="1251.89" y="228.8279"/><text fill="#000000" font-family="Helvetica" font-size="14" lengthAdjust="spacing" textLength="18.3259" x="1326.8357" y="253.7938">NS</text><text fill="#000000" font-family="Helvetica" font-size="14" lengthAdjust="spacing" textLength="148.2174" x="1261.89" y="272.8618">weak solution, energy,</text><text fill="#000000" font-family="Helvetica" font-size="14" lengthAdjust="spacing" textLength="132.4535" x="1269.772" y="291.9297">vorticity, BKM rungs</text></g><!--entity NS1--><g class="entity" data-qualified-name="Millennium lanes.NS1" data-source-line="35" id="ent0018"><rect fill="#F7F8FA" height="58.1358" rx="2" ry="2" style="stroke:#2B2F36;stroke-width:0.5;" width="125.8396" x="1276.08" y="367.0279"/><text fill="#000000" font-family="Helvetica" font-size="14" lengthAdjust="spacing" textLength="18.3259" x="1329.8368" y="391.9938">NS</text><text fill="#000000" font-family="Helvetica" font-size="14" lengthAdjust="spacing" textLength="105.8396" x="1286.08" y="411.0618">regularity tower</text></g><!--entity NS2--><g class="entity" data-qualified-name="Millennium lanes.NS2" data-source-line="36" id="ent0019"><rect fill="#F7F8FA" height="58.1358" rx="2" ry="2" style="stroke:#2B2F36;stroke-width:0.5;" width="160.9795" x="1258.51" y="519.6979"/><text fill="#000000" font-family="Helvetica" font-size="14" lengthAdjust="spacing" textLength="18.3259" x="1329.8368" y="544.6638">NS</text><text fill="#000000" font-family="Helvetica" font-size="14" lengthAdjust="spacing" textLength="140.9795" x="1268.51" y="563.7318">regularity lift attempt</text></g><!--entity NS3--><g class="entity" data-qualified-name="Millennium lanes.NS3" data-source-line="37" id="ent0020"><rect fill="#F7F8FA" height="58.1358" rx="2" ry="2" style="stroke:#2B2F36;stroke-width:0.5;" width="245.7911" x="1177.1" y="695.4179"/><text fill="#000000" font-family="Helvetica" font-size="14" lengthAdjust="spacing" textLength="18.3259" x="1290.8326" y="720.3838">NS</text><text fill="#000000" font-family="Helvetica" font-size="14" lengthAdjust="spacing" textLength="225.7911" x="1187.1" y="739.4518">continuum smoothness obligation</text></g><!--entity NS4--><g class="entity" data-qualified-name="Millennium lanes.NS4" data-source-line="38" id="ent0021"><rect fill="#F7F8FA" height="58.1358" rx="2" ry="2" style="stroke:#2B2F36;stroke-width:0.5;" width="182.4974" x="1227.75" y="853.1379"/><text fill="#000000" font-family="Helvetica" font-size="14" lengthAdjust="spacing" textLength="18.3259" x="1309.8357" y="878.1038">NS</text><text fill="#000000" font-family="Helvetica" font-size="14" lengthAdjust="spacing" textLength="162.4974" x="1237.75" y="897.1718">Clay regularity boundary</text></g><!--entity G4--><g class="entity" data-qualified-name="Gate map.G4" data-source-line="62" id="ent0041"><rect fill="#F7F8FA" height="77.2038" rx="2" ry="2" style="stroke:#2B2F36;stroke-width:0.5;" width="185.8994" x="423.05" y="510.1679"/><text fill="#000000" font-family="Helvetica" font-size="14" lengthAdjust="spacing" textLength="42.6438" x="494.6778" y="535.1338">Gate 4</text><text fill="#000000" font-family="Helvetica" font-size="14" lengthAdjust="spacing" textLength="148.3854" x="441.807" y="554.2018">GR / Wald / Friedmann</text><text fill="#000000" font-family="Helvetica" font-size="14" lengthAdjust="spacing" textLength="165.8994" x="433.05" y="573.2697">no cosmology promotion</text></g><!--entity G5--><g class="entity" data-qualified-name="Gate map.G5" data-source-line="63" id="ent0042"><rect fill="#F7F8FA" height="77.2038" rx="2" ry="2" style="stroke:#2B2F36;stroke-width:0.5;" width="223.6012" x="644.2" y="510.1679"/><text fill="#000000" font-family="Helvetica" font-size="14" lengthAdjust="spacing" textLength="42.6438" x="734.6787" y="535.1338">Gate 5</text><text fill="#000000" font-family="Helvetica" font-size="14" lengthAdjust="spacing" textLength="144.2274" x="683.8869" y="554.2018">P5 prime residual and</text><text fill="#000000" font-family="Helvetica" font-size="14" lengthAdjust="spacing" textLength="203.6012" x="654.2" y="573.2697">Hilbert / Stone / GNS boundary</text></g><!--entity G6--><g class="entity" data-qualified-name="Gate map.G6" data-source-line="64" id="ent0043"><rect fill="#F7F8FA" height="77.2038" rx="2" ry="2" style="stroke:#2B2F36;stroke-width:0.5;" width="149.3315" x="23.33" y="510.1679"/><text fill="#000000" font-family="Helvetica" font-size="14" lengthAdjust="spacing" textLength="42.6438" x="76.6738" y="535.1338">Gate 6</text><text fill="#000000" font-family="Helvetica" font-size="14" lengthAdjust="spacing" textLength="129.3315" x="33.33" y="554.2018">DHR / DR / Tannaka</text><text fill="#000000" font-family="Helvetica" font-size="14" lengthAdjust="spacing" textLength="104.8316" x="45.5799" y="573.2697">conditional only</text></g><!--entity G7--><g class="entity" data-qualified-name="Gate map.G7" data-source-line="65" id="ent0044"><rect fill="#F7F8FA" height="77.2038" rx="2" ry="2" style="stroke:#2B2F36;stroke-width:0.5;" width="180.5654" x="207.72" y="510.1679"/><text fill="#000000" font-family="Helvetica" font-size="14" lengthAdjust="spacing" textLength="42.6438" x="276.6808" y="535.1338">Gate 7</text><text fill="#000000" font-family="Helvetica" font-size="14" lengthAdjust="spacing" textLength="160.5654" x="217.72" y="554.2018">Yukawa / CKM / Cabibbo</text><text fill="#000000" font-family="Helvetica" font-size="14" lengthAdjust="spacing" textLength="121.6736" x="237.1659" y="573.2697">carrier diagnostics</text></g><!--entity G8--><g class="entity" data-qualified-name="Gate map.G8" data-source-line="66" id="ent0045"><rect fill="#F7F8FA" height="77.2038" rx="2" ry="2" style="stroke:#2B2F36;stroke-width:0.5;" width="170.1634" x="596.92" y="685.8879"/><text fill="#000000" font-family="Helvetica" font-size="14" lengthAdjust="spacing" textLength="42.6438" x="660.6798" y="710.8538">Gate 8</text><text fill="#000000" font-family="Helvetica" font-size="14" lengthAdjust="spacing" textLength="137.3815" x="613.311" y="729.9218">composition receipts</text><text fill="#000000" font-family="Helvetica" font-size="14" lengthAdjust="spacing" textLength="150.1634" x="606.92" y="748.9897">no terminal promotion</text></g><!--entity T0--><g class="entity" data-qualified-name="T0" data-source-line="16" id="ent0002"><rect fill="#F7F8FA" height="58.1358" rx="2" ry="2" style="stroke:#2B2F36;stroke-width:0.5;" width="137.9495" x="1267.03" y="85.6879"/><text fill="#000000" font-family="Helvetica" font-size="14" lengthAdjust="spacing" textLength="15.7919" x="1328.1088" y="110.6538">T0</text><text fill="#000000" font-family="Helvetica" font-size="14" lengthAdjust="spacing" textLength="117.9495" x="1277.03" y="129.7218">finite local control</text></g><!--entity T1--><g class="entity" data-qualified-name="T1" data-source-line="17" id="ent0003"><rect fill="#F7F8FA" height="58.1358" rx="2" ry="2" style="stroke:#2B2F36;stroke-width:0.5;" width="159.7755" x="1455.11" y="238.3579"/><text fill="#000000" font-family="Helvetica" font-size="14" lengthAdjust="spacing" textLength="15.7919" x="1527.1018" y="263.3238">T1</text><text fill="#000000" font-family="Helvetica" font-size="14" lengthAdjust="spacing" textLength="139.7755" x="1465.11" y="282.3918">depth-indexed family</text></g><!--entity T2--><g class="entity" data-qualified-name="T2" data-source-line="18" id="ent0004"><rect fill="#F7F8FA" height="58.1358" rx="2" ry="2" style="stroke:#2B2F36;stroke-width:0.5;" width="93.3457" x="1471.33" y="367.0279"/><text fill="#000000" font-family="Helvetica" font-size="14" lengthAdjust="spacing" textLength="15.7919" x="1510.1069" y="391.9938">T2</text><text fill="#000000" font-family="Helvetica" font-size="14" lengthAdjust="spacing" textLength="73.3457" x="1481.33" y="411.0618">lift attempt</text></g><!--entity T3--><g class="entity" data-qualified-name="T3" data-source-line="19" id="ent0005"><rect fill="#F7F8FA" height="58.1358" rx="2" ry="2" style="stroke:#2B2F36;stroke-width:0.5;" width="161.7495" x="1455.13" y="519.6979"/><text fill="#000000" font-family="Helvetica" font-size="14" lengthAdjust="spacing" textLength="15.7919" x="1528.1088" y="544.6638">T3</text><text fill="#000000" font-family="Helvetica" font-size="14" lengthAdjust="spacing" textLength="141.7495" x="1465.13" y="563.7318">continuum obligation</text></g><!--entity T4--><g class="entity" data-qualified-name="T4" data-source-line="20" id="ent0006"><rect fill="#F7F8FA" height="58.1358" rx="2" ry="2" style="stroke:#2B2F36;stroke-width:0.5;" width="147.6795" x="1777.16" y="695.4179"/><text fill="#000000" font-family="Helvetica" font-size="14" lengthAdjust="spacing" textLength="15.7919" x="1843.1038" y="720.3838">T4</text><text fill="#000000" font-family="Helvetica" font-size="14" lengthAdjust="spacing" textLength="127.6795" x="1787.16" y="739.4518">authority boundary</text></g><g class="entity" data-qualified-name="GMN52" data-source-line="77" id="ent0053"><path d="M1457.63,666.3679 L1457.63,782.604 L1742.3612,782.604 L1742.3612,676.3679 L1732.3612,666.3679 L1457.63,666.3679" fill="#FEFFDD" style="stroke:#181818;stroke-width:0.5;"/><path d="M1732.3612,666.3679 L1732.3612,676.3679 L1742.3612,676.3679 L1732.3612,666.3679" fill="#FEFFDD" style="stroke:#181818;stroke-width:1;"/><text fill="#000000" font-family="Helvetica" font-size="13" lengthAdjust="spacing" textLength="201.8512" x="1494.57" y="685.2649">CrossGateCompositionTheorems</text><text fill="#000000" font-family="Helvetica" font-size="13" lengthAdjust="spacing" textLength="263.7312" x="1463.63" y="702.9709">CrossGateHamiltonianCompatibilityReceipt</text><text fill="#000000" font-family="Helvetica" font-size="13" lengthAdjust="spacing" textLength="200.0312" x="1495.48" y="720.677">MillenniumTowerSchemaReceipt</text><text fill="#000000" font-family="Helvetica" font-size="13" lengthAdjust="spacing" textLength="3.38" x="1593.8056" y="738.383">&#160;</text><text fill="#000000" font-family="Helvetica" font-size="13" lengthAdjust="spacing" textLength="159.5231" x="1515.734" y="756.089">terminalPromotion = false</text><text fill="#000000" font-family="Helvetica" font-size="13" lengthAdjust="spacing" textLength="128.2841" x="1531.3535" y="773.795">fullUnification = false</text></g><!--link T0 to T1--><g class="link" data-entity-1="ent0002" data-entity-2="ent0003" data-link-type="dependency" data-source-line="22" id="lnk7"><path d="M1382.83,144.2979 C1400.78,155.7479 1421.21,169.3879 1439,182.8279 C1461.93,200.1379 1481.8767,217.3959 1500.3467,234.1559" fill="none" id="T0-to-T1" style="stroke:#43515F;stroke-width:1;"/><polygon fill="#43515F" points="1504.79,238.1879,1500.813,229.1777,1501.0872,234.8279,1495.437,235.1022,1504.79,238.1879" style="stroke:#43515F;stroke-width:1;"/></g><!--link T1 to T2--><g class="link" data-entity-1="ent0003" data-entity-2="ent0004" data-link-type="dependency" data-source-line="23" id="lnk8"><path d="M1531.18,296.8579 C1528.39,317.7179 1525.399,339.9813 1522.599,360.8213" fill="none" id="T1-to-T2" style="stroke:#43515F;stroke-width:1;"/><polygon fill="#43515F" points="1521.8,366.7679,1526.9628,358.3807,1522.4658,361.8124,1519.0341,357.3154,1521.8,366.7679" style="stroke:#43515F;stroke-width:1;"/></g><!--link T2 to T3--><g class="link" data-entity-1="ent0004" data-entity-2="ent0005" data-link-type="dependency" data-source-line="24" id="lnk9"><path d="M1521.39,425.4379 C1524.59,452.2879 1528.6788,486.4502 1531.8888,513.3402" fill="none" id="T2-to-T3" style="stroke:#43515F;stroke-width:1;"/><polygon fill="#43515F" points="1532.6,519.2979,1535.505,509.8872,1532.0073,514.3332,1527.5614,510.8355,1532.6,519.2979" style="stroke:#43515F;stroke-width:1;"/></g><!--link T3 to T4--><g class="link" data-entity-1="ent0005" data-entity-2="ent0006" data-link-type="dependency" data-source-line="25" id="lnk10"><path d="M1593.77,578.2279 C1639.41,601.0979 1704.46,634.5479 1760,666.3679 C1775.7,675.3579 1787.501,682.5277 1802.391,691.9577" fill="none" id="T3-to-T4" style="stroke:#43515F;stroke-width:1;"/><polygon fill="#43515F" points="1807.46,695.1679,1801.9967,686.9732,1803.2359,692.4927,1797.7164,693.7319,1807.46,695.1679" style="stroke:#43515F;stroke-width:1;"/></g><!--link YM0 to YM1--><g class="link" data-entity-1="ent0012" data-entity-2="ent0013" data-link-type="dependency" data-source-line="41" id="lnk22"><path d="M1117.28,296.8579 C1121.9,317.7179 1126.8341,340.0695 1131.4441,360.9095" fill="none" id="YM0-to-YM1" style="stroke:#43515F;stroke-width:1;"/><polygon fill="#43515F" points="1132.74,366.7679,1134.7017,357.1164,1131.6601,361.8859,1126.8905,358.8443,1132.74,366.7679" style="stroke:#43515F;stroke-width:1;"/></g><!--link YM1 to YM2--><g class="link" data-entity-1="ent0013" data-entity-2="ent0014" data-link-type="dependency" data-source-line="42" id="lnk23"><path d="M1139,425.4379 C1139,452.2879 1139,486.4079 1139,513.2979" fill="none" id="YM1-to-YM2" style="stroke:#43515F;stroke-width:1;"/><polygon fill="#43515F" points="1139,519.2979,1143,510.2979,1139,514.2979,1135,510.2979,1139,519.2979" style="stroke:#43515F;stroke-width:1;"/></g><!--link YM2 to YM3--><g class="link" data-entity-1="ent0014" data-entity-2="ent0015" data-link-type="dependency" data-source-line="43" id="lnk24"><path d="M1215.06,578.2979 C1243.1,593.3079 1264.46,613.3679 1248,636.3679 C1223.95,669.9679 1198.03,650.2079 1160,666.3679 C1140.15,674.8079 1124.2832,682.5205 1105.7932,692.2205" fill="none" id="YM2-to-YM3" style="stroke:#43515F;stroke-width:1;"/><polygon fill="#43515F" points="1100.48,695.0079,1110.3081,694.369,1104.9077,692.6851,1106.5916,687.2847,1100.48,695.0079" style="stroke:#43515F;stroke-width:1;"/></g><!--link YM3 to YM4--><g class="link" data-entity-1="ent0015" data-entity-2="ent0016" data-link-type="dependency" data-source-line="44" id="lnk25"><path d="M1053.59,754.0479 C1057.6,779.0679 1062.5179,809.7139 1066.9379,837.2139" fill="none" id="YM3-to-YM4" style="stroke:#43515F;stroke-width:1;"/><polygon fill="#43515F" points="1067.89,843.1379,1070.4111,833.6172,1067.0965,838.2013,1062.5125,834.8867,1067.89,843.1379" style="stroke:#43515F;stroke-width:1;"/></g><!--link NS0 to NS1--><g class="link" data-entity-1="ent0017" data-entity-2="ent0018" data-link-type="dependency" data-source-line="45" id="lnk26"><path d="M1336.9,306.4279 C1337.36,325.8179 1337.7685,342.9896 1338.1885,360.7896" fill="none" id="NS0-to-NS1" style="stroke:#43515F;stroke-width:1;"/><polygon fill="#43515F" points="1338.33,366.7879,1342.1166,357.6961,1338.2121,361.7893,1334.1188,357.8848,1338.33,366.7879" style="stroke:#43515F;stroke-width:1;"/></g><!--link NS1 to NS2--><g class="link" data-entity-1="ent0018" data-entity-2="ent0019" data-link-type="dependency" data-source-line="46" id="lnk27"><path d="M1339,425.4379 C1339,452.2879 1339,486.4079 1339,513.2979" fill="none" id="NS1-to-NS2" style="stroke:#43515F;stroke-width:1;"/><polygon fill="#43515F" points="1339,519.2979,1343,510.2979,1339,514.2979,1335,510.2979,1339,519.2979" style="stroke:#43515F;stroke-width:1;"/></g><!--link NS2 to NS3--><g class="link" data-entity-1="ent0019" data-entity-2="ent0020" data-link-type="dependency" data-source-line="47" id="lnk28"><path d="M1332.65,578.0679 C1325.39,610.3679 1314.9141,657.0436 1307.6641,689.3436" fill="none" id="NS2-to-NS3" style="stroke:#43515F;stroke-width:1;"/><polygon fill="#43515F" points="1306.35,695.1979,1312.224,687.2924,1307.445,690.3193,1304.4182,685.5404,1306.35,695.1979" style="stroke:#43515F;stroke-width:1;"/></g><!--link NS3 to NS4--><g class="link" data-entity-1="ent0020" data-entity-2="ent0021" data-link-type="dependency" data-source-line="48" id="lnk29"><path d="M1303.48,754.0479 C1306.91,782.1479 1311.3936,818.832 1314.8136,846.872" fill="none" id="NS3-to-NS4" style="stroke:#43515F;stroke-width:1;"/><polygon fill="#43515F" points="1315.54,852.8279,1318.4209,843.4098,1314.9346,847.8647,1310.4798,844.3784,1315.54,852.8279" style="stroke:#43515F;stroke-width:1;"/></g><!--link T0 to YM0--><g class="link" data-entity-1="ent0002" data-entity-2="ent0012" data-link-type="dependency" data-source-line="50" id="lnk30"><path d="M1292.72,143.9979 C1274.55,155.9179 1253.2,169.9879 1234,182.8279 C1206.74,201.0479 1181.2158,218.3856 1157.4058,234.6356" fill="none" id="T0-to-YM0" style="stroke:#43515F;stroke-width:1;stroke-dasharray:7,7;"/><polygon fill="#43515F" points="1152.45,238.0179,1162.1386,236.2484,1156.5799,235.1993,1157.6289,229.6406,1152.45,238.0179" style="stroke:#43515F;stroke-width:1;"/></g><!--link T1 to YM1--><g class="link" data-entity-1="ent0003" data-entity-2="ent0013" data-link-type="dependency" data-source-line="51" id="lnk31"><path d="M1464.21,296.9279 C1455.76,300.1079 1447.21,303.2079 1439,306.0279 C1369.89,329.7779 1296.3647,351.5293 1236.6547,368.3693" fill="none" id="T1-to-YM1" style="stroke:#43515F;stroke-width:1;stroke-dasharray:7,7;"/><polygon fill="#43515F" points="1230.88,369.9979,1240.6279,371.4048,1235.6923,368.6407,1238.4563,363.7051,1230.88,369.9979" style="stroke:#43515F;stroke-width:1;"/></g><!--link T2 to YM2--><g class="link" data-entity-1="ent0004" data-entity-2="ent0014" data-link-type="dependency" data-source-line="52" id="lnk32"><path d="M1471.16,415.0179 C1460.67,418.6679 1449.53,422.2779 1439,425.1679 C1352.51,448.9079 1322.13,425.9179 1241,464.1679 C1212.42,477.6379 1189.3228,496.7066 1170.1328,515.2666" fill="none" id="T2-to-YM2" style="stroke:#43515F;stroke-width:1;stroke-dasharray:7,7;"/><polygon fill="#43515F" points="1165.82,519.4379,1175.0701,516.0563,1169.414,515.9619,1169.5084,510.3058,1165.82,519.4379" style="stroke:#43515F;stroke-width:1;"/></g><!--link T3 to YM3--><g class="link" data-entity-1="ent0005" data-entity-2="ent0015" data-link-type="dependency" data-source-line="53" id="lnk33"><path d="M1464.76,578.2579 C1456.13,581.4479 1447.39,584.5579 1439,587.3679 C1408.45,597.5879 1189.97,654.5479 1160,666.3679 C1139.54,674.4379 1123.1528,682.2807 1104.4328,692.1907" fill="none" id="T3-to-YM3" style="stroke:#43515F;stroke-width:1;stroke-dasharray:7,7;"/><polygon fill="#43515F" points="1099.13,694.9979,1108.9557,694.3223,1103.549,692.6586,1105.2127,687.2519,1099.13,694.9979" style="stroke:#43515F;stroke-width:1;"/></g><!--link T4 to YM4--><g class="link" data-entity-1="ent0006" data-entity-2="ent0016" data-link-type="dependency" data-source-line="54" id="lnk34"><path d="M1817.78,753.8179 C1801.43,766.1679 1780.8,779.5279 1760,787.0879 C1529.06,871.0579 1451.49,798.1479 1210,843.6079 C1202.06,845.0979 1199.7475,845.494 1191.5675,847.374" fill="none" id="T4-to-YM4" style="stroke:#43515F;stroke-width:1;stroke-dasharray:7,7;"/><polygon fill="#43515F" points="1185.72,848.7179,1195.3873,850.6004,1190.593,847.598,1193.5954,842.8036,1185.72,848.7179" style="stroke:#43515F;stroke-width:1;"/></g><!--link T0 to NS0--><g class="link" data-entity-1="ent0002" data-entity-2="ent0017" data-link-type="dependency" data-source-line="55" id="lnk35"><path d="M1336,144.0979 C1336,167.9679 1336,196.3179 1336,222.5379" fill="none" id="T0-to-NS0" style="stroke:#43515F;stroke-width:1;stroke-dasharray:7,7;"/><polygon fill="#43515F" points="1336,228.5379,1340,219.5379,1336,223.5379,1332,219.5379,1336,228.5379" style="stroke:#43515F;stroke-width:1;"/></g><!--link T1 to NS1--><g class="link" data-entity-1="ent0003" data-entity-2="ent0018" data-link-type="dependency" data-source-line="56" id="lnk36"><path d="M1491.01,296.8579 C1458.85,317.6379 1420.429,342.4708 1388.219,363.2908" fill="none" id="T1-to-NS1" style="stroke:#43515F;stroke-width:1;stroke-dasharray:7,7;"/><polygon fill="#43515F" points="1383.18,366.5479,1392.9099,365.0216,1387.3791,363.8336,1388.5671,358.3029,1383.18,366.5479" style="stroke:#43515F;stroke-width:1;"/></g><!--link T2 to NS2--><g class="link" data-entity-1="ent0004" data-entity-2="ent0019" data-link-type="dependency" data-source-line="57" id="lnk37"><path d="M1484.11,425.4579 C1469.86,437.3979 1453.12,451.4479 1438,464.1679 C1416.14,482.5579 1396.1816,499.4038 1377.0116,515.6138" fill="none" id="T2-to-NS2" style="stroke:#43515F;stroke-width:1;stroke-dasharray:7,7;"/><polygon fill="#43515F" points="1372.43,519.4879,1381.8851,516.7311,1376.248,516.2594,1376.7196,510.6223,1372.43,519.4879" style="stroke:#43515F;stroke-width:1;"/></g><!--link T3 to NS3--><g class="link" data-entity-1="ent0005" data-entity-2="ent0020" data-link-type="dependency" data-source-line="58" id="lnk38"><path d="M1497.29,578.2579 C1453.49,610.5079 1387.372,659.1709 1343.562,691.4209" fill="none" id="T3-to-NS3" style="stroke:#43515F;stroke-width:1;stroke-dasharray:7,7;"/><polygon fill="#43515F" points="1338.73,694.9779,1348.3493,692.8638,1342.7566,692.0138,1343.6066,686.4211,1338.73,694.9779" style="stroke:#43515F;stroke-width:1;"/></g><!--link T4 to NS4--><g class="link" data-entity-1="ent0006" data-entity-2="ent0021" data-link-type="dependency" data-source-line="59" id="lnk39"><path d="M1816.1,753.7679 C1799.89,765.6479 1779.83,778.6379 1760,787.0879 C1644.94,836.0979 1507.7031,859.8395 1416.3031,871.3295" fill="none" id="T4-to-NS4" style="stroke:#43515F;stroke-width:1;stroke-dasharray:7,7;"/><polygon fill="#43515F" points="1410.35,872.0779,1419.7786,874.9241,1415.311,871.4543,1418.7808,866.9866,1410.35,872.0779" style="stroke:#43515F;stroke-width:1;"/></g><!--link G4 to G8--><g class="link" data-entity-1="ent0041" data-entity-2="ent0045" data-link-type="dependency" data-source-line="69" id="lnk46"><path d="M514.57,587.8179 C515.68,603.9979 519.37,622.3279 529,636.3679 C545.51,660.4379 565.68,675.8843 591.15,689.2843" fill="none" id="G4-to-G8" style="stroke:#43515F;stroke-width:1;"/><polygon fill="#43515F" points="596.46,692.0779,590.3575,684.3475,592.035,689.7499,586.6326,691.4274,596.46,692.0779" style="stroke:#43515F;stroke-width:1;"/><text fill="#000000" font-family="Helvetica" font-size="13" lengthAdjust="spacing" textLength="135.3952" x="530" y="632.2649">GR compatibility input</text></g><!--link G5 to G8--><g class="link" data-entity-1="ent0042" data-entity-2="ent0045" data-link-type="dependency" data-source-line="70" id="lnk47"><path d="M700.48,587.7679 C691.76,596.4179 683.99,606.3479 679,617.3679 C669.42,638.5279 669.1372,658.6203 672.1872,679.6103" fill="none" id="G5-to-G8" style="stroke:#43515F;stroke-width:1;"/><polygon fill="#43515F" points="673.05,685.5479,675.7143,676.0663,672.331,680.5999,667.7974,677.2166,673.05,685.5479" style="stroke:#43515F;stroke-width:1;"/><text fill="#000000" font-family="Helvetica" font-size="13" lengthAdjust="spacing" textLength="216.3852" x="680" y="632.2649">physical Hilbert / Hamiltonian input</text></g><!--link G6 to G8--><g class="link" data-entity-1="ent0043" data-entity-2="ent0045" data-link-type="dependency" data-source-line="71" id="lnk48"><path d="M100.81,587.5479 C104.09,604.8779 110.93,624.2279 125,636.3679 C194.15,696.0279 452.5055,714.752 590.6955,720.652" fill="none" id="G6-to-G8" style="stroke:#43515F;stroke-width:1;"/><polygon fill="#43515F" points="596.69,720.9079,587.8688,716.5276,591.6946,720.6946,587.5276,724.5204,596.69,720.9079" style="stroke:#43515F;stroke-width:1;"/><text fill="#000000" font-family="Helvetica" font-size="13" lengthAdjust="spacing" textLength="180.7132" x="126" y="632.2649">sector and fibre-functor input</text></g><!--link G7 to G8--><g class="link" data-entity-1="ent0044" data-entity-2="ent0045" data-link-type="dependency" data-source-line="72" id="lnk49"><path d="M302.76,587.5379 C306.8,604.6579 314.24,623.8279 328,636.3679 C366.93,671.8679 499.0383,697.1455 590.7983,711.1055" fill="none" id="G7-to-G8" style="stroke:#43515F;stroke-width:1;"/><polygon fill="#43515F" points="596.73,712.0079,588.434,706.6998,591.7869,711.2559,587.2308,714.6088,596.73,712.0079" style="stroke:#43515F;stroke-width:1;"/><text fill="#000000" font-family="Helvetica" font-size="13" lengthAdjust="spacing" textLength="183.1052" x="329" y="632.2649">matter / CKM diagnostic input</text></g><!--link YM2 to G8--><g class="link" data-entity-1="ent0014" data-entity-2="ent0045" data-link-type="dependency" data-source-line="73" id="lnk50"><path d="M1053.83,574.8779 C1017.34,586.4979 974.57,601.2979 937,617.3679 C920.37,624.4879 917.43,628.7879 901,636.3679 C857.62,656.3779 813.8605,674.0951 772.9905,689.8051" fill="none" id="YM2-to-G8" style="stroke:#43515F;stroke-width:1;"/><polygon fill="#43515F" points="767.39,691.9579,777.2259,692.4624,772.0571,690.1639,774.3556,684.9951,767.39,691.9579" style="stroke:#43515F;stroke-width:1;"/><text fill="#000000" font-family="Helvetica" font-size="13" lengthAdjust="spacing" textLength="147.4591" x="938" y="632.2649">YM Hamiltonian frontier</text></g><!--link NS2 to G8--><g class="link" data-entity-1="ent0019" data-entity-2="ent0045" data-link-type="dependency" data-source-line="74" id="lnk51"><path d="M1265.84,578.3179 C1257.49,581.4379 1249.07,584.5079 1241,587.3679 C1174.48,610.8979 1158.26,618.5279 1090,636.3679 C1024.22,653.5579 1006.53,652.3479 940,666.3679 C882.32,678.5179 823.3944,691.5541 773.1744,702.8241" fill="none" id="NS2-to-G8" style="stroke:#43515F;stroke-width:1;"/><polygon fill="#43515F" points="767.32,704.1379,776.9775,706.0701,772.1987,703.0431,775.2257,698.2643,767.32,704.1379" style="stroke:#43515F;stroke-width:1;"/><text fill="#000000" font-family="Helvetica" font-size="13" lengthAdjust="spacing" textLength="116.5841" x="1154.49" y="632.2649">tower analogy only</text></g><!--link G8 to GMN52--><g class="link" data-entity-1="ent0045" data-entity-2="ent0053" data-link-type="association" data-source-line="77" id="lnk54"><path d="M767.44,685.6979 C820.84,663.6179 891.74,638.1779 957.5,626.8679 C1160.74,591.9279 1221.7,575.8079 1421.5,626.8679 C1453.33,634.9979 1485.59,650.1079 1513.76,666.0479" fill="none" id="G8-GMN52" style="stroke:#43515F;stroke-width:1;stroke-dasharray:7,7;"/></g><g class="legend" data-source-line="85"><rect fill="none" height="67.2038" rx="7.5" ry="7.5" style="stroke:#000000;stroke-width:1;" width="407.1505" x="1497.689" y="953.8079"/><text fill="#000000" font-family="Helvetica" font-size="14" lengthAdjust="spacing" textLength="317.5888" x="1542.4698" y="973.7738">Solid arrows: staged dependency or tower order</text><text fill="#000000" font-family="Helvetica" font-size="14" lengthAdjust="spacing" textLength="239.3291" x="1581.5997" y="992.8418">Dotted arrows: schema instantiation</text><text fill="#000000" font-family="Helvetica" font-size="14" lengthAdjust="spacing" textLength="397.1505" x="1502.689" y="1011.9097">All lanes are fail-closed at continuum or authority promotion</text></g><?plantuml-src VLPjR-8u4FwUNs7rlfPTIA159-rABTLIwGIg6audf7oP42VuwjYHxPH5f_tlD-CO24srIC0GF_FYny-CSS99pbwWuORDcTC7_BQxFQ-1WIfO1Owp6ff6g2gAx9jG3HYeMGwxjyheLXKBBRLXVvJ-rKFiqVrWX7DSiHAavRqrkuT27p3aOAN1k53nr1snAiDt3bGb-u22bz1AzqChjuQQisSktxaJEnXYDlodUv2YKZLNZktmWviUwXoT_HSnzgXDmKtOJ9p7PN97JmVRl2_d9U3AQ_VGAEHh6ltgnNqmHXy2V9hC9hCoYYwvRZRZJ9L22UHLwXr8jiEj62rl65Ys6Lz19vagUEFs8u7VFtc1TDL27Zlev0eQPqgAqZ50mkl6TP3u2f9aYd89rROrqpao0qverK6JA-WqKz2wlSRpExASjWecf9r6qMRCHgFlLC5cqbbnj8axAuasIMSXC9mckra9ARbI0XDBKDpUUCvx6RUhCoiLD45wRUKrm4NZh4--NOs7RetH8vt_Ym_PL-RfwjEqNKs6Bi-qxhGIe91-AMhX6B4NFEAXnqB24Vl0sX6Lzu6yxIePUbpuEsqXKuyW8SUSN-dGhJFjpebtZZ-NHkJwFGH3ugwYhTDC7JYyCQjbIqbl6KVPLSVRJBrhW-B7BBViyQyLCwsgEghMwNWOnV2gbU2ByfqUa9FV8WUoMgVnqE6YB5jhxVPuoFOZJ-iq6JfwPdlfhjIsJgct8ZnthoawJ7m7EqOx3dQ2TXBiQOIRzpPj3T_1Zj6EWvsWdGIxK_INBz-zlb3IdJaXJNTcJABkJDJtD9ZJanjn7TmeOt2ZXC6DyWKtd-xS5yimNWVzu1Um2vUlg8v_G1RuzSC8NjIWLAQKHWKXqL9NHuODKEipoSlf9v5ccNgP8L3Kr55M52qE7cmoR0KXSsweTL9i2A_5TNfz2ClP9n7lClNqJCKzqSS6gu8ty38e1DM2yRKAFRYy-oJ0VQQsxHiS0DqNA5tyX5pakSOWO72hXXK2AgKj2hpJzFB-apXpIbetslgqlMP3Zd3Wru9A-K3Hd4IrdFhpNyxPdmnffY0erLn8KY4EyzP5oza5qkoFLj2ylZ3M7oF1uUxYOB5Gl0Deb9KYDtnKjie_2T3x2xIczZA1YCkk0_AaSW_ThgxIbeRw3k-raxGzgBl60NTE-g1pY2AbaImZghrZkYGA65iORIsHkBWGkDbpRNXj-ykzX8i-IwyTrmYzpFSDfKxz7uZJCgwV3kBbT0xiMxZw6IjRAVzMeaHohrOu4aT5Hv7a5VtmnQD3YXExO43Nh4MQ7NPIGOCVCLpjSByc4E2lT7HuqaXlpwFxUoDm0WEIvxCYwa7Axd928CSQX1pjfBRaw5ZluaHYpwFzh2kgjYip-Xy0?></g></svg>