<?plantuml 1.2026.2?><svg xmlns="http://www.w3.org/2000/svg" xmlns:xlink="http://www.w3.org/1999/xlink" contentStyleType="text/css" data-diagram-type="DESCRIPTION" height="1112px" preserveAspectRatio="none" style="width:1519px;height:1112px;background:#0F172A;" version="1.1" viewBox="0 0 1519 1112" width="1519px" zoomAndPan="magnify"><defs/><g><rect fill="#0F172A" height="1112" style="stroke:none;stroke-width:1;" width="1519" x="0" y="0"/><!--cluster LILA execution side--><g class="cluster" data-qualified-name="LILA execution side" data-source-line="24" id="ent0002"><rect fill="#111827" height="131" rx="9" ry="9" style="stroke:#334155;stroke-width:1;" width="1085.11" x="36.44" y="299.42"/><text fill="#E2E8F0" font-family="Arial" font-size="14" font-weight="bold" lengthAdjust="spacing" textLength="135.7295" x="511.1303" y="316.3859">LILA execution side</text></g><!--cluster DASHI admissibility side--><g class="cluster" data-qualified-name="DASHI admissibility side" data-source-line="30" id="ent0006"><rect fill="#111827" height="272" rx="9" ry="9" style="stroke:#334155;stroke-width:1;" width="851.15" x="315.88" y="487.42"/><text fill="#E2E8F0" font-family="Arial" font-size="14" font-weight="bold" lengthAdjust="spacing" textLength="168.2794" x="657.3153" y="504.3859">DASHI admissibility side</text></g><!--cluster Bridge layer--><g class="cluster" data-qualified-name="Bridge layer" data-source-line="37" id="ent0011"><rect fill="#111827" height="245" rx="9" ry="9" style="stroke:#334155;stroke-width:1;" width="663.31" x="850.66" y="783.42"/><text fill="#E2E8F0" font-family="Arial" font-size="14" font-weight="bold" lengthAdjust="spacing" textLength="84.6157" x="1140.0072" y="800.3859">Bridge layer</text></g><!--cluster Runtime trace diagnostics--><g class="cluster" data-qualified-name="Runtime trace diagnostics" data-source-line="43" id="ent0015"><rect fill="#111827" height="173" rx="9" ry="9" style="stroke:#334155;stroke-width:1;" width="571.8" x="7" y="102.42"/><text fill="#E2E8F0" font-family="Arial" font-size="14" font-weight="bold" lengthAdjust="spacing" textLength="182.8953" x="201.4524" y="119.3859">Runtime trace diagnostics</text></g><!--entity StateT--><g class="entity" data-qualified-name="LILA execution side.StateT" data-source-line="25" id="ent0003"><rect fill="#111827" height="39.0679" rx="9" ry="9" style="stroke:#334155;stroke-width:0.5;" width="75.8598" x="52.44" y="374.88"/><text fill="#E2E8F0" font-family="Arial" font-size="14" lengthAdjust="spacing" textLength="55.8598" x="62.44" y="399.8459">State x_t</text></g><!--entity StateNext--><g class="entity" data-qualified-name="LILA execution side.StateNext" data-source-line="26" id="ent0004"><rect fill="#111827" height="39.0679" rx="9" ry="9" style="stroke:#334155;stroke-width:0.5;" width="100.2757" x="402.4" y="337.88"/><text fill="#E2E8F0" font-family="Arial" font-size="14" lengthAdjust="spacing" textLength="80.2757" x="412.4" y="362.8459">State x_(t+1)</text></g><!--entity DeltaT--><g class="entity" data-qualified-name="LILA execution side.DeltaT" data-source-line="27" id="ent0005"><rect fill="#111827" height="39.0679" rx="9" ry="9" style="stroke:#334155;stroke-width:0.5;" width="199.7453" x="905.8" y="337.88"/><text fill="#E2E8F0" font-family="Arial" font-size="14" lengthAdjust="spacing" textLength="179.7453" x="915.8" y="362.8459">Delta_t := pi(x_(t+1)) - pi(x_t)</text></g><!--entity Contract--><g class="entity" data-qualified-name="DASHI admissibility side.Contract" data-source-line="31" id="ent0007"><rect fill="#111827" height="49.0679" rx="9" ry="9" style="stroke:#334155;stroke-width:0.5;" width="173.1675" x="365.95" y="525.88"/><rect fill="#111827" height="10" style="stroke:#334155;stroke-width:0.5;" width="15" x="519.1175" y="530.88"/><rect fill="#111827" height="2" style="stroke:#334155;stroke-width:0.5;" width="4" x="517.1175" y="532.88"/><rect fill="#111827" height="2" style="stroke:#334155;stroke-width:0.5;" width="4" x="517.1175" y="536.88"/><text fill="#E2E8F0" font-family="Arial" font-size="14" lengthAdjust="spacing" textLength="133.1675" x="380.95" y="560.8459">ExecutionContract C</text></g><!--entity PhaseSplit--><g class="entity" data-qualified-name="DASHI admissibility side.PhaseSplit" data-source-line="32" id="ent0008"><rect fill="#111827" height="49.0679" rx="9" ry="9" style="stroke:#334155;stroke-width:0.5;" width="241.3192" x="331.88" y="609.88"/><rect fill="#111827" height="10" style="stroke:#334155;stroke-width:0.5;" width="15" x="553.1992" y="614.88"/><rect fill="#111827" height="2" style="stroke:#334155;stroke-width:0.5;" width="4" x="551.1992" y="616.88"/><rect fill="#111827" height="2" style="stroke:#334155;stroke-width:0.5;" width="4" x="551.1992" y="620.88"/><text fill="#E2E8F0" font-family="Arial" font-size="14" lengthAdjust="spacing" textLength="201.3192" x="346.88" y="644.8459">ExecutionContractPhaseSplit C</text></g><!--entity Receipt--><g class="entity" data-qualified-name="DASHI admissibility side.Receipt" data-source-line="33" id="ent0009"><rect fill="#111827" height="49.0679" rx="9" ry="9" style="stroke:#334155;stroke-width:0.5;" width="290.711" x="860.32" y="525.88"/><rect fill="#111827" height="10" style="stroke:#334155;stroke-width:0.5;" width="15" x="1131.031" y="530.88"/><rect fill="#111827" height="2" style="stroke:#334155;stroke-width:0.5;" width="4" x="1129.031" y="532.88"/><rect fill="#111827" height="2" style="stroke:#334155;stroke-width:0.5;" width="4" x="1129.031" y="536.88"/><text fill="#E2E8F0" font-family="Arial" font-size="14" lengthAdjust="spacing" textLength="250.711" x="875.32" y="560.8459">ExecutionContractReceipt C x_t x_(t+1)</text></g><!--entity Admissible--><g class="entity" data-qualified-name="DASHI admissibility side.Admissible" data-source-line="34" id="ent0010"><rect fill="#111827" height="49.0679" rx="9" ry="9" style="stroke:#334155;stroke-width:0.5;" width="222.1813" x="341.45" y="693.88"/><rect fill="#111827" height="10" style="stroke:#334155;stroke-width:0.5;" width="15" x="543.6313" y="698.88"/><rect fill="#111827" height="2" style="stroke:#334155;stroke-width:0.5;" width="4" x="541.6313" y="700.88"/><rect fill="#111827" height="2" style="stroke:#334155;stroke-width:0.5;" width="4" x="541.6313" y="704.88"/><text fill="#E2E8F0" font-family="Arial" font-size="14" lengthAdjust="spacing" textLength="182.1813" x="356.45" y="728.8459">AdmissibleStep C x_t x_(t+1)</text></g><!--entity Bridge--><g class="entity" data-qualified-name="Bridge layer.Bridge" data-source-line="38" id="ent0012"><rect fill="#111827" height="87.2038" rx="9" ry="9" style="stroke:#334155;stroke-width:0.5;" width="266.3651" x="872.49" y="821.81"/><rect fill="#111827" height="10" style="stroke:#334155;stroke-width:0.5;" width="15" x="1118.8551" y="826.81"/><rect fill="#111827" height="2" style="stroke:#334155;stroke-width:0.5;" width="4" x="1116.8551" y="828.81"/><rect fill="#111827" height="2" style="stroke:#334155;stroke-width:0.5;" width="4" x="1116.8551" y="832.81"/><text fill="#E2E8F0" font-family="Arial" font-size="14" lengthAdjust="spacing" textLength="103.0676" x="887.49" y="856.7759">LilaDashiBridge</text><text fill="#E2E8F0" font-family="Arial" font-size="14" lengthAdjust="spacing" textLength="88.4936" x="887.49" y="875.8439">execution = C</text><text fill="#E2E8F0" font-family="Arial" font-size="14" lengthAdjust="spacing" textLength="226.3651" x="887.49" y="894.9118">phaseSplit = canonicalPhaseSplit C</text></g><!--entity TraceRow--><g class="entity" data-qualified-name="Bridge layer.TraceRow" data-source-line="39" id="ent0013"><rect fill="#111827" height="68.1358" rx="9" ry="9" style="stroke:#334155;stroke-width:0.5;" width="221.9573" x="1276.02" y="877.35"/><rect fill="#111827" height="10" style="stroke:#334155;stroke-width:0.5;" width="15" x="1477.9773" y="882.35"/><rect fill="#111827" height="2" style="stroke:#334155;stroke-width:0.5;" width="4" x="1475.9773" y="884.35"/><rect fill="#111827" height="2" style="stroke:#334155;stroke-width:0.5;" width="4" x="1475.9773" y="888.35"/><text fill="#E2E8F0" font-family="Arial" font-size="14" lengthAdjust="spacing" textLength="64.2177" x="1291.02" y="912.3159">TraceRow</text><text fill="#E2E8F0" font-family="Arial" font-size="14" lengthAdjust="spacing" textLength="181.9573" x="1291.02" y="931.3839">(step, current, next, receipt)</text></g><!--entity TraceFamily--><g class="entity" data-qualified-name="Bridge layer.TraceFamily" data-source-line="40" id="ent0014"><rect fill="#111827" height="68.1358" rx="9" ry="9" style="stroke:#334155;stroke-width:0.5;" width="278.027" x="866.66" y="944.35"/><rect fill="#111827" height="10" style="stroke:#334155;stroke-width:0.5;" width="15" x="1124.687" y="949.35"/><rect fill="#111827" height="2" style="stroke:#334155;stroke-width:0.5;" width="4" x="1122.687" y="951.35"/><rect fill="#111827" height="2" style="stroke:#334155;stroke-width:0.5;" width="4" x="1122.687" y="955.35"/><text fill="#E2E8F0" font-family="Arial" font-size="14" lengthAdjust="spacing" textLength="78.6097" x="881.66" y="979.3159">TraceFamily</text><text fill="#E2E8F0" font-family="Arial" font-size="14" lengthAdjust="spacing" textLength="238.027" x="881.66" y="998.3839">(Row, interpret : Row -&gt; TraceRow C)</text></g><!--entity Logs--><g class="entity" data-qualified-name="Runtime trace diagnostics.Logs" data-source-line="44" id="ent0016"><rect fill="#111827" height="42.0679" rx="9" ry="9" style="stroke:#334155;stroke-width:0.5;" width="134.7336" x="23" y="217.38"/><polygon fill="#111827" points="140.7336,222.38,140.7336,236.38,152.7336,236.38,152.7336,228.38,146.7336,222.38,140.7336,222.38" style="stroke:#334155;stroke-width:0.5;"/><line style="stroke:#334155;stroke-width:0.5;" x1="146.7336" x2="146.7336" y1="222.38" y2="228.38"/><line style="stroke:#334155;stroke-width:0.5;" x1="152.7336" x2="146.7336" y1="228.38" y2="228.38"/><text fill="#E2E8F0" font-family="Arial" font-size="14" lengthAdjust="spacing" textLength="104.7336" x="33" y="245.3459">training log CSV</text></g><!--entity DeltaScript--><g class="entity" data-qualified-name="Runtime trace diagnostics.DeltaScript" data-source-line="45" id="ent0017"><rect fill="#111827" height="42.0679" rx="9" ry="9" style="stroke:#334155;stroke-width:0.5;" width="145.3875" x="379.84" y="217.38"/><polygon fill="#111827" points="508.2275,222.38,508.2275,236.38,520.2275,236.38,520.2275,228.38,514.2275,222.38,508.2275,222.38" style="stroke:#334155;stroke-width:0.5;"/><line style="stroke:#334155;stroke-width:0.5;" x1="514.2275" x2="514.2275" y1="222.38" y2="228.38"/><line style="stroke:#334155;stroke-width:0.5;" x1="520.2275" x2="514.2275" y1="228.38" y2="228.38"/><text fill="#E2E8F0" font-family="Arial" font-size="14" lengthAdjust="spacing" textLength="115.3875" x="389.84" y="245.3459">delta_cone_lila.py</text></g><!--entity PrimeScript--><g class="entity" data-qualified-name="Runtime trace diagnostics.PrimeScript" data-source-line="46" id="ent0018"><rect fill="#111827" height="42.0679" rx="9" ry="9" style="stroke:#334155;stroke-width:0.5;" width="220.5253" x="342.27" y="140.38"/><polygon fill="#111827" points="545.7953,145.38,545.7953,159.38,557.7953,159.38,557.7953,151.38,551.7953,145.38,545.7953,145.38" style="stroke:#334155;stroke-width:0.5;"/><line style="stroke:#334155;stroke-width:0.5;" x1="551.7953" x2="551.7953" y1="145.38" y2="151.38"/><line style="stroke:#334155;stroke-width:0.5;" x1="557.7953" x2="551.7953" y1="151.38" y2="151.38"/><text fill="#E2E8F0" font-family="Arial" font-size="14" lengthAdjust="spacing" textLength="190.5253" x="352.27" y="168.3459">checkpoint_prime_vectors.py</text></g><g class="entity" data-qualified-name="GMN35" data-source-line="67" id="ent0036"><path d="M901.9,246.71 L901.9,274.122 A9,9 0 0 0 910.9,283.122 L1100.4502,283.122 A9,9 0 0 0 1109.4502,274.122 L1109.4502,247.71 L1099.4502,237.71 L910.9,237.71 A9,9 0 0 0 901.9,246.71" fill="#F8FAFC" style="stroke:#334155;stroke-width:0.5;"/><path d="M1099.4502,237.71 L1099.4502,243.21 A4.5,4.5 0 0 0 1103.9502,247.71 L1109.4502,247.71 L1099.4502,237.71" fill="#F8FAFC" style="stroke:#334155;stroke-width:1;"/><text fill="#000000" font-family="Arial" font-size="13" lengthAdjust="spacing" textLength="176.0072" x="907.9" y="256.607">LILA is the execution system.</text><text fill="#000000" font-family="Arial" font-size="13" lengthAdjust="spacing" textLength="186.5502" x="907.9" y="274.313">DASHI is the admissibility lens.</text></g><g class="entity" data-qualified-name="GMN38" data-source-line="72" id="ent0039"><path d="M851.34,166.71 L851.34,194.122 A9,9 0 0 0 860.34,203.122 L1151.0172,203.122 A9,9 0 0 0 1160.0172,194.122 L1160.0172,167.71 L1150.0172,157.71 L860.34,157.71 A9,9 0 0 0 851.34,166.71" fill="#F8FAFC" style="stroke:#334155;stroke-width:0.5;"/><path d="M1150.0172,157.71 L1150.0172,163.21 A4.5,4.5 0 0 0 1154.5172,167.71 L1160.0172,167.71 L1150.0172,157.71" fill="#F8FAFC" style="stroke:#334155;stroke-width:1;"/><text fill="#000000" font-family="Arial" font-size="13" lengthAdjust="spacing" textLength="287.6772" x="857.34" y="176.607">Trace-diagnostic side: test Delta, not absolutes.</text><text fill="#000000" font-family="Arial" font-size="13" lengthAdjust="spacing" textLength="278.4472" x="857.34" y="194.313">Arrow coordinates stay outside the quadratic.</text></g><g class="entity" data-qualified-name="GMN41" data-source-line="77" id="ent0042"><path d="M269.73,15 L269.73,77.8241 A9,9 0 0 0 278.73,86.8241 L626.3342,86.8241 A9,9 0 0 0 635.3342,77.8241 L635.3342,16 L625.3342,6 L278.73,6 A9,9 0 0 0 269.73,15" fill="#F8FAFC" style="stroke:#334155;stroke-width:0.5;"/><path d="M625.3342,6 L625.3342,11.5 A4.5,4.5 0 0 0 629.8342,16 L635.3342,16 L625.3342,6" fill="#F8FAFC" style="stroke:#334155;stroke-width:1;"/><text fill="#000000" font-family="Arial" font-size="13" lengthAdjust="spacing" textLength="304.3433" x="275.73" y="24.897">Formal claim: traces are interpreted inside DASHI.</text><text fill="#000000" font-family="Arial" font-size="13" lengthAdjust="spacing" textLength="270.7902" x="275.73" y="42.603">Not an equality claim and not a safety proof.</text><text fill="#000000" font-family="Arial" font-size="13" lengthAdjust="spacing" textLength="301.4053" x="275.73" y="60.309">This supplies no Drell-Yan W3 accepted authority,</text><text fill="#000000" font-family="Arial" font-size="13" lengthAdjust="spacing" textLength="344.6042" x="275.73" y="78.0151">W4 adequacy, W5 correction, or external provider token.</text></g><!--link StateT to StateNext--><g class="link" data-entity-1="ent0003" data-entity-2="ent0004" data-link-type="dependency" data-source-line="49" id="lnk19"><path d="M128.55,390.6 C193.8,383.89 322.9114,370.6333 396.0014,363.1233" fill="none" id="StateT-to-StateNext" style="stroke:#8B5CF6;stroke-width:2;"/><polygon fill="#8B5CF6" points="401.97,362.51,392.6083,359.4509,396.9962,363.0211,393.426,367.409,401.97,362.51" style="stroke:#8B5CF6;stroke-width:2;"/><text fill="#000000" font-family="Arial" font-size="13" lengthAdjust="spacing" textLength="50.271" x="188.73" y="375.127">live step</text></g><!--link StateT to DeltaT--><g class="link" data-entity-1="ent0003" data-entity-2="ent0005" data-link-type="dependency" data-source-line="50" id="lnk20"><path d="M128.66,395.7 C216.84,398.45 445.04,403.92 635.34,394.42 C727.05,389.83 825.1418,379.5971 899.3818,370.7871" fill="none" id="StateT-to-DeltaT" style="stroke:#8B5CF6;stroke-width:2;"/><polygon fill="#8B5CF6" points="905.34,370.08,895.9313,367.1685,900.3748,370.6692,896.8741,375.1127,905.34,370.08" style="stroke:#8B5CF6;stroke-width:2;"/></g><!--link StateNext to DeltaT--><g class="link" data-entity-1="ent0004" data-entity-2="ent0005" data-link-type="dependency" data-source-line="51" id="lnk21"><path d="M502.93,357.42 C593.29,357.42 780.81,357.42 899.35,357.42" fill="none" id="StateNext-to-DeltaT" style="stroke:#8B5CF6;stroke-width:2;"/><polygon fill="#8B5CF6" points="905.35,357.42,896.35,353.42,900.35,357.42,896.35,361.42,905.35,357.42" style="stroke:#8B5CF6;stroke-width:2;"/></g><!--link Contract to Bridge--><g class="link" data-entity-1="ent0007" data-entity-2="ent0012" data-link-type="dependency" data-source-line="52" id="lnk22"><path d="M539.2,563.79 C570.23,570.29 605.08,579.55 635.34,592.42 C726.1,630.99 756.75,638.89 821.34,713.42 C836.1,730.45 827.93,742.37 842.66,759.42 C863.76,783.83 886.7279,801.6667 913.5579,818.3867" fill="none" id="Contract-to-Bridge" style="stroke:#8B5CF6;stroke-width:2;"/><polygon fill="#8B5CF6" points="918.65,821.56,913.1273,813.4052,914.4065,818.9156,908.8962,820.1948,918.65,821.56" style="stroke:#8B5CF6;stroke-width:2;"/></g><!--link PhaseSplit to Bridge--><g class="link" data-entity-1="ent0008" data-entity-2="ent0012" data-link-type="dependency" data-source-line="53" id="lnk23"><path d="M573.52,655.24 C594.59,660.82 615.95,667.79 635.34,676.42 C650.21,683.04 651.34,689.12 665.34,697.42 C743.94,744.02 831.7752,787.0192 900.6352,818.8992" fill="none" id="PhaseSplit-to-Bridge" style="stroke:#8B5CF6;stroke-width:2;"/><polygon fill="#8B5CF6" points="906.08,821.42,899.5933,814.009,901.5427,819.3194,896.2323,821.2687,906.08,821.42" style="stroke:#8B5CF6;stroke-width:2;"/></g><!--link Bridge to TraceRow--><g class="link" data-entity-1="ent0012" data-entity-2="ent0013" data-link-type="dependency" data-source-line="54" id="lnk24"><path d="M1139.34,881.5 C1183.89,886.91 1227.1036,892.1476 1269.7336,897.3176" fill="none" id="Bridge-to-TraceRow" style="stroke:#8B5CF6;stroke-width:2;"/><polygon fill="#8B5CF6" points="1275.69,898.04,1267.237,892.9855,1270.7264,897.438,1266.2739,900.9274,1275.69,898.04" style="stroke:#8B5CF6;stroke-width:2;"/></g><!--link Receipt to TraceRow--><g class="link" data-entity-1="ent0009" data-entity-2="ent0013" data-link-type="dependency" data-source-line="55" id="lnk25"><path d="M1032.75,575.23 C1098.95,638.23 1269.3038,800.3635 1345.3838,872.7735" fill="none" id="Receipt-to-TraceRow" style="stroke:#8B5CF6;stroke-width:2;"/><polygon fill="#8B5CF6" points="1349.73,876.91,1345.9684,867.8078,1346.1082,873.4629,1340.4531,873.6027,1349.73,876.91" style="stroke:#8B5CF6;stroke-width:2;"/></g><!--link TraceRow to Admissible--><g class="link" data-entity-1="ent0013" data-entity-2="ent0010" data-link-type="dependency" data-source-line="56" id="lnk26"><path d="M1348.67,945.69 C1309,979.59 1242.77,1029.23 1175.03,1049.42 C1033.47,1091.61 979.37,1105.39 842.66,1049.42 C723.03,1000.43 734.75,928.05 635.34,845.42 C588.85,806.77 536.0512,771.0136 498.2612,746.6236" fill="none" id="TraceRow-to-Admissible" style="stroke:#8B5CF6;stroke-width:2;"/><polygon fill="#8B5CF6" points="493.22,743.37,498.6127,751.6113,497.421,746.0814,502.9509,744.8897,493.22,743.37" style="stroke:#8B5CF6;stroke-width:2;"/><text fill="#000000" font-family="Arial" font-size="13" lengthAdjust="spacing" textLength="119.2231" x="946.18" y="1045.317">receipt-&gt;admissible</text></g><!--link TraceFamily to TraceRow--><g class="link" data-entity-1="ent0014" data-entity-2="ent0013" data-link-type="dependency" data-source-line="57" id="lnk27"><path d="M1144.96,953.99 C1187.94,946.4 1228.8215,939.1736 1269.6415,931.9636" fill="none" id="TraceFamily-to-TraceRow" style="stroke:#8B5CF6;stroke-width:2;"/><polygon fill="#8B5CF6" points="1275.55,930.92,1265.9914,928.5464,1270.6262,931.7897,1267.3829,936.4245,1275.55,930.92" style="stroke:#8B5CF6;stroke-width:2;"/><text fill="#000000" font-family="Arial" font-size="13" lengthAdjust="spacing" textLength="54.1711" x="1191.02" y="932.837">interpret</text></g><!--link Logs to DeltaScript--><g class="link" data-entity-1="ent0016" data-entity-2="ent0017" data-link-type="dependency" data-source-line="58" id="lnk28"><path d="M157.85,238.42 C220.76,238.42 308.93,238.42 373.58,238.42" fill="none" id="Logs-to-DeltaScript" style="stroke:#8B5CF6;stroke-width:2;"/><polygon fill="#8B5CF6" points="379.58,238.42,370.58,234.42,374.58,238.42,370.58,242.42,379.58,238.42" style="stroke:#8B5CF6;stroke-width:2;"/></g><!--link Logs to PrimeScript--><g class="link" data-entity-1="ent0016" data-entity-2="ent0018" data-link-type="dependency" data-source-line="59" id="lnk29"><path d="M157.83,223.73 C191.37,216.36 232.69,207.34 269.73,199.42 C295.12,193.99 316.6374,189.4499 342.2774,184.0799" fill="none" id="Logs-to-PrimeScript" style="stroke:#8B5CF6;stroke-width:2;"/><polygon fill="#8B5CF6" points="348.15,182.85,338.5212,180.7799,343.2562,183.875,340.1611,188.61,348.15,182.85" style="stroke:#8B5CF6;stroke-width:2;"/></g><!--link DeltaScript to DeltaT--><g class="link" data-entity-1="ent0017" data-entity-2="ent0005" data-link-type="dependency" data-source-line="60" id="lnk30"><path d="M525.59,253.97 C624.65,275.36 797.1152,312.6037 906.0452,336.1237" fill="none" id="DeltaScript-to-DeltaT" style="stroke:#8B5CF6;stroke-width:2;"/><polygon fill="#8B5CF6" points="911.91,337.39,903.957,331.5806,907.0226,336.3347,902.2685,339.4004,911.91,337.39" style="stroke:#8B5CF6;stroke-width:2;"/><text fill="#000000" font-family="Arial" font-size="13" lengthAdjust="spacing" textLength="154.9081" x="666.34" y="283.157">estimate projected deltas</text></g><!--link Logs to TraceFamily--><g class="link" data-entity-1="ent0016" data-entity-2="ent0014" data-link-type="dependency" data-source-line="61" id="lnk31"><path d="M112.87,259.82 C127.55,275.59 146.33,298.24 157.73,321.42 C203.91,415.23 196.74,703.55 269.73,778.42 C427.12,939.85 694.8733,974.7623 860.1733,980.2123" fill="none" id="Logs-to-TraceFamily" style="stroke:#8B5CF6;stroke-width:2;"/><polygon fill="#8B5CF6" points="866.17,980.41,857.3067,976.1156,861.1727,980.2452,857.0431,984.1113,866.17,980.41" style="stroke:#8B5CF6;stroke-width:2;"/><text fill="#000000" font-family="Arial" font-size="13" lengthAdjust="spacing" textLength="67.899" x="419.04" y="774.317">row source</text></g><!--link Contract to Receipt--><g class="link" data-entity-1="ent0007" data-entity-2="ent0009" data-link-type="dependency" data-source-line="62" id="lnk32"><path d="M539.35,550.42 C624.97,550.42 752.11,550.42 854.07,550.42" fill="none" id="Contract-to-Receipt" style="stroke:#8B5CF6;stroke-width:2;"/><polygon fill="#8B5CF6" points="860.07,550.42,851.07,546.42,855.07,550.42,851.07,554.42,860.07,550.42" style="stroke:#8B5CF6;stroke-width:2;"/><text fill="#000000" font-family="Arial" font-size="13" lengthAdjust="spacing" textLength="68.3281" x="709.34" y="546.317">judges pair</text></g><!--link StateT to Receipt--><g class="link" data-entity-1="ent0003" data-entity-2="ent0009" data-link-type="dependency" data-source-line="63" id="lnk33"><path d="M128.59,400.77 C250.83,421.65 638.5956,487.8899 854.2356,524.7199" fill="none" id="StateT-to-Receipt" style="stroke:#8B5CF6;stroke-width:2;"/><polygon fill="#8B5CF6" points="860.15,525.73,851.9519,520.2719,855.2214,524.8882,850.605,528.1577,860.15,525.73" style="stroke:#8B5CF6;stroke-width:2;"/></g><!--link StateNext to Receipt--><g class="link" data-entity-1="ent0004" data-entity-2="ent0009" data-link-type="dependency" data-source-line="64" id="lnk34"><path d="M503.07,367.27 C574.71,382.29 710.76,413.74 821.34,456.42 C871.56,475.8 920.8824,501.9174 957.3024,522.5974" fill="none" id="StateNext-to-Receipt" style="stroke:#8B5CF6;stroke-width:2;"/><polygon fill="#8B5CF6" points="962.52,525.56,956.6688,517.6377,958.172,523.0911,952.7186,524.5944,962.52,525.56" style="stroke:#8B5CF6;stroke-width:2;"/></g><!--link Bridge to GMN35--><g class="link" data-entity-1="ent0012" data-entity-2="ent0036" data-link-type="association" data-source-line="67" id="lnk37"><path d="M872.14,836.25 C821.49,817.99 768.87,788.67 739,741.92 C642.57,590.98 631.71,482.34 739,338.92 C776.29,289.06 843.72,269.52 901.44,262.4" fill="none" id="Bridge-GMN35" style="stroke:#8B5CF6;stroke-width:2;stroke-dasharray:7,7;"/></g><!--link DeltaT to GMN38--><g class="link" data-entity-1="ent0005" data-entity-2="ent0039" data-link-type="association" data-source-line="72" id="lnk40"><path d="M905.54,347.1 C809.75,333.21 686.97,302.36 739,237.92 C766.3,204.11 808.28,187.14 850.92,179.3" fill="none" id="DeltaT-GMN38" style="stroke:#8B5CF6;stroke-width:2;stroke-dasharray:7,7;"/></g><!--link Admissible to GMN41--><g class="link" data-entity-1="ent0010" data-entity-2="ent0042" data-link-type="association" data-source-line="77" id="lnk43"><path d="M341.18,720.14 C293.76,714.46 242.77,698.42 213.73,658.92 C145.68,566.35 149.32,237.05 213.73,141.92 C229.69,118.35 252.51,100.59 277.79,87.22" fill="none" id="Admissible-GMN41" style="stroke:#8B5CF6;stroke-width:2;stroke-dasharray:7,7;"/></g><?plantuml-src ZLPHJ-Cu47xFhnZrNbXTMr5ORYiaLYhbqAs44A9eqKf8bUjCMcyTEsSxGBNQ_txZn4aSgCgzW3B-PkQRRyPJIymSE0r6h3SEKc6GEw5LOhT25Som75QCRzT6bogTQwaD_76SJRwSi0XXDopLBqAj8MFIOdHoNxiPXGOcq-WWnOoLqbrhvMvPZZ0pWideV6QCVWdvfgipdltrzl1X8_XMeRLm4XqLH9QjSU5s4i7NmjHQnenQs-NRiYQJoVJaorweDYcQ03iz_JmvEzi7yyK449xWD3kEGCmuaJ7kFixQ8WycRL27SdAT5rgX-Xz9E-Z1h2tiKDhGWe-JDi23AGFeK4AbtVjisJHZ6N-BsfCg2HbWSFFjPWRuYhpqDm2iI740lnBeEWo3XMCEuNNf1i0iL5yF-n57xi_9fmvrYw-k3xn2wTZImVa55E8eE7o2KVtbQjyAz93yZcXUpHR_V0EMvi9QiH9Ik5t4jMqH3FvkIfcJU8Q61UPLpERp0_JTXbbS51G_-7M63pplaQCeoCqBrPCYdFJzPw4KITSMYprU7Q0dnAKHAVsNR8VcNV4tGh8hPZUYHZsfhh4NC7zIHLVT1N2cj1ASoNSrrzxzq0zK8zxhboTrP8dm47Xf39qCWPBGNrCNMNDlm7j2NBDSo1r5eUCX2ENG50Pf86Xjli3eQ-iByoXMxTKJuhvKJj0IzU8ZxN2sLjewmMsjIhChO400eVoUbdeDyyNtAkgDNjiUAgq6anFLfIGLnyMk6yK5DtN_EZZV8DyMclWl2qCqbiyquzhOnk_E6uCViQxl38oellPYKCbIF2DuEMD0cFuE5ndReVQsqAQeVP4rpCaeKZHfHhHdRFNsrcxeY5rewUWhwqOnwaOl3C7RNYPUt8vrKA4rnj94WAXC2eRKojplbCBedoGjfb1ro7PnOYf4bZXONHgEVP6Qci_XPqc2MDgjmiHoDxUphtTZJVm6XPLsJkUWiqRTQciA2sw3yVBSKI_pSL8lgt3StraIbHqdgD9gDRyB7zfSbJRgPhfQTUVWI9KQClJkm5PMovAiuwHw7T1berql51LYQQpO3dJfl6j5vD-IfOPHj0FvewLphKtE9739H7vUtp9B5m2xFbDFXAh2LmMFarlFIG5IfghOofSiQSqMBCkGpDHIdOqJUiiGoxAWoQN8IiELGIb7FoZ2uoamph7mALZfDjfGk67o-9dKzD7vRWYFPrIk2I-t8T2F6_KEZIBEbE2PQ1bwucrHTUN-1m00?></g></svg>