<?plantuml 1.2026.2?><svg xmlns="http://www.w3.org/2000/svg" xmlns:xlink="http://www.w3.org/1999/xlink" contentStyleType="text/css" data-diagram-type="DESCRIPTION" height="1600px" preserveAspectRatio="none" style="width:1981px;height:1600px;background:#FFFFFF;" version="1.1" viewBox="0 0 1981 1600" width="1981px" zoomAndPan="magnify"><title>Worker Coordination Map For Open Blockers</title><defs/><g><g class="title" data-source-line="1"><text fill="#000000" font-family="sans-serif" font-size="14" font-weight="bold" lengthAdjust="spacing" textLength="311.7088" x="827.7356" y="24.9659">Worker Coordination Map For Open Blockers</text></g><!--cluster Coordination control--><g class="cluster" data-qualified-name="Coordination control" data-source-line="28" id="ent0002"><rect fill="#FFFFFF" height="150" rx="9" ry="9" style="stroke:#334155;stroke-width:1;" width="641.82" x="7" y="823.4779"/><text fill="#0F172A" font-family="sans-serif" font-size="14" font-weight="bold" lengthAdjust="spacing" textLength="145.3474" x="255.2363" y="840.4439">Coordination control</text></g><!--cluster Active assignment round 2026-05-04--><g class="cluster" data-qualified-name="Active assignment round 2026-05-04" data-source-line="33" id="ent0005"><rect fill="#FFFFFF" height="468" rx="9" ry="9" style="stroke:#334155;stroke-width:1;" width="267" x="389.93" y="142.4779"/><text fill="#0F172A" font-family="sans-serif" font-size="14" font-weight="bold" lengthAdjust="spacing" textLength="251.285" x="397.7875" y="159.4439">Active assignment round 2026-05-04</text></g><!--cluster P0 theorem / bridge blockers--><g class="cluster" data-qualified-name="P0 theorem . bridge blockers" data-source-line="40" id="ent0010"><rect fill="#FFFFFF" height="674" rx="9" ry="9" style="stroke:#334155;stroke-width:1;" width="878.24" x="736.36" y="485.4779"/><text fill="#0F172A" font-family="sans-serif" font-size="14" font-weight="bold" lengthAdjust="spacing" textLength="202.2852" x="1074.3374" y="502.4439">P0 theorem / bridge blockers</text></g><!--cluster Interop and governance blockers--><g class="cluster" data-qualified-name="Interop and governance blockers" data-source-line="50" id="ent0018"><rect fill="#FFFFFF" height="301" rx="9" ry="9" style="stroke:#334155;stroke-width:1;" width="331.72" x="1296.24" y="1183.4779"/><text fill="#0F172A" font-family="sans-serif" font-size="14" font-weight="bold" lengthAdjust="spacing" textLength="231.7831" x="1346.2085" y="1200.4439">Interop and governance blockers</text></g><!--cluster Shared promotion rules--><g class="cluster" data-qualified-name="Shared promotion rules" data-source-line="55" id="ent0021"><rect fill="#FFFFFF" height="394" rx="9" ry="9" style="stroke:#334155;stroke-width:1;" width="314.22" x="1660.96" y="930.4779"/><text fill="#0F172A" font-family="sans-serif" font-size="14" font-weight="bold" lengthAdjust="spacing" textLength="165.2274" x="1735.4563" y="947.4439">Shared promotion rules</text></g><!--entity W0--><g class="entity" data-qualified-name="Coordination control.W0" data-source-line="29" id="ent0003"><rect fill="#DBEAFE" height="96.2717" rx="9" ry="9" style="stroke:#334155;stroke-width:0.5;" width="236.9292" x="23" y="861.3479"/><text fill="#0F172A" font-family="sans-serif" font-size="14" lengthAdjust="spacing" textLength="188.6073" x="47.1609" y="886.3139">W0 Orchestrator / integrator</text><text fill="#0F172A" font-family="sans-serif" font-size="14" lengthAdjust="spacing" textLength="216.9292" x="33" y="905.3818">owns this board, diagram wiring,</text><text fill="#0F172A" font-family="sans-serif" font-size="14" lengthAdjust="spacing" textLength="194.7392" x="44.095" y="924.4497">TODO/changelog, verification</text><text fill="#0F172A" font-family="sans-serif" font-size="14" lengthAdjust="spacing" textLength="162.8894" x="60.0199" y="943.5176">status: coordination only</text></g><!--entity Board--><g class="entity" data-qualified-name="Coordination control.Board" data-source-line="30" id="ent0004"><rect fill="#DCFCE7" height="77.2038" rx="9" ry="9" style="stroke:#334155;stroke-width:0.5;" width="219.7793" x="413.04" y="861.8779"/><text fill="#0F172A" font-family="sans-serif" font-size="14" lengthAdjust="spacing" textLength="199.7793" x="423.04" y="886.8439">WorkerCoordinationBoard.md</text><text fill="#0F172A" font-family="sans-serif" font-size="14" lengthAdjust="spacing" textLength="143.6254" x="451.1169" y="905.9118">single routing surface</text><text fill="#0F172A" font-family="sans-serif" font-size="14" lengthAdjust="spacing" textLength="116.0876" x="464.8858" y="924.9797">lane table + gates</text></g><!--entity A_W1--><g class="entity" data-qualified-name="Active assignment round 2026-05-04.A_W1" data-source-line="34" id="ent0006"><rect fill="#FDE68A" height="77.2038" rx="9" ry="9" style="stroke:#334155;stroke-width:0.5;" width="112.2036" x="466.83" y="404.8779"/><text fill="#0F172A" font-family="sans-serif" font-size="14" lengthAdjust="spacing" textLength="37.3519" x="504.2559" y="429.8439">Erdos</text><text fill="#0F172A" font-family="sans-serif" font-size="14" lengthAdjust="spacing" textLength="62.9157" x="491.4739" y="448.9118">W1 active</text><text fill="#0F172A" font-family="sans-serif" font-size="14" lengthAdjust="spacing" textLength="92.2036" x="476.83" y="467.9797">MDL/CR seam</text></g><!--entity A_W2--><g class="entity" data-qualified-name="Active assignment round 2026-05-04.A_W2" data-source-line="35" id="ent0007"><rect fill="#FDE68A" height="77.2038" rx="9" ry="9" style="stroke:#334155;stroke-width:0.5;" width="126.2316" x="459.81" y="516.8779"/><text fill="#0F172A" font-family="sans-serif" font-size="14" lengthAdjust="spacing" textLength="37.5479" x="504.1519" y="541.8439">Boole</text><text fill="#0F172A" font-family="sans-serif" font-size="14" lengthAdjust="spacing" textLength="62.9157" x="491.4679" y="560.9118">W2 active</text><text fill="#0F172A" font-family="sans-serif" font-size="14" lengthAdjust="spacing" textLength="106.2316" x="469.81" y="579.9797">p2/convergence</text></g><!--entity A_W3--><g class="entity" data-qualified-name="Active assignment round 2026-05-04.A_W3" data-source-line="36" id="ent0008"><rect fill="#FDE68A" height="77.2038" rx="9" ry="9" style="stroke:#334155;stroke-width:0.5;" width="152.3275" x="446.77" y="292.8779"/><text fill="#0F172A" font-family="sans-serif" font-size="14" lengthAdjust="spacing" textLength="33.8519" x="506.0078" y="317.8439">Tesla</text><text fill="#0F172A" font-family="sans-serif" font-size="14" lengthAdjust="spacing" textLength="62.9157" x="491.4759" y="336.9118">W3 active</text><text fill="#0F172A" font-family="sans-serif" font-size="14" lengthAdjust="spacing" textLength="132.3275" x="456.77" y="355.9797">empirical diagnostic</text></g><!--entity A_W4--><g class="entity" data-qualified-name="Active assignment round 2026-05-04.A_W4" data-source-line="37" id="ent0009"><rect fill="#FDE68A" height="77.2038" rx="9" ry="9" style="stroke:#334155;stroke-width:0.5;" width="110.7616" x="467.55" y="180.8779"/><text fill="#0F172A" font-family="sans-serif" font-size="14" lengthAdjust="spacing" textLength="57.4558" x="494.2029" y="205.8439">Poincare</text><text fill="#0F172A" font-family="sans-serif" font-size="14" lengthAdjust="spacing" textLength="62.9157" x="491.473" y="224.9118">W4 active</text><text fill="#0F172A" font-family="sans-serif" font-size="14" lengthAdjust="spacing" textLength="90.7616" x="477.55" y="243.9797">chemistry law</text></g><!--entity W1--><g class="entity" data-qualified-name="P0 theorem . bridge blockers.W1" data-source-line="41" id="ent0011"><rect fill="#FECACA" height="96.2717" rx="9" ry="9" style="stroke:#334155;stroke-width:0.5;" width="253.1971" x="775.2" y="523.3479"/><text fill="#0F172A" font-family="sans-serif" font-size="14" lengthAdjust="spacing" textLength="124.7535" x="839.4218" y="548.3139">W1 MDL/CR carrier</text><text fill="#0F172A" font-family="sans-serif" font-size="14" lengthAdjust="spacing" textLength="219.2951" x="792.151" y="567.3818">need: CR-flat noncanonical target</text><text fill="#0F172A" font-family="sans-serif" font-size="14" lengthAdjust="spacing" textLength="171.0513" x="816.2729" y="586.4497">or aligned carrier/channel</text><text fill="#0F172A" font-family="sans-serif" font-size="14" lengthAdjust="spacing" textLength="233.1971" x="785.2" y="605.5176">validates: targeted MDL seam Agda</text></g><!--entity W2--><g class="entity" data-qualified-name="P0 theorem . bridge blockers.W2" data-source-line="42" id="ent0012"><rect fill="#FECACA" height="96.2717" rx="9" ry="9" style="stroke:#334155;stroke-width:0.5;" width="298.809" x="752.4" y="654.3479"/><text fill="#0F172A" font-family="sans-serif" font-size="14" lengthAdjust="spacing" textLength="200.1152" x="801.7469" y="679.3139">W2 Natural / p2 / convergence</text><text fill="#0F172A" font-family="sans-serif" font-size="14" lengthAdjust="spacing" textLength="255.849" x="773.88" y="698.3818">need: positive p2 bridge or obstruction</text><text fill="#0F172A" font-family="sans-serif" font-size="14" lengthAdjust="spacing" textLength="207.1992" x="798.2049" y="717.4497">plus convergence-rate theorem</text><text fill="#0F172A" font-family="sans-serif" font-size="14" lengthAdjust="spacing" textLength="278.809" x="762.4" y="736.5176">validates: targeted natural/dynamics Agda</text></g><!--entity W3--><g class="entity" data-qualified-name="P0 theorem . bridge blockers.W3" data-source-line="43" id="ent0013"><rect fill="#FECACA" height="96.2717" rx="9" ry="9" style="stroke:#334155;stroke-width:0.5;" width="273.007" x="1325.6" y="654.3479"/><text fill="#0F172A" font-family="sans-serif" font-size="14" lengthAdjust="spacing" textLength="152.3194" x="1385.9438" y="679.3139">W3 Empirical adequacy</text><text fill="#0F172A" font-family="sans-serif" font-size="14" lengthAdjust="spacing" textLength="215.3052" x="1354.4509" y="698.3818">need: obs(fixedPoint) = empirical</text><text fill="#0F172A" font-family="sans-serif" font-size="14" lengthAdjust="spacing" textLength="253.007" x="1335.6" y="717.4497">or precise carrier-mismatch diagnostic</text><text fill="#0F172A" font-family="sans-serif" font-size="14" lengthAdjust="spacing" textLength="246.6231" x="1338.792" y="736.5176">validates: empirical bridge Agda/docs</text></g><!--entity W4--><g class="entity" data-qualified-name="P0 theorem . bridge blockers.W4" data-source-line="44" id="ent0014"><rect fill="#FECACA" height="96.2717" rx="9" ry="9" style="stroke:#334155;stroke-width:0.5;" width="221.6972" x="1351.25" y="523.3479"/><text fill="#0F172A" font-family="sans-serif" font-size="14" lengthAdjust="spacing" textLength="117.5575" x="1403.3198" y="548.3139">W4 Chemistry law</text><text fill="#0F172A" font-family="sans-serif" font-size="14" lengthAdjust="spacing" textLength="201.6972" x="1361.25" y="567.3818">need: symmetric nontrivial law</text><text fill="#0F172A" font-family="sans-serif" font-size="14" lengthAdjust="spacing" textLength="184.1553" x="1370.021" y="586.4497">using Candidate256 witness</text><text fill="#0F172A" font-family="sans-serif" font-size="14" lengthAdjust="spacing" textLength="168.0134" x="1378.0919" y="605.5176">validates: chemistry Agda</text></g><!--entity W5--><g class="entity" data-qualified-name="P0 theorem . bridge blockers.W5" data-source-line="45" id="ent0015"><rect fill="#FEF3C7" height="96.2717" rx="9" ry="9" style="stroke:#334155;stroke-width:0.5;" width="278.985" x="762.31" y="1047.3479"/><text fill="#0F172A" font-family="sans-serif" font-size="14" lengthAdjust="spacing" textLength="144.3674" x="829.6188" y="1072.3139">W5 GR/QFT consumer</text><text fill="#0F172A" font-family="sans-serif" font-size="14" lengthAdjust="spacing" textLength="235.2551" x="784.175" y="1091.3818">need: richer downstream consumer</text><text fill="#0F172A" font-family="sans-serif" font-size="14" lengthAdjust="spacing" textLength="208.1792" x="797.7129" y="1110.4497">or missing upstream ingredient</text><text fill="#0F172A" font-family="sans-serif" font-size="14" lengthAdjust="spacing" textLength="258.985" x="772.31" y="1129.5176">validates: known-limits/consumer Agda</text></g><!--entity W8--><g class="entity" data-qualified-name="P0 theorem . bridge blockers.W8" data-source-line="46" id="ent0016"><rect fill="#FEF3C7" height="96.2717" rx="9" ry="9" style="stroke:#334155;stroke-width:0.5;" width="296.1629" x="753.72" y="785.3479"/><text fill="#0F172A" font-family="sans-serif" font-size="14" lengthAdjust="spacing" textLength="115.0795" x="844.2617" y="810.3139">W8 Origin receipt</text><text fill="#0F172A" font-family="sans-serif" font-size="14" lengthAdjust="spacing" textLength="195.3972" x="804.1028" y="829.3818">need: co-located carrier/map/</text><text fill="#0F172A" font-family="sans-serif" font-size="14" lengthAdjust="spacing" textLength="276.1629" x="763.72" y="848.4497">signature/dynamics/empirical/CRT receipt</text><text fill="#0F172A" font-family="sans-serif" font-size="14" lengthAdjust="spacing" textLength="242.0731" x="780.7649" y="867.5176">validates: receipt Agda or docs check</text></g><!--entity W9--><g class="entity" data-qualified-name="P0 theorem . bridge blockers.W9" data-source-line="47" id="ent0017"><rect fill="#FEF3C7" height="96.2717" rx="9" ry="9" style="stroke:#334155;stroke-width:0.5;" width="298.8789" x="752.36" y="916.3479"/><text fill="#0F172A" font-family="sans-serif" font-size="14" lengthAdjust="spacing" textLength="207.2272" x="798.1859" y="941.3139">W9 Cancellation-pressure seam</text><text fill="#0F172A" font-family="sans-serif" font-size="14" lengthAdjust="spacing" textLength="174.7893" x="814.4048" y="960.3818">need: discharge or replace</text><text fill="#0F172A" font-family="sans-serif" font-size="14" lengthAdjust="spacing" textLength="278.8789" x="762.36" y="979.4497">CancellationPressureCompatibility dim=15</text><text fill="#0F172A" font-family="sans-serif" font-size="14" lengthAdjust="spacing" textLength="221.6752" x="790.9619" y="998.5176">validates: delta-to-quadratic Agda</text></g><!--entity W6--><g class="entity" data-qualified-name="Interop and governance blockers.W6" data-source-line="51" id="ent0019"><rect fill="#FEF3C7" height="96.2717" rx="9" ry="9" style="stroke:#334155;stroke-width:0.5;" width="231.1472" x="1346.53" y="1221.3479"/><text fill="#0F172A" font-family="sans-serif" font-size="14" lengthAdjust="spacing" textLength="159.1234" x="1382.5419" y="1246.3139">W6 ITIR / PNF consumer</text><text fill="#0F172A" font-family="sans-serif" font-size="14" lengthAdjust="spacing" textLength="211.1472" x="1356.53" y="1265.3818">need: receipt-bearing consumer</text><text fill="#0F172A" font-family="sans-serif" font-size="14" lengthAdjust="spacing" textLength="150.0654" x="1387.0709" y="1284.4497">no labels by inspection</text><text fill="#0F172A" font-family="sans-serif" font-size="14" lengthAdjust="spacing" textLength="187.1513" x="1368.5279" y="1303.5176">validates: interop Agda/docs</text></g><!--entity W7--><g class="entity" data-qualified-name="Interop and governance blockers.W7" data-source-line="52" id="ent0020"><rect fill="#FEF3C7" height="115.3396" rx="9" ry="9" style="stroke:#334155;stroke-width:0.5;" width="299.719" x="1312.24" y="1352.8079"/><text fill="#0F172A" font-family="sans-serif" font-size="14" lengthAdjust="spacing" textLength="142.9674" x="1390.6158" y="1377.7739">W7 Claim governance</text><text fill="#0F172A" font-family="sans-serif" font-size="14" lengthAdjust="spacing" textLength="190.8333" x="1366.6828" y="1396.8418">higher-structure, cross-scale,</text><text fill="#0F172A" font-family="sans-serif" font-size="14" lengthAdjust="spacing" textLength="243.9491" x="1340.125" y="1415.9097">neurochemical, temporal, spacetime,</text><text fill="#0F172A" font-family="sans-serif" font-size="14" lengthAdjust="spacing" textLength="218.6932" x="1352.7529" y="1434.9776">market readings remain guarded</text><text fill="#0F172A" font-family="sans-serif" font-size="14" lengthAdjust="spacing" textLength="279.719" x="1322.24" y="1454.0455">validates: guardrail docs + obligation Agda</text></g><!--entity RuleNoProse--><g class="entity" data-qualified-name="Shared promotion rules.RuleNoProse" data-source-line="56" id="ent0022"><rect fill="#FEE2E2" height="96.2717" rx="9" ry="9" style="stroke:#334155;stroke-width:0.5;" width="269.689" x="1683.22" y="968.3479"/><text fill="#0F172A" font-family="sans-serif" font-size="14" lengthAdjust="spacing" textLength="134.0635" x="1751.0328" y="993.3139">No prose promotion</text><text fill="#0F172A" font-family="sans-serif" font-size="14" lengthAdjust="spacing" textLength="200.1012" x="1718.0139" y="1012.3818">red/yellow gates move only by</text><text fill="#0F172A" font-family="sans-serif" font-size="14" lengthAdjust="spacing" textLength="249.689" x="1693.22" y="1031.4497">named theorem owner, typed receipt,</text><text fill="#0F172A" font-family="sans-serif" font-size="14" lengthAdjust="spacing" textLength="204.3712" x="1715.8789" y="1050.5176">or explicit mismatch diagnostic</text></g><!--entity RuleDisjoint--><g class="entity" data-qualified-name="Shared promotion rules.RuleDisjoint" data-source-line="57" id="ent0023"><rect fill="#FEE2E2" height="77.2038" rx="9" ry="9" style="stroke:#334155;stroke-width:0.5;" width="205.2613" x="1715.44" y="1230.8779"/><text fill="#0F172A" font-family="sans-serif" font-size="14" lengthAdjust="spacing" textLength="122.9615" x="1756.5899" y="1255.8439">Disjoint ownership</text><text fill="#0F172A" font-family="sans-serif" font-size="14" lengthAdjust="spacing" textLength="132.6495" x="1751.7459" y="1274.9118">one lane per worker</text><text fill="#0F172A" font-family="sans-serif" font-size="14" lengthAdjust="spacing" textLength="185.2613" x="1725.44" y="1293.9797">no unrelated dirty-tree edits</text></g><!--entity RuleVerify--><g class="entity" data-qualified-name="Shared promotion rules.RuleVerify" data-source-line="58" id="ent0024"><rect fill="#FEE2E2" height="96.2717" rx="9" ry="9" style="stroke:#334155;stroke-width:0.5;" width="282.219" x="1676.96" y="1099.3479"/><text fill="#0F172A" font-family="sans-serif" font-size="14" lengthAdjust="spacing" textLength="74.4797" x="1780.8296" y="1124.3139">Verification</text><text fill="#0F172A" font-family="sans-serif" font-size="14" lengthAdjust="spacing" textLength="241.7511" x="1697.194" y="1143.3818">render diagrams after puml changes</text><text fill="#0F172A" font-family="sans-serif" font-size="14" lengthAdjust="spacing" textLength="262.219" x="1686.96" y="1162.4497">run targeted Agda for touched modules</text><text fill="#0F172A" font-family="sans-serif" font-size="14" lengthAdjust="spacing" textLength="149.7434" x="1743.1978" y="1181.5176">git diff --check for docs</text></g><g class="entity" data-qualified-name="GMN53" data-source-line="94" id="ent0054"><path d="M397.61,55.0679 L397.61,117.892 A9,9 0 0 0 406.61,126.892 L639.2552,126.892 A9,9 0 0 0 648.2552,117.892 L648.2552,56.0679 L638.2552,46.0679 L406.61,46.0679 A9,9 0 0 0 397.61,55.0679" fill="#FFF7ED" style="stroke:#C2410C;stroke-width:0.5;"/><path d="M638.2552,46.0679 L638.2552,51.5679 A4.5,4.5 0 0 0 642.7552,56.0679 L648.2552,56.0679 L638.2552,46.0679" fill="#FFF7ED" style="stroke:#C2410C;stroke-width:1;"/><text fill="#7C2D12" font-family="sans-serif" font-size="13" lengthAdjust="spacing" textLength="168.5712" x="434.147" y="64.9649">This map coordinates work.</text><text fill="#7C2D12" font-family="sans-serif" font-size="13" lengthAdjust="spacing" textLength="206.3882" x="415.2385" y="82.6709">It does not discharge any blocker.</text><text fill="#7C2D12" font-family="sans-serif" font-size="13" lengthAdjust="spacing" textLength="229.6452" x="403.61" y="100.377">Each lane still needs its own theorem,</text><text fill="#7C2D12" font-family="sans-serif" font-size="13" lengthAdjust="spacing" textLength="206.3492" x="415.258" y="118.083">receipt, validation, or obstruction.</text></g><!--link W0 to Board--><g class="link" data-entity-1="ent0003" data-entity-2="ent0004" data-link-type="dependency" data-source-line="61" id="lnk25"><path d="M260.19,906.6879 C308.83,905.5379 358.8817,904.35 406.6017,903.22" fill="none" id="W0-to-Board" style="stroke:#181818;stroke-width:2;"/><polygon fill="#181818" points="412.6,903.0779,403.5078,899.2921,407.6014,903.1963,403.6972,907.2899,412.6,903.0779" style="stroke:#181818;stroke-width:2;"/><text fill="#000000" font-family="sans-serif" font-size="13" lengthAdjust="spacing" textLength="60.4371" x="290.93" y="900.6049">maintains</text></g><!--link Board to W1--><g class="link" data-entity-1="ent0004" data-entity-2="ent0011" data-link-type="dependency" data-source-line="62" id="lnk26"><path d="M544.56,861.8279 C576.72,804.9779 643.96,698.8179 728.36,636.4779 C742.52,626.0279 753.107,619.5925 769.557,611.9625" fill="none" id="Board-to-W1" style="stroke:#181818;stroke-width:2;"/><polygon fill="#181818" points="775,609.4379,765.1524,609.5962,770.4642,611.5418,768.5186,616.8535,775,609.4379" style="stroke:#181818;stroke-width:2;"/></g><!--link Board to W2--><g class="link" data-entity-1="ent0004" data-entity-2="ent0012" data-link-type="dependency" data-source-line="63" id="lnk27"><path d="M576.68,861.5979 C616.88,833.1279 674.34,794.8279 728.36,767.4779 C739.64,761.7779 746.032,758.6574 758.092,753.4474" fill="none" id="Board-to-W2" style="stroke:#181818;stroke-width:2;"/><polygon fill="#181818" points="763.6,751.0679,753.7517,750.9652,759.01,753.0508,756.9243,758.3092,763.6,751.0679" style="stroke:#181818;stroke-width:2;"/></g><!--link Board to W3--><g class="link" data-entity-1="ent0004" data-entity-2="ent0013" data-link-type="dependency" data-source-line="64" id="lnk28"><path d="M549.57,861.4079 C590.98,796.7279 672.71,662.2679 720.36,538.4779 C725.78,524.3979 716.5,514.8079 728.36,505.4779 C825,429.4779 1196.98,454.0179 1280.24,544.4779 C1294.29,559.7479 1275.71,620.9479 1288.24,637.4779 C1298.21,650.6379 1305.989,658.1118 1320.319,666.4818" fill="none" id="Board-to-W3" style="stroke:#181818;stroke-width:2;"/><polygon fill="#181818" points="1325.5,669.5079,1319.746,661.5147,1321.1825,666.9861,1315.7111,668.4227,1325.5,669.5079" style="stroke:#181818;stroke-width:2;"/></g><!--link Board to W4--><g class="link" data-entity-1="ent0004" data-entity-2="ent0014" data-link-type="dependency" data-source-line="65" id="lnk29"><path d="M547.81,861.7979 C579.99,807.6979 636.51,705.4079 664.93,610.4779 C675.53,575.0579 658.58,469.8879 686.36,445.4779 C885.48,270.5479 1224.0537,431.1682 1377.7237,519.8782" fill="none" id="Board-to-W4" style="stroke:#181818;stroke-width:2;"/><polygon fill="#181818" points="1382.92,522.8779,1377.1253,514.9141,1378.5897,520.3782,1373.1257,521.8426,1382.92,522.8779" style="stroke:#181818;stroke-width:2;"/></g><!--link Board to W5--><g class="link" data-entity-1="ent0004" data-entity-2="ent0015" data-link-type="dependency" data-source-line="66" id="lnk30"><path d="M578.51,939.5679 C618.68,967.2279 675.31,1003.9679 728.36,1030.4779 C739.81,1036.1979 746.3758,1039.3528 758.6158,1044.6028" fill="none" id="Board-to-W5" style="stroke:#181818;stroke-width:2;"/><polygon fill="#181818" points="764.13,1046.9679,757.4355,1039.7441,759.5349,1044.997,754.282,1047.0963,764.13,1046.9679" style="stroke:#181818;stroke-width:2;"/></g><!--link Board to W6--><g class="link" data-entity-1="ent0004" data-entity-2="ent0019" data-link-type="dependency" data-source-line="67" id="lnk31"><path d="M542.45,939.2979 C572.54,997.7279 637.94,1107.0079 728.36,1159.4779 C923.21,1272.5479 1188.3733,1282.5977 1340.2533,1277.5377" fill="none" id="Board-to-W6" style="stroke:#181818;stroke-width:2;"/><polygon fill="#181818" points="1346.25,1277.3379,1337.1218,1273.6398,1341.2528,1277.5044,1337.3882,1281.6354,1346.25,1277.3379" style="stroke:#181818;stroke-width:2;"/></g><!--link Board to W7--><g class="link" data-entity-1="ent0004" data-entity-2="ent0020" data-link-type="dependency" data-source-line="68" id="lnk32"><path d="M533.61,939.3579 C554.8,1015.8579 612.9,1185.7379 728.36,1269.4779 C900.34,1394.2179 1146.69,1416.9877 1305.85,1417.2577" fill="none" id="Board-to-W7" style="stroke:#181818;stroke-width:2;"/><polygon fill="#181818" points="1311.85,1417.2679,1302.8568,1413.2527,1306.85,1417.2594,1302.8432,1421.2526,1311.85,1417.2679" style="stroke:#181818;stroke-width:2;"/></g><!--link Board to W8--><g class="link" data-entity-1="ent0004" data-entity-2="ent0016" data-link-type="dependency" data-source-line="69" id="lnk33"><path d="M633.19,881.0579 C670.68,874.3879 707.3828,867.8689 747.4028,860.7489" fill="none" id="Board-to-W8" style="stroke:#181818;stroke-width:2;"/><polygon fill="#181818" points="753.31,859.6979,743.7485,857.3362,748.3873,860.5737,745.1498,865.2125,753.31,859.6979" style="stroke:#181818;stroke-width:2;"/></g><!--link Board to W9--><g class="link" data-entity-1="ent0004" data-entity-2="ent0017" data-link-type="dependency" data-source-line="70" id="lnk34"><path d="M633.19,919.0379 C670.25,925.3279 706.3847,931.4631 746.0047,938.1931" fill="none" id="Board-to-W9" style="stroke:#181818;stroke-width:2;"/><polygon fill="#181818" points="751.92,939.1979,743.717,933.7472,746.9906,938.3606,742.3772,941.6342,751.92,939.1979" style="stroke:#181818;stroke-width:2;"/></g><!--link A_W1 to W1--><g class="link" data-entity-1="ent0006" data-entity-2="ent0011" data-link-type="dependency" data-source-line="72" id="lnk35"><path d="M579.13,450.4879 C619.06,456.4979 673.94,466.7279 720.36,482.4779 C751.95,493.1979 779.7256,505.6004 808.8556,520.3304" fill="none" id="A_W1-to-W1" style="stroke:#181818;stroke-width:2;"/><polygon fill="#181818" points="814.21,523.0379,807.9834,515.4071,809.748,520.7817,804.3734,522.5462,814.21,523.0379" style="stroke:#181818;stroke-width:2;"/><text fill="#000000" font-family="sans-serif" font-size="13" lengthAdjust="spacing" textLength="32.344" x="687.36" y="468.8549">owns</text></g><!--link A_W2 to W2--><g class="link" data-entity-1="ent0007" data-entity-2="ent0012" data-link-type="dependency" data-source-line="73" id="lnk36"><path d="M586.43,580.9479 C626.83,597.3079 680.61,618.9079 728.36,637.4779 C742.23,642.8779 751.1323,646.324 765.6123,651.834" fill="none" id="A_W2-to-W2" style="stroke:#181818;stroke-width:2;"/><polygon fill="#181818" points="771.22,653.9679,764.231,647.0286,766.5469,652.1897,761.3858,654.5056,771.22,653.9679" style="stroke:#181818;stroke-width:2;"/><text fill="#000000" font-family="sans-serif" font-size="13" lengthAdjust="spacing" textLength="32.344" x="687.36" y="617.9849">owns</text></g><!--link A_W3 to W3--><g class="link" data-entity-1="ent0008" data-entity-2="ent0013" data-link-type="dependency" data-source-line="74" id="lnk37"><path d="M599.34,341.1379 C781.83,365.2579 1235.58,429.8479 1280.24,481.4779 C1302.95,507.7379 1267.76,609.4579 1288.24,637.4779 C1298.08,650.9379 1305.874,658.5833 1320.304,667.0433" fill="none" id="A_W3-to-W3" style="stroke:#181818;stroke-width:2;"/><polygon fill="#181818" points="1325.48,670.0779,1319.739,662.0753,1321.1666,667.5491,1315.6929,668.9767,1325.48,670.0779" style="stroke:#181818;stroke-width:2;"/><text fill="#000000" font-family="sans-serif" font-size="13" lengthAdjust="spacing" textLength="32.344" x="885.8" y="354.9449">owns</text></g><!--link A_W4 to W4--><g class="link" data-entity-1="ent0009" data-entity-2="ent0014" data-link-type="dependency" data-source-line="75" id="lnk38"><path d="M578.78,219.8779 C676.12,221.9779 884.52,232.7379 1051.24,284.4779 C1160.79,318.4779 1186.48,337.4079 1280.24,403.4779 C1330.51,438.9079 1377.0611,483.1122 1411.9511,518.8922" fill="none" id="A_W4-to-W4" style="stroke:#181818;stroke-width:2;"/><polygon fill="#181818" points="1416.14,523.1879,1412.7205,513.9517,1412.6493,519.6081,1406.9929,519.5369,1416.14,523.1879" style="stroke:#181818;stroke-width:2;"/><text fill="#000000" font-family="sans-serif" font-size="13" lengthAdjust="spacing" textLength="32.344" x="885.8" y="223.8449">owns</text></g><!--link W1 to W3--><g class="link" data-entity-1="ent0011" data-entity-2="ent0013" data-link-type="dependency" data-source-line="76" id="lnk39"><path d="M1028.79,601.0479 C1117.07,621.7579 1229.1186,648.0474 1319.4786,669.2474" fill="none" id="W1-to-W3" style="stroke:#181818;stroke-width:2;"/><polygon fill="#181818" points="1325.32,670.6179,1317.4716,664.6679,1320.4522,669.4758,1315.6443,672.4564,1325.32,670.6179" style="stroke:#181818;stroke-width:2;"/><text fill="#000000" font-family="sans-serif" font-size="13" lengthAdjust="spacing" textLength="118.6251" x="1121.74" y="609.7549">carrier dependency</text></g><!--link W1 to W4--><g class="link" data-entity-1="ent0011" data-entity-2="ent0014" data-link-type="dependency" data-source-line="77" id="lnk40"><path d="M1028.79,571.4779 C1125.76,571.4779 1252.43,571.4779 1345.14,571.4779" fill="none" id="W1-to-W4" style="stroke:#181818;stroke-width:2;"/><polygon fill="#181818" points="1351.14,571.4779,1342.14,567.4779,1346.14,571.4779,1342.14,575.4779,1351.14,571.4779" style="stroke:#181818;stroke-width:2;"/><text fill="#000000" font-family="sans-serif" font-size="13" lengthAdjust="spacing" textLength="118.6251" x="1121.74" y="567.3749">carrier dependency</text></g><!--link W2 to W3--><g class="link" data-entity-1="ent0012" data-entity-2="ent0013" data-link-type="dependency" data-source-line="78" id="lnk41"><path d="M1051.68,702.4779 C1136.8,702.4779 1236.74,702.4779 1319.54,702.4779" fill="none" id="W2-to-W3" style="stroke:#181818;stroke-width:2;"/><polygon fill="#181818" points="1325.54,702.4779,1316.54,698.4779,1320.54,702.4779,1316.54,706.4779,1325.54,702.4779" style="stroke:#181818;stroke-width:2;"/><text fill="#000000" font-family="sans-serif" font-size="13" lengthAdjust="spacing" textLength="197.3271" x="1082.24" y="698.3749">convergence affects checkability</text></g><!--link W1 to RuleNoProse--><g class="link" data-entity-1="ent0011" data-entity-2="ent0022" data-link-type="dependency" data-source-line="80" id="lnk42"><path d="M1028.68,617.6379 C1036.83,623.2579 1044.47,629.5279 1051.24,636.4779 C1075.99,661.9179 1055.07,686.5079 1081.24,710.4779 C1271.4,884.6379 1406.15,763.5279 1635.96,880.4779 C1682.04,903.9279 1723.967,935.3292 1758.327,964.0592" fill="none" id="W1-to-RuleNoProse" style="stroke:#181818;stroke-width:2;"/><polygon fill="#181818" points="1762.93,967.9079,1758.5914,959.0662,1759.0942,964.7006,1753.4597,965.2034,1762.93,967.9079" style="stroke:#181818;stroke-width:2;"/></g><!--link W2 to RuleNoProse--><g class="link" data-entity-1="ent0012" data-entity-2="ent0022" data-link-type="dependency" data-source-line="81" id="lnk43"><path d="M1031.03,751.0779 C1038.24,756.0779 1045.06,761.5279 1051.24,767.4779 C1073.29,788.7079 1056.83,811.0179 1081.24,829.4779 C1181.08,904.9879 1516.97,888.5979 1635.96,927.4779 C1667.93,937.9279 1696.0344,950.3528 1725.3744,965.1728" fill="none" id="W2-to-RuleNoProse" style="stroke:#181818;stroke-width:2;"/><polygon fill="#181818" points="1730.73,967.8779,1724.5001,960.2498,1726.267,965.6236,1720.8932,967.3905,1730.73,967.8779" style="stroke:#181818;stroke-width:2;"/></g><!--link W3 to RuleNoProse--><g class="link" data-entity-1="ent0013" data-entity-2="ent0022" data-link-type="dependency" data-source-line="82" id="lnk44"><path d="M1598.96,748.4779 C1615.25,756.8379 1631.03,766.4679 1644.96,777.4779 C1711.55,830.1179 1761.2958,909.7103 1790.0458,962.8703" fill="none" id="W3-to-RuleNoProse" style="stroke:#181818;stroke-width:2;"/><polygon fill="#181818" points="1792.9,968.1479,1792.137,958.3287,1790.5215,963.7499,1785.1002,962.1343,1792.9,968.1479" style="stroke:#181818;stroke-width:2;"/></g><!--link W4 to RuleNoProse--><g class="link" data-entity-1="ent0014" data-entity-2="ent0022" data-link-type="dependency" data-source-line="83" id="lnk45"><path d="M1573.13,598.4379 C1595.78,607.7379 1618.13,620.1079 1635.96,636.4779 C1736.35,728.6679 1785.1401,882.3957 1805.0201,962.2257" fill="none" id="W4-to-RuleNoProse" style="stroke:#181818;stroke-width:2;"/><polygon fill="#181818" points="1806.47,968.0479,1808.1766,958.348,1805.2618,963.1961,1800.4137,960.2812,1806.47,968.0479" style="stroke:#181818;stroke-width:2;"/></g><!--link W5 to RuleNoProse--><g class="link" data-entity-1="ent0015" data-entity-2="ent0022" data-link-type="dependency" data-source-line="84" id="lnk46"><path d="M1041.66,1083.4779 C1215.5,1068.4579 1505.2723,1043.4245 1676.8923,1028.5945" fill="none" id="W5-to-RuleNoProse" style="stroke:#181818;stroke-width:2;"/><polygon fill="#181818" points="1682.87,1028.0779,1673.5591,1024.8676,1677.8886,1028.5084,1674.2478,1032.8379,1682.87,1028.0779" style="stroke:#181818;stroke-width:2;"/></g><!--link W6 to RuleNoProse--><g class="link" data-entity-1="ent0019" data-entity-2="ent0022" data-link-type="dependency" data-source-line="85" id="lnk47"><path d="M1568.28,1220.9979 C1593.79,1204.7279 1618.66,1184.2779 1635.96,1159.4779 C1637.23,1157.6579 1651.52,1083.1679 1652.96,1081.4779 C1661.49,1071.4379 1666.7403,1066.1784 1677.9603,1058.9784" fill="none" id="W6-to-RuleNoProse" style="stroke:#181818;stroke-width:2;"/><polygon fill="#181818" points="1683.01,1055.7379,1673.2751,1057.2321,1678.8019,1058.4383,1677.5957,1063.9651,1683.01,1055.7379" style="stroke:#181818;stroke-width:2;"/></g><!--link W7 to RuleNoProse--><g class="link" data-entity-1="ent0020" data-entity-2="ent0022" data-link-type="dependency" data-source-line="86" id="lnk48"><path d="M1612.4,1360.2279 C1621.34,1353.0379 1629.36,1344.8379 1635.96,1335.4779 C1652.26,1312.3679 1636.29,1104.3279 1652.96,1081.4779 C1661.09,1070.3379 1666.4317,1064.4271 1677.9517,1056.7771" fill="none" id="W7-to-RuleNoProse" style="stroke:#181818;stroke-width:2;"/><polygon fill="#181818" points="1682.95,1053.4579,1673.2398,1055.1045,1678.7847,1056.2239,1677.6653,1061.7689,1682.95,1053.4579" style="stroke:#181818;stroke-width:2;"/></g><!--link W8 to RuleNoProse--><g class="link" data-entity-1="ent0016" data-entity-2="ent0022" data-link-type="dependency" data-source-line="87" id="lnk49"><path d="M1020.6,882.1079 C1040.59,889.0879 1061.32,895.5579 1081.24,900.4779 C1322.48,960.1179 1391.8,924.2479 1635.96,970.4779 C1651.26,973.3779 1661.3452,975.4523 1677.1252,979.1123" fill="none" id="W8-to-RuleNoProse" style="stroke:#181818;stroke-width:2;"/><polygon fill="#181818" points="1682.97,980.4679,1675.1065,974.5379,1678.0993,979.3382,1673.299,982.331,1682.97,980.4679" style="stroke:#181818;stroke-width:2;"/></g><!--link W9 to RuleNoProse--><g class="link" data-entity-1="ent0017" data-entity-2="ent0022" data-link-type="dependency" data-source-line="88" id="lnk50"><path d="M1051.73,972.9479 C1226.68,982.8979 1508.3597,998.9275 1676.7397,1008.4975" fill="none" id="W9-to-RuleNoProse" style="stroke:#181818;stroke-width:2;"/><polygon fill="#181818" points="1682.73,1008.8379,1673.9715,1004.3337,1677.7381,1008.5542,1673.5175,1012.3208,1682.73,1008.8379" style="stroke:#181818;stroke-width:2;"/></g><!--link W0 to RuleDisjoint--><g class="link" data-entity-1="ent0003" data-entity-2="ent0023" data-link-type="dependency" data-source-line="90" id="lnk51"><path d="M145.78,957.7879 C154.62,1057.8379 185.76,1291.8679 289.93,1453.4779 C355.05,1554.5179 401.73,1592.4779 521.93,1592.4779 C521.93,1592.4779 521.93,1592.4779 1463.1,1592.4779 C1542.49,1592.4779 1571.54,1593.8679 1635.96,1547.4779 C1721.97,1485.5479 1775.6398,1374.5859 1800.2998,1313.9459" fill="none" id="W0-to-RuleDisjoint" style="stroke:#181818;stroke-width:2;"/><polygon fill="#181818" points="1802.56,1308.3879,1795.4643,1315.2181,1800.6765,1313.0196,1802.875,1318.2317,1802.56,1308.3879" style="stroke:#181818;stroke-width:2;"/></g><!--link W0 to RuleVerify--><g class="link" data-entity-1="ent0003" data-entity-2="ent0024" data-link-type="dependency" data-source-line="91" id="lnk52"><path d="M148.83,958.0179 C170.79,1102.7679 257.21,1521.4779 521.93,1521.4779 C521.93,1521.4779 521.93,1521.4779 1463.1,1521.4779 C1541.67,1521.4779 1584.67,1543.9979 1635.96,1484.4779 C1655.66,1461.6279 1635.29,1237.9379 1652.96,1213.4779 C1659.52,1204.3979 1662.7642,1200.1767 1671.7042,1193.4167" fill="none" id="W0-to-RuleVerify" style="stroke:#181818;stroke-width:2;"/><polygon fill="#181818" points="1676.49,1189.7979,1666.8987,1192.0356,1672.5018,1192.8136,1671.7238,1198.4167,1676.49,1189.7979" style="stroke:#181818;stroke-width:2;"/></g><!--link Board to GMN53--><g class="link" data-entity-1="ent0004" data-entity-2="ent0054" data-link-type="association" data-source-line="94" id="lnk55"><path d="M486.35,861.6479 C437.49,806.8279 353.32,701.2979 320.93,592.9779 C268.59,417.9779 223.19,336.2979 320.93,181.9779 C338.73,153.8779 367.27,133.8879 397.35,119.7279" fill="none" id="Board-GMN53" style="stroke:#181818;stroke-width:2;stroke-dasharray:7,7;"/></g><?plantuml-src dLVVJoCt47xVlyAwUsdLB26RX03ILGBkg91wGBcel4Ig7Aztu-ArjxONBghwl_UpzqSS0dqe4Y4UUsO-ptmpOvnmafD7RPwu8LTQcrmeweHMv2kjoRKsvAxcYbnApN329f8NZZXDZ2WtZkJ2SEPF9ubz4ggcXbR4RcYkNuGgIK6bvT6EqOtAcJOAlYQdqKPDsHCj-JUt1HXlagfInfeNnkYNvKQm9yMj9LcqbVE2Dj8j-NTt8KMfAguSOVZW9ZbqGVvE2Bd4zpA0kT8IL_nOd1QqO7u70U2caqwdiyby3kcrLgwJ7HUJHKQJVsBJ0-1tZ8UV_sjSQVU-tGNFNzjbsMnopFRjBbYMJp9lju_2XxrKCnmrMdu8VdQt-V1uJEuCst3h37KmD2O2OIt3OgNqYxB4ROGbQqrDFW8RQEaXlmY3x8zMQddt-MxCDh36fIv7v9aRKGWMdAwKTTGrzXpU8oXQoUq7GYs1xu_vcjE2ly8Kg1h3l_JUZweS5aKuWo0vJp_Rc88olbAIAauSNMFl9r9Insrm4HJXXHMCB_QYSm5IFtESiJsXGk19TfoTfCVpz7Xs4Ail9jTsfHudX0RbbVhw-TVnrGEnd5R1tSKVsFnOvFpabExhNcejeV2O3RfrDaPI4A-IAyPxzUnjzIMtaa9zEgZpgaOE69KX9qfR9rXlPFgsaNij5AF6mvWDTf3xIY3xMoBfIszWDXY8GtP_32vmRNW5cgoDo25STrtZa5WJqaK7BetWO9FYF3ydLmzf8Qa3wm467-4EZY8C3eGpXFeAvtcl5iYbk5ofP-paFhFdtN4SWeiGVN9HvhGbbKy0PvIzkZmYUmio6ZWRaph3HnJz7bkjhGYqm87kWa2aruXFmrfArxAniMgAKk5zNDu6gLg_utohQ2MOZS1cxu2TaYz3VcdE_sees_OW0UU7GdpdkS-d-v5y8WCNGW1h61AMzm5CaTwAEhQ9YBA7SyUaxieUtZZNh2sXmAQtCCx8LSoT7fxTLXLtCEWpZB_F0fR3VkEBbrnHbGVNsVm4VSJvRh-7PyV8NPncxs2OaryUnhzTBtr6R5FjM0R_6uoWt7SmPpn3TYSG8pW8O9gwsyN2y5oW3-nXUV8jC9MY4iwEUmiHhhd7LKpPuXMkKtHLKGhbXLpKheV5T8g2eIxYTqNhiUzhPQ097rWo7lA28bhk34NeEbd0uudgS-R3nvvQTAVle3lpIM1Soj1SKn36ef7oK4azqbnOL9vfAy3mMeOs6-lTTsfNkgeXM0ift1PwrQV9V0zcpgMZgTCfQ9oZN42DNGJF1enngxdnirtN15mXfKQjAU_uFxhD2RbPtZoWgkzlhm_9qCOfnQpnOolUrw3ccaiCk2quO6lUbNa4NtHONfN5oJl1NP0hIKKLmLwf3PvIgCIsZI1a8yACjZQro2uVUPYDqO7t48o8G-gryTyi8iATgFoXYc8iOannYh5OMdofA1XMDXXnFD-376I62jbIuYVq37JLTlpkGhzuC_JVa7NGipQwqa71D98VHlnM-oDeCyF1bOBUU0jww9Ts19CACGZp7k75BMa5m_q8GM5nWxjkQmYx38r2SVBljHHCEF96vmh87u3eLjy7zxW2ptYs3-wpi7_wvjWwiHjHmp0U2E6LKAE2Ny8J8-I_0MmPAX9FNRTDqGyuGIjmTl0rc7lJsUzxJnx3LUuRJ_jGieGMO0-fcqgIzfc4PcSQjPiEeNWBNDlf1XJ84RJSHtobIk6VtqL1qZGKTJWr4D032wwt0ooa4M-gDFsvU_US4yyGXr-Rj1A_zpY95rcycCQBMRoOnukJUB685wVnuYn9meEeTGeqlXaduP7Jkev4qmv099frC7fHRycVwPedMaljuwtOTjYUlRETHTgxyOtyOB2uhctIjeablR68QBs1FT7qK3Gx5CqFHIU7eiMXwFHGT7OWwbCU4pMMjHn9al1Vnbexfr5xHSkGPEdVzfX0knSwgjONnr5o0_9fhA0N3GEgjdqNFag-KDHcg2cKffJ4TrjBK3a-ONsXZvA-k4dNeL0derVlggC4UGh_22N_0W00?></g></svg>