<svg xmlns="http://www.w3.org/2000/svg" xmlns:xlink="http://www.w3.org/1999/xlink" width="1700" height="880" viewBox="0 0 1700 880">
<defs>
 <linearGradient id="bg" x1="0" y1="0" x2="1" y2="1"><stop stop-color="#061321"/><stop offset="1" stop-color="#14102B"/></linearGradient>
 <filter id="glow"><feGaussianBlur stdDeviation="5" result="b"/><feMerge><feMergeNode in="b"/><feMergeNode in="SourceGraphic"/></feMerge></filter>
 <style>text{font-family:Inter,Arial,sans-serif}.title{fill:#F4FAFF;font-weight:700}.sub{fill:#9DBAD3}.mono{fill:#7298B7;font-family:monospace}.strand{fill:none;stroke-linecap:round;stroke-width:10;opacity:.86}.under{fill:none;stroke:#061321;stroke-width:20;stroke-linecap:round}.cell{fill:#0B2139;stroke-width:2}.open{stroke-dasharray:9 7}@keyframes move{to{stroke-dashoffset:-42}}.moving{stroke-dasharray:13 9;animation:move 7s linear infinite}</style>
</defs><rect width="100%" height="100%" fill="url(#bg)"/>
<text x="70" y="58" class="title" font-size="38">DASHI YANG–MILLS BETA / RG HYPERFABRIC</text>
<text x="70" y="88" class="sub" font-size="16">Transport is proof/dependency flow; graph degree generates strand splits and merges. Open analytic endpoints remain loose.</text>
<path id="path-0" d="M 208,165.5 C 263,165.5 227,310.5 282,310.5" fill="none" stroke="none"/><path d="M 208,165.5 C 263,165.5 227,310.5 282,310.5" class="under"/><path d="M 208,165.5 C 263,165.5 227,310.5 282,310.5" class="strand moving" stroke="#48D597"/>
<path id="path-1" d="M 208,310.5 C 281,310.5 209,165.5 282,165.5" fill="none" stroke="none"/><path d="M 208,310.5 C 281,310.5 209,165.5 282,165.5" class="under"/><path d="M 208,310.5 C 281,310.5 209,165.5 282,165.5" class="strand moving" stroke="#48D597"/>
<path id="path-2" d="M 208,165.5 C 299,165.5 441,238.0 532,238.0" fill="none" stroke="none"/><path d="M 208,165.5 C 299,165.5 441,238.0 532,238.0" class="under"/><path d="M 208,165.5 C 299,165.5 441,238.0 532,238.0" class="strand moving" stroke="#48D597"/>
<path id="path-3" d="M 458,165.5 C 513,165.5 477,238.0 532,238.0" fill="none" stroke="none"/><path d="M 458,165.5 C 513,165.5 477,238.0 532,238.0" class="under"/><path d="M 458,165.5 C 513,165.5 477,238.0 532,238.0" class="strand moving" stroke="#48D597"/>
<path id="path-4" d="M 208,310.5 C 281,310.5 459,238.0 532,238.0" fill="none" stroke="none"/><path d="M 208,310.5 C 281,310.5 459,238.0 532,238.0" class="under"/><path d="M 208,310.5 C 281,310.5 459,238.0 532,238.0" class="strand moving" stroke="#48D597"/>
<path id="path-5" d="M 708,238.0 C 799,238.0 691,238.0 782,238.0" fill="none" stroke="none"/><path d="M 708,238.0 C 799,238.0 691,238.0 782,238.0" class="under"/><path d="M 708,238.0 C 799,238.0 691,238.0 782,238.0" class="strand moving" stroke="#48D597"/>
<path id="path-6" d="M 958,238.0 C 1013,238.0 977,238.0 1032,238.0" fill="none" stroke="none"/><path d="M 958,238.0 C 1013,238.0 977,238.0 1032,238.0" class="under"/><path d="M 958,238.0 C 1013,238.0 977,238.0 1032,238.0" class="strand moving" stroke="#43C6E8"/>
<path id="path-7" d="M 458,310.5 C 531,310.5 959,238.0 1032,238.0" fill="none" stroke="none"/><path d="M 458,310.5 C 531,310.5 959,238.0 1032,238.0" class="under"/><path d="M 458,310.5 C 531,310.5 959,238.0 1032,238.0" class="strand moving" stroke="#48D597"/>
<path id="path-8" d="M 1208,238.0 C 1299,238.0 1191,238.0 1282,238.0" fill="none" stroke="none"/><path d="M 1208,238.0 C 1299,238.0 1191,238.0 1282,238.0" class="under"/><path d="M 1208,238.0 C 1299,238.0 1191,238.0 1282,238.0" class="strand moving" stroke="#43C6E8"/>
<path id="path-9" d="M 1458,238.0 C 1513,238.0 1477,238.0 1532,238.0" fill="none" stroke="none"/><path d="M 1458,238.0 C 1513,238.0 1477,238.0 1532,238.0" class="under"/><path d="M 1458,238.0 C 1513,238.0 1477,238.0 1532,238.0" class="strand moving" stroke="#43C6E8"/>
<circle r="6" fill="#48D597" filter="url(#glow)"><animateMotion dur="5.0s" begin="0.00s" repeatCount="indefinite"><mpath href="#path-0" xlink:href="#path-0"/></animateMotion></circle>
<circle r="6" fill="#48D597" filter="url(#glow)"><animateMotion dur="6.0s" begin="0.35s" repeatCount="indefinite"><mpath href="#path-1" xlink:href="#path-1"/></animateMotion></circle>
<circle r="6" fill="#48D597" filter="url(#glow)"><animateMotion dur="7.0s" begin="0.70s" repeatCount="indefinite"><mpath href="#path-2" xlink:href="#path-2"/></animateMotion></circle>
<circle r="6" fill="#48D597" filter="url(#glow)"><animateMotion dur="8.0s" begin="1.05s" repeatCount="indefinite"><mpath href="#path-3" xlink:href="#path-3"/></animateMotion></circle>
<circle r="6" fill="#48D597" filter="url(#glow)"><animateMotion dur="5.0s" begin="1.40s" repeatCount="indefinite"><mpath href="#path-4" xlink:href="#path-4"/></animateMotion></circle>
<circle r="6" fill="#48D597" filter="url(#glow)"><animateMotion dur="6.0s" begin="1.75s" repeatCount="indefinite"><mpath href="#path-5" xlink:href="#path-5"/></animateMotion></circle>
<circle r="6" fill="#43C6E8" filter="url(#glow)"><animateMotion dur="7.0s" begin="2.10s" repeatCount="indefinite"><mpath href="#path-6" xlink:href="#path-6"/></animateMotion></circle>
<circle r="6" fill="#48D597" filter="url(#glow)"><animateMotion dur="8.0s" begin="2.45s" repeatCount="indefinite"><mpath href="#path-7" xlink:href="#path-7"/></animateMotion></circle>
<circle r="6" fill="#43C6E8" filter="url(#glow)"><animateMotion dur="5.0s" begin="2.80s" repeatCount="indefinite"><mpath href="#path-8" xlink:href="#path-8"/></animateMotion></circle>
<circle r="6" fill="#43C6E8" filter="url(#glow)"><animateMotion dur="6.0s" begin="3.15s" repeatCount="indefinite"><mpath href="#path-9" xlink:href="#path-9"/></animateMotion></circle>
<rect class="cell" x="32" y="117.5" width="176" height="96" rx="20" stroke="#48D597"/><text x="120" y="153.5" text-anchor="middle" class="title" font-size="15">Cumulative beta correc…</text><text x="120" y="175.5" text-anchor="middle" class="sub" font-size="11">beta lane</text><text x="120" y="195.5" text-anchor="middle" font-size="11" fill="#48D597">proved</text><text x="120" y="232.5" text-anchor="middle" class="sub" font-size="11">split × 2</text>
<rect class="cell" x="282" y="262.5" width="176" height="96" rx="20" stroke="#48D597"/><text x="370" y="298.5" text-anchor="middle" class="title" font-size="15">Inverse-square telescope</text><text x="370" y="320.5" text-anchor="middle" class="sub" font-size="11">coupling budget</text><text x="370" y="340.5" text-anchor="middle" font-size="11" fill="#48D597">proved</text>
<rect class="cell" x="32" y="262.5" width="176" height="96" rx="20" stroke="#48D597"/><text x="120" y="298.5" text-anchor="middle" class="title" font-size="15">Gaussian / interaction…</text><text x="120" y="320.5" text-anchor="middle" class="sub" font-size="11">endpoint bridge</text><text x="120" y="340.5" text-anchor="middle" font-size="11" fill="#48D597">proved</text><text x="120" y="377.5" text-anchor="middle" class="sub" font-size="11">split × 2</text>
<rect class="cell" x="282" y="117.5" width="176" height="96" rx="20" stroke="#48D597"/><text x="370" y="153.5" text-anchor="middle" class="title" font-size="15">Endpoint shell telescope</text><text x="370" y="175.5" text-anchor="middle" class="sub" font-size="11">endpoint bridge</text><text x="370" y="195.5" text-anchor="middle" font-size="11" fill="#48D597">proved</text>
<rect class="cell" x="532" y="190.0" width="176" height="96" rx="20" stroke="#48D597"/><text x="620" y="226.0" text-anchor="middle" class="title" font-size="15">Endpoint beta identity</text><text x="620" y="248.0" text-anchor="middle" class="sub" font-size="11">beta prefix bridge</text><text x="620" y="268.0" text-anchor="middle" font-size="11" fill="#48D597">proved</text><text x="620" y="318.0" text-anchor="middle" class="sub" font-size="11">merge × 3</text>
<rect class="cell" x="782" y="190.0" width="176" height="96" rx="20" stroke="#43C6E8"/><text x="870" y="226.0" text-anchor="middle" class="title" font-size="15">Endpoint to beta-prefi…</text><text x="870" y="248.0" text-anchor="middle" class="sub" font-size="11">beta prefix bridge</text><text x="870" y="268.0" text-anchor="middle" font-size="11" fill="#43C6E8">proved_conditional</text>
<rect class="cell" x="1032" y="190.0" width="176" height="96" rx="20" stroke="#43C6E8"/><text x="1120" y="226.0" text-anchor="middle" class="title" font-size="15">Inverse-square threshold</text><text x="1120" y="248.0" text-anchor="middle" class="sub" font-size="11">coupling budget</text><text x="1120" y="268.0" text-anchor="middle" font-size="11" fill="#43C6E8">proved_conditional</text><text x="1120" y="318.0" text-anchor="middle" class="sub" font-size="11">merge × 2</text>
<rect class="cell" x="1282" y="190.0" width="176" height="96" rx="20" stroke="#43C6E8"/><text x="1370" y="226.0" text-anchor="middle" class="title" font-size="15">Bounded finite-cutoff …</text><text x="1370" y="248.0" text-anchor="middle" class="sub" font-size="11">coupling trajectory</text><text x="1370" y="268.0" text-anchor="middle" font-size="11" fill="#43C6E8">proved_conditional</text>
<rect class="cell" x="1532" y="190.0" width="176" height="96" rx="20" stroke="#43C6E8"/><text x="1620" y="226.0" text-anchor="middle" class="title" font-size="15">Cutoff-indexed tuned t…</text><text x="1620" y="248.0" text-anchor="middle" class="sub" font-size="11">coupling trajectory</text><text x="1620" y="268.0" text-anchor="middle" font-size="11" fill="#43C6E8">proved_conditional</text>
<text x="70" y="808" class="mono" font-size="11">Sources: DASHI/Physics/YangMills/BalabanEndpointDeterminantPrefixBridge.agda · DASHI/Physics/YangMills/BalabanInverseSquareCouplingBudget.agda</text>
<text x="70" y="833" class="sub" font-size="12">The animated fabric records the verified algebraic assembly and its named analytic inputs. It does not promote the four-dimensional Clay theorem.</text>
<text x="70" y="856" class="sub" font-size="12">No visual node exists without an Agda declaration or an actual qualified source reference in a selected declaration body.</text>
</svg>
