<svg xmlns="http://www.w3.org/2000/svg" width="1400" height="820" viewBox="0 0 1400 820">
<defs>
  <linearGradient id="bg" x1="0" y1="0" x2="1" y2="1"><stop stop-color="#071426"/><stop offset="1" stop-color="#0a1831"/></linearGradient>
  <filter id="glow"><feGaussianBlur stdDeviation="5" result="b"/><feMerge><feMergeNode in="b"/><feMergeNode in="SourceGraphic"/></feMerge></filter>
  <marker id="arrow" markerWidth="10" markerHeight="10" refX="9" refY="5" orient="auto"><path d="M0 0L10 5 0 10z" fill="#d8efff"/></marker>
  <style>
    text{font-family:Inter,Arial,sans-serif}.title{fill:#eef7ff;font-weight:700}.sub{fill:#94b6d6}.band{fill:#10294866;stroke:#24527f}.node{fill:#0c203b;stroke:#2b6da7;stroke-width:2}.thread{fill:none;stroke-width:4;stroke-linecap:round;stroke-dasharray:12 10;animation:dash 12s linear infinite}.alive{animation:breathe 5s ease-in-out infinite}@keyframes dash{to{stroke-dashoffset:-44}}@keyframes breathe{50%{opacity:.72}}
  </style>
</defs>
<rect width="1400" height="820" fill="url(#bg)"/>
<text x="55" y="54" class="title" font-size="34">DASHI HYPERFABRIC · OPERATOR TRANSPORT OVER TIME</text>
<text x="55" y="82" class="sub" font-size="16">Topology is generated by operators: transport crosses layers, refinement splits, collapse merges, and mismatch becomes residual.</text>

<g class="band"><rect x="45" y="110" width="1310" height="92" rx="18"/><rect x="45" y="220" width="1310" height="92" rx="18"/><rect x="45" y="330" width="1310" height="92" rx="18"/><rect x="45" y="440" width="1310" height="92" rx="18"/><rect x="45" y="550" width="1310" height="92" rx="18"/><rect x="45" y="660" width="1310" height="92" rx="18"/></g>
<g class="title" font-size="15" letter-spacing="2"><text x="65" y="138">NUCLEAR</text><text x="65" y="248">ELECTRONIC</text><text x="65" y="358">CHEMICAL</text><text x="65" y="468">EMPIRICAL</text><text x="65" y="578">BIOLOGICAL</text><text x="65" y="688">RESIDUAL</text></g>

<g fill="none" stroke-dasharray="9 8" stroke-width="2" opacity=".35"><rect x="55" y="95" width="820" height="240" rx="26" stroke="#4cd1ff"/><rect x="250" y="305" width="900" height="360" rx="26" stroke="#b46cff"/><rect x="55" y="415" width="1240" height="360" rx="26" stroke="#f9c74f"/></g>
<g class="sub" font-size="12"><text x="72" y="105">3-bundle · shared ultrametric prefix neighbourhood</text><text x="268" y="315">6-bundle · shared ultrametric prefix neighbourhood</text><text x="72" y="425">9-bundle · shared ultrametric prefix neighbourhood</text></g>

<path id="p1" d="M210 155 C360 118 500 118 650 155" class="thread" stroke="#4cd1ff" marker-end="url(#arrow)"/>
<path id="p2" d="M210 155 C245 240 255 310 300 375" class="thread" stroke="#9ad0ff" marker-end="url(#arrow)"/>
<path id="p3" d="M210 265 C330 250 430 250 540 265" class="thread" stroke="#b46cff" marker-end="url(#arrow)"/>
<path id="p4" d="M690 265 C835 300 930 290 1035 265" class="thread" stroke="#b46cff" marker-end="url(#arrow)"/>
<path id="p5" d="M430 375 C580 340 730 340 865 375" class="thread" stroke="#53e3a6" marker-end="url(#arrow)"/>
<path id="p6" d="M430 375 C520 455 565 535 650 595" class="thread" stroke="#ff7aa2" marker-end="url(#arrow)"/>
<path id="p7" d="M790 595 C930 610 1030 610 1135 595" class="thread" stroke="#ff7aa2" marker-end="url(#arrow)"/>
<path id="p8" d="M210 485 C340 520 430 510 540 485" class="thread" stroke="#f9c74f" marker-end="url(#arrow)"/>
<path id="p9" d="M690 485 C820 450 900 455 985 485" class="thread" stroke="#f9c74f" marker-end="url(#arrow)"/>
<path id="p10" d="M1135 485 C1170 540 1190 650 1230 705" class="thread" stroke="#ff6b6b" marker-end="url(#arrow)"/>
<path id="p11" d="M865 375 C960 455 1040 540 1135 595" class="thread" stroke="#53e3a6" marker-end="url(#arrow)"/>
<path id="p12" d="M1035 265 C1080 340 1090 420 1135 485" class="thread" stroke="#9ad0ff" marker-end="url(#arrow)"/>

<g class="title" font-size="11"><text x="415" y="128">β⁻ decay</text><text x="215" y="270">isotope enters chemistry</text><text x="345" y="248">excitation</text><text x="815" y="250">radiative emission</text><text x="620" y="350">photosynthesis / refinement</text><text x="500" y="485">uptake</text><text x="930" y="580">metabolic transport</text><text x="330" y="470">detector response</text><text x="800" y="468">reconstruction / collapse</text><text x="1175" y="600">systematic residual</text></g>

<g id="nodes" class="alive">
  <g transform="translate(95 130)"><rect class="node" width="115" height="50" rx="13"/><text x="14" y="22" class="title" font-size="15">C-14</text><text x="14" y="39" class="sub" font-size="11">isotope · addr 3</text></g>
  <g transform="translate(650 130)"><rect class="node" width="115" height="50" rx="13"/><text x="14" y="22" class="title" font-size="15">N-14</text><text x="14" y="39" class="sub" font-size="11">decay state · 3</text></g>
  <g transform="translate(95 240)"><rect class="node" width="115" height="50" rx="13"/><text x="14" y="22" class="title" font-size="15">C atom</text><text x="14" y="39" class="sub" font-size="11">carrier · addr 3</text></g>
  <g transform="translate(540 240)"><rect class="node" width="150" height="50" rx="13"/><text x="14" y="22" class="title" font-size="15">C*</text><text x="14" y="39" class="sub" font-size="11">excited state · 3</text></g>
  <g transform="translate(1035 240)"><rect class="node" width="150" height="50" rx="13"/><text x="14" y="22" class="title" font-size="15">spectral line</text><text x="14" y="39" class="sub" font-size="11">observable · 3</text></g>
  <g transform="translate(300 350)"><rect class="node" width="130" height="50" rx="13"/><text x="14" y="22" class="title" font-size="15">CO₂</text><text x="14" y="39" class="sub" font-size="11">carrier · addr 6</text></g>
  <g transform="translate(865 350)"><rect class="node" width="140" height="50" rx="13"/><text x="14" y="22" class="title" font-size="15">glucose</text><text x="14" y="39" class="sub" font-size="11">stored · addr 6</text></g>
  <g transform="translate(95 460)"><rect class="node" width="115" height="50" rx="13"/><text x="12" y="22" class="title" font-size="14">collision event</text><text x="12" y="39" class="sub" font-size="11">process · addr 9</text></g>
  <g transform="translate(540 460)"><rect class="node" width="150" height="50" rx="13"/><text x="14" y="22" class="title" font-size="15">tracker hits</text><text x="14" y="39" class="sub" font-size="11">response · addr 9</text></g>
  <g transform="translate(985 460)"><rect class="node" width="150" height="50" rx="13"/><text x="14" y="22" class="title" font-size="15">HEPData bin</text><text x="14" y="39" class="sub" font-size="11">contact · addr 9</text></g>
  <g transform="translate(650 570)"><rect class="node" width="140" height="50" rx="13"/><text x="14" y="22" class="title" font-size="15">leaf uptake</text><text x="14" y="39" class="sub" font-size="11">transport · 6</text></g>
  <g transform="translate(1135 570)"><rect class="node" width="155" height="50" rx="13"/><text x="14" y="22" class="title" font-size="15">bone collagen</text><text x="14" y="39" class="sub" font-size="11">bio state · 6</text></g>
  <g transform="translate(1230 680)"><rect class="node" width="125" height="50" rx="13"/><text x="14" y="22" class="title" font-size="15">residual</text><text x="14" y="39" class="sub" font-size="11">loose fibre · 9</text></g>
</g>

<g filter="url(#glow)">
  <circle r="5" fill="#4cd1ff"><animateMotion dur="8s" repeatCount="indefinite"><mpath href="#p1"/></animateMotion></circle>
  <circle r="5" fill="#9ad0ff"><animateMotion dur="7s" begin="1s" repeatCount="indefinite"><mpath href="#p2"/></animateMotion></circle>
  <circle r="5" fill="#b46cff"><animateMotion dur="6s" begin=".5s" repeatCount="indefinite"><mpath href="#p3"/></animateMotion></circle>
  <circle r="5" fill="#b46cff"><animateMotion dur="7s" begin="2s" repeatCount="indefinite"><mpath href="#p4"/></animateMotion></circle>
  <circle r="5" fill="#53e3a6"><animateMotion dur="8s" begin="1s" repeatCount="indefinite"><mpath href="#p5"/></animateMotion></circle>
  <circle r="5" fill="#ff7aa2"><animateMotion dur="7s" begin="2s" repeatCount="indefinite"><mpath href="#p6"/></animateMotion></circle>
  <circle r="5" fill="#f9c74f"><animateMotion dur="6s" repeatCount="indefinite"><mpath href="#p8"/></animateMotion></circle>
  <circle r="5" fill="#f9c74f"><animateMotion dur="6s" begin="1s" repeatCount="indefinite"><mpath href="#p9"/></animateMotion></circle>
  <circle r="5" fill="#ff6b6b"><animateMotion dur="6s" begin="3s" repeatCount="indefinite"><mpath href="#p10"/></animateMotion></circle>
</g>
<text x="55" y="792" class="sub" font-size="12">Generated by scripts/materialize_dashi_hyperfabric.py · animated transport paths are the topology; layers and 3/6/9 bundles are projections of the same hyperfabric.</text>
</svg>
