<svg xmlns="http://www.w3.org/2000/svg" xmlns:xlink="http://www.w3.org/1999/xlink" width="2090" height="880" viewBox="0 0 2090 880">
<defs>
 <linearGradient id="bg" x1="0" y1="0" x2="1" y2="1"><stop stop-color="#061321"/><stop offset="1" stop-color="#14102B"/></linearGradient>
 <filter id="glow"><feGaussianBlur stdDeviation="5" result="b"/><feMerge><feMergeNode in="b"/><feMergeNode in="SourceGraphic"/></feMerge></filter>
 <style>text{font-family:Inter,Arial,sans-serif}.title{fill:#F4FAFF;font-weight:700}.sub{fill:#9DBAD3}.mono{fill:#7298B7;font-family:monospace}.strand{fill:none;stroke-linecap:round;stroke-width:10;opacity:.86}.under{fill:none;stroke:#061321;stroke-width:20;stroke-linecap:round}.cell{fill:#0B2139;stroke-width:2}.open{stroke-dasharray:9 7}@keyframes move{to{stroke-dashoffset:-42}}.moving{stroke-dasharray:13 9;animation:move 7s linear infinite}</style>
</defs><rect width="100%" height="100%" fill="url(#bg)"/>
<text x="70" y="58" class="title" font-size="38">DASHI NAVIER–STOKES GATEWAY HYPERFABRIC</text>
<text x="70" y="88" class="sub" font-size="16">Transport is proof/dependency flow; graph degree generates strand splits and merges. Open analytic endpoints remain loose.</text>
<path id="path-0" d="M 458,209.0 C 513,209.0 477,426.5 532,426.5" fill="none" stroke="none"/><path d="M 458,209.0 C 513,209.0 477,426.5 532,426.5" class="under"/><path d="M 458,209.0 C 513,209.0 477,426.5 532,426.5" class="strand moving" stroke="#48D597"/>
<path id="path-1" d="M 458,354.0 C 531,354.0 459,426.5 532,426.5" fill="none" stroke="none"/><path d="M 458,354.0 C 531,354.0 459,426.5 532,426.5" class="under"/><path d="M 458,354.0 C 531,354.0 459,426.5 532,426.5" class="strand moving" stroke="#48D597"/>
<path id="path-2" d="M 458,499.0 C 549,499.0 441,426.5 532,426.5" fill="none" stroke="none"/><path d="M 458,499.0 C 549,499.0 441,426.5 532,426.5" class="under"/><path d="M 458,499.0 C 549,499.0 441,426.5 532,426.5" class="strand moving" stroke="#48D597"/>
<path id="path-3" d="M 708,426.5 C 763,426.5 727,354.0 782,354.0" fill="none" stroke="none"/><path d="M 708,426.5 C 763,426.5 727,354.0 782,354.0" class="under"/><path d="M 708,426.5 C 763,426.5 727,354.0 782,354.0" class="strand moving" stroke="#48D597"/>
<path id="path-4" d="M 958,354.0 C 1031,354.0 959,354.0 1032,354.0" fill="none" stroke="none"/><path d="M 958,354.0 C 1031,354.0 959,354.0 1032,354.0" class="under"/><path d="M 958,354.0 C 1031,354.0 959,354.0 1032,354.0" class="strand moving" stroke="#48D597"/>
<path id="path-5" d="M 1208,354.0 C 1299,354.0 1191,354.0 1282,354.0" fill="none" stroke="none"/><path d="M 1208,354.0 C 1299,354.0 1191,354.0 1282,354.0" class="under"/><path d="M 1208,354.0 C 1299,354.0 1191,354.0 1282,354.0" class="strand moving" stroke="#48D597"/>
<path id="path-6" d="M 458,354.0 C 513,354.0 477,281.5 532,281.5" fill="none" stroke="none"/><path d="M 458,354.0 C 513,354.0 477,281.5 532,281.5" class="under"/><path d="M 458,354.0 C 513,354.0 477,281.5 532,281.5" class="strand moving" stroke="#48D597"/>
<path id="path-7" d="M 458,499.0 C 531,499.0 459,281.5 532,281.5" fill="none" stroke="none"/><path d="M 458,499.0 C 531,499.0 459,281.5 532,281.5" class="under"/><path d="M 458,499.0 C 531,499.0 459,281.5 532,281.5" class="strand moving" stroke="#48D597"/>
<path id="path-8" d="M 708,281.5 C 799,281.5 1441,354.0 1532,354.0" fill="none" stroke="none"/><path d="M 708,281.5 C 799,281.5 1441,354.0 1532,354.0" class="under"/><path d="M 708,281.5 C 799,281.5 1441,354.0 1532,354.0" class="strand moving" stroke="#FF6B78"/>
<path id="path-9" d="M 1458,354.0 C 1513,354.0 1477,354.0 1532,354.0" fill="none" stroke="none"/><path d="M 1458,354.0 C 1513,354.0 1477,354.0 1532,354.0" class="under"/><path d="M 1458,354.0 C 1513,354.0 1477,354.0 1532,354.0" class="strand moving" stroke="#FF6B78"/>
<path id="path-10" d="M 708,281.5 C 781,281.5 1709,354.0 1782,354.0" fill="none" stroke="none"/><path d="M 708,281.5 C 781,281.5 1709,354.0 1782,354.0" class="under"/><path d="M 708,281.5 C 781,281.5 1709,354.0 1782,354.0" class="strand moving" stroke="#FF6B78"/>
<path id="path-11" d="M 458,209.0 C 549,209.0 1691,354.0 1782,354.0" fill="none" stroke="none"/><path d="M 458,209.0 C 549,209.0 1691,354.0 1782,354.0" class="under"/><path d="M 458,209.0 C 549,209.0 1691,354.0 1782,354.0" class="strand moving" stroke="#48D597"/>
<path id="path-12" d="M 458,354.0 C 513,354.0 1727,354.0 1782,354.0" fill="none" stroke="none"/><path d="M 458,354.0 C 513,354.0 1727,354.0 1782,354.0" class="under"/><path d="M 458,354.0 C 513,354.0 1727,354.0 1782,354.0" class="strand moving" stroke="#48D597"/>
<path id="path-13" d="M 458,499.0 C 531,499.0 1709,354.0 1782,354.0" fill="none" stroke="none"/><path d="M 458,499.0 C 531,499.0 1709,354.0 1782,354.0" class="under"/><path d="M 458,499.0 C 531,499.0 1709,354.0 1782,354.0" class="strand moving" stroke="#48D597"/>
<path id="path-14" d="M 1708,354.0 C 1799,354.0 1691,354.0 1782,354.0" fill="none" stroke="none"/><path d="M 1708,354.0 C 1799,354.0 1691,354.0 1782,354.0" class="under"/><path d="M 1708,354.0 C 1799,354.0 1691,354.0 1782,354.0" class="strand moving" stroke="#FF6B78"/>
<path id="path-15" d="M 1208,354.0 C 1263,354.0 1727,354.0 1782,354.0" fill="none" stroke="none"/><path d="M 1208,354.0 C 1263,354.0 1727,354.0 1782,354.0" class="under"/><path d="M 1208,354.0 C 1263,354.0 1727,354.0 1782,354.0" class="strand moving" stroke="#48D597"/>
<path id="path-16" d="M 958,354.0 C 1031,354.0 1709,354.0 1782,354.0" fill="none" stroke="none"/><path d="M 958,354.0 C 1031,354.0 1709,354.0 1782,354.0" class="under"/><path d="M 958,354.0 C 1031,354.0 1709,354.0 1782,354.0" class="strand moving" stroke="#48D597"/>
<path id="path-17" d="M 1458,354.0 C 1549,354.0 1691,354.0 1782,354.0" fill="none" stroke="none"/><path d="M 1458,354.0 C 1549,354.0 1691,354.0 1782,354.0" class="under"/><path d="M 1458,354.0 C 1549,354.0 1691,354.0 1782,354.0" class="strand moving" stroke="#FF6B78"/>
<path id="path-18" d="M 708,426.5 C 763,426.5 1727,354.0 1782,354.0" fill="none" stroke="none"/><path d="M 708,426.5 C 763,426.5 1727,354.0 1782,354.0" class="under"/><path d="M 708,426.5 C 763,426.5 1727,354.0 1782,354.0" class="strand moving" stroke="#48D597"/>
<path id="path-19" d="M 208,281.5 C 281,281.5 209,209.0 282,209.0" fill="none" stroke="none"/><path d="M 208,281.5 C 281,281.5 209,209.0 282,209.0" class="under"/><path d="M 208,281.5 C 281,281.5 209,209.0 282,209.0" class="strand moving" stroke="#F2C14E" stroke-dasharray="6 8"/>
<path id="path-20" d="M 208,426.5 C 299,426.5 191,354.0 282,354.0" fill="none" stroke="none"/><path d="M 208,426.5 C 299,426.5 191,354.0 282,354.0" class="under"/><path d="M 208,426.5 C 299,426.5 191,354.0 282,354.0" class="strand moving" stroke="#F2C14E" stroke-dasharray="6 8"/>
<path id="path-21" d="M 208,571.5 C 263,571.5 227,499.0 282,499.0" fill="none" stroke="none"/><path d="M 208,571.5 C 263,571.5 227,499.0 282,499.0" class="under"/><path d="M 208,571.5 C 263,571.5 227,499.0 282,499.0" class="strand moving" stroke="#F2C14E" stroke-dasharray="6 8"/>
<path id="path-22" d="M 208,136.5 C 281,136.5 959,354.0 1032,354.0" fill="none" stroke="none"/><path d="M 208,136.5 C 281,136.5 959,354.0 1032,354.0" class="under"/><path d="M 208,136.5 C 281,136.5 959,354.0 1032,354.0" class="strand moving" stroke="#F2C14E"/>
<g filter="url(#glow)">
<circle r="6" fill="#48D597"><animateMotion dur="5s" repeatCount="indefinite"><mpath href="#path-0"/></animateMotion></circle><circle r="6" fill="#48D597"><animateMotion dur="6s" begin=".35s" repeatCount="indefinite"><mpath href="#path-1"/></animateMotion></circle><circle r="6" fill="#48D597"><animateMotion dur="7s" begin=".7s" repeatCount="indefinite"><mpath href="#path-2"/></animateMotion></circle><circle r="6" fill="#48D597"><animateMotion dur="8s" begin="1.05s" repeatCount="indefinite"><mpath href="#path-3"/></animateMotion></circle><circle r="6" fill="#48D597"><animateMotion dur="5s" begin="1.4s" repeatCount="indefinite"><mpath href="#path-4"/></animateMotion></circle><circle r="6" fill="#48D597"><animateMotion dur="6s" begin="1.75s" repeatCount="indefinite"><mpath href="#path-5"/></animateMotion></circle><circle r="6" fill="#48D597"><animateMotion dur="7s" begin="2.1s" repeatCount="indefinite"><mpath href="#path-6"/></animateMotion></circle><circle r="6" fill="#48D597"><animateMotion dur="8s" begin="2.45s" repeatCount="indefinite"><mpath href="#path-7"/></animateMotion></circle><circle r="6" fill="#FF6B78"><animateMotion dur="5s" begin="2.8s" repeatCount="indefinite"><mpath href="#path-8"/></animateMotion></circle><circle r="6" fill="#FF6B78"><animateMotion dur="6s" begin="3.15s" repeatCount="indefinite"><mpath href="#path-9"/></animateMotion></circle><circle r="6" fill="#FF6B78"><animateMotion dur="7s" begin="3.5s" repeatCount="indefinite"><mpath href="#path-10"/></animateMotion></circle><circle r="6" fill="#48D597"><animateMotion dur="8s" begin="3.85s" repeatCount="indefinite"><mpath href="#path-11"/></animateMotion></circle><circle r="6" fill="#48D597"><animateMotion dur="5s" begin="4.2s" repeatCount="indefinite"><mpath href="#path-12"/></animateMotion></circle><circle r="6" fill="#48D597"><animateMotion dur="6s" begin="4.55s" repeatCount="indefinite"><mpath href="#path-13"/></animateMotion></circle><circle r="6" fill="#FF6B78"><animateMotion dur="7s" begin="4.9s" repeatCount="indefinite"><mpath href="#path-14"/></animateMotion></circle><circle r="6" fill="#48D597"><animateMotion dur="8s" begin="5.25s" repeatCount="indefinite"><mpath href="#path-15"/></animateMotion></circle><circle r="6" fill="#48D597"><animateMotion dur="5s" begin="5.6s" repeatCount="indefinite"><mpath href="#path-16"/></animateMotion></circle><circle r="6" fill="#FF6B78"><animateMotion dur="6s" begin="5.95s" repeatCount="indefinite"><mpath href="#path-17"/></animateMotion></circle><circle r="6" fill="#48D597"><animateMotion dur="7s" begin="6.3s" repeatCount="indefinite"><mpath href="#path-18"/></animateMotion></circle><circle r="6" fill="#F2C14E"><animateMotion dur="8s" begin="6.65s" repeatCount="indefinite"><mpath href="#path-19"/></animateMotion></circle><circle r="6" fill="#F2C14E"><animateMotion dur="5s" begin="7s" repeatCount="indefinite"><mpath href="#path-20"/></animateMotion></circle><circle r="6" fill="#F2C14E"><animateMotion dur="6s" begin="7.35s" repeatCount="indefinite"><mpath href="#path-21"/></animateMotion></circle><circle r="6" fill="#F2C14E"><animateMotion dur="7s" begin="7.7s" repeatCount="indefinite"><mpath href="#path-22"/></animateMotion></circle>
</g>
<rect class="cell" x="282" y="161" width="176" height="96" rx="20" stroke="#48D597"/><text x="370" y="197" text-anchor="middle" class="title" font-size="15">Chain A anchor</text><text x="370" y="219" text-anchor="middle" class="sub" font-size="11">gateway inputs</text><text x="370" y="239" text-anchor="middle" font-size="11" fill="#48D597">proved</text><text x="370" y="276" text-anchor="middle" class="sub" font-size="11">split × 2</text>
<rect class="cell" x="282" y="306" width="176" height="96" rx="20" stroke="#48D597"/><text x="370" y="342" text-anchor="middle" class="title" font-size="15">Chain B anchor</text><text x="370" y="364" text-anchor="middle" class="sub" font-size="11">gateway inputs</text><text x="370" y="384" text-anchor="middle" font-size="11" fill="#48D597">proved</text><text x="370" y="421" text-anchor="middle" class="sub" font-size="11">split × 3</text>
<rect class="cell" x="282" y="451" width="176" height="96" rx="20" stroke="#48D597"/><text x="370" y="487" text-anchor="middle" class="title" font-size="15">Chain C anchor</text><text x="370" y="509" text-anchor="middle" class="sub" font-size="11">gateway inputs</text><text x="370" y="529" text-anchor="middle" font-size="11" fill="#48D597">proved</text><text x="370" y="566" text-anchor="middle" class="sub" font-size="11">split × 3</text>
<rect class="cell" x="532" y="378.5" width="176" height="96" rx="20" stroke="#48D597"/><text x="620" y="414.5" text-anchor="middle" class="title" font-size="15">Signed T_b diagnostic …</text><text x="620" y="436.5" text-anchor="middle" class="sub" font-size="11">diagnostic route</text><text x="620" y="456.5" text-anchor="middle" font-size="11" fill="#48D597">proved</text><text x="620" y="493.5" text-anchor="middle" class="sub" font-size="11">split × 2</text><text x="620" y="506.5" text-anchor="middle" class="sub" font-size="11">merge × 3</text>
<rect class="cell" x="782" y="306" width="176" height="96" rx="20" stroke="#48D597"/><text x="870" y="342" text-anchor="middle" class="title" font-size="15">Numerical DNS required</text><text x="870" y="364" text-anchor="middle" class="sub" font-size="11">empirical gate</text><text x="870" y="384" text-anchor="middle" font-size="11" fill="#48D597">proved</text><text x="870" y="421" text-anchor="middle" class="sub" font-size="11">split × 2</text>
<rect class="cell" x="1032" y="306" width="176" height="96" rx="20" stroke="#48D597"/><text x="1120" y="342" text-anchor="middle" class="title" font-size="15">DNS sign classificatio…</text><text x="1120" y="364" text-anchor="middle" class="sub" font-size="11">empirical gate</text><text x="1120" y="384" text-anchor="middle" font-size="11" fill="#48D597">proved</text><text x="1120" y="421" text-anchor="middle" class="sub" font-size="11">split × 2</text><text x="1120" y="434" text-anchor="middle" class="sub" font-size="11">merge × 2</text>
<rect class="cell open" x="1282" y="306" width="176" height="96" rx="20" stroke="#FF6B78"/><text x="1370" y="342" text-anchor="middle" class="title" font-size="15">Directional Riesz sign…</text><text x="1370" y="364" text-anchor="middle" class="sub" font-size="11">gateway alternative</text><text x="1370" y="384" text-anchor="middle" font-size="11" fill="#FF6B78">open_analytic</text><text x="1370" y="421" text-anchor="middle" class="sub" font-size="11">split × 2</text>
<rect class="cell open" x="532" y="233.5" width="176" height="96" rx="20" stroke="#FF6B78"/><text x="620" y="269.5" text-anchor="middle" class="title" font-size="15">H¹ᐟ² backwards uniquen…</text><text x="620" y="291.5" text-anchor="middle" class="sub" font-size="11">gateway alternative</text><text x="620" y="311.5" text-anchor="middle" font-size="11" fill="#FF6B78">open_analytic</text><text x="620" y="348.5" text-anchor="middle" class="sub" font-size="11">split × 2</text><text x="620" y="361.5" text-anchor="middle" class="sub" font-size="11">merge × 2</text>
<rect class="cell open" x="1532" y="306" width="176" height="96" rx="20" stroke="#FF6B78"/><text x="1620" y="342" text-anchor="middle" class="title" font-size="15">Full Clay NS promotion</text><text x="1620" y="364" text-anchor="middle" class="sub" font-size="11">fail-closed endpoint</text><text x="1620" y="384" text-anchor="middle" font-size="11" fill="#FF6B78">open_analytic</text><text x="1620" y="434" text-anchor="middle" class="sub" font-size="11">merge × 2</text>
<rect class="cell" x="1782" y="306" width="176" height="96" rx="20" stroke="#48D597"/><text x="1870" y="342" text-anchor="middle" class="title" font-size="15">Canonical gateway boun…</text><text x="1870" y="364" text-anchor="middle" class="sub" font-size="11">assembly</text><text x="1870" y="384" text-anchor="middle" font-size="11" fill="#48D597">proved</text><text x="1870" y="434" text-anchor="middle" class="sub" font-size="11">merge × 9</text>
<rect class="cell" x="32" y="233.5" width="176" height="96" rx="20" stroke="#F2C14E"/><text x="120" y="269.5" text-anchor="middle" class="title" font-size="15">Chain A · external-aut…</text><text x="120" y="291.5" text-anchor="middle" class="sub" font-size="11">imported anchor</text><text x="120" y="311.5" text-anchor="middle" font-size="11" fill="#F2C14E">source_imported</text>
<rect class="cell" x="32" y="378.5" width="176" height="96" rx="20" stroke="#F2C14E"/><text x="120" y="414.5" text-anchor="middle" class="title" font-size="15">Chain B · critical res…</text><text x="120" y="436.5" text-anchor="middle" class="sub" font-size="11">imported anchor</text><text x="120" y="456.5" text-anchor="middle" font-size="11" fill="#F2C14E">source_imported</text>
<rect class="cell" x="32" y="523.5" width="176" height="96" rx="20" stroke="#F2C14E"/><text x="120" y="559.5" text-anchor="middle" class="title" font-size="15">Chain C · microlocal/t…</text><text x="120" y="581.5" text-anchor="middle" class="sub" font-size="11">imported anchor</text><text x="120" y="601.5" text-anchor="middle" font-size="11" fill="#F2C14E">source_imported</text>
<rect class="cell" x="32" y="88.5" width="176" height="96" rx="20" stroke="#F2C14E"/><text x="120" y="124.5" text-anchor="middle" class="title" font-size="15">Gateway-1 DNS sign cla…</text><text x="120" y="146.5" text-anchor="middle" class="sub" font-size="11">imported anchor</text><text x="120" y="166.5" text-anchor="middle" font-size="11" fill="#F2C14E">source_imported</text>
<text x="70" y="808" class="mono" font-size="11">Sources: DASHI/Physics/Closure/NSFullClayGatewayTheoremBoundaryReceipt.agda</text><text x="70" y="833" class="sub" font-size="12">The gateway is recorded fail-closed: the directional Riesz sign condition and H¹ᐟ² backwards-uniqueness alternative remain open, and fullClayNSPromoted remains false.</text><text x="70" y="856" class="sub" font-size="12">No visual node exists without an Agda declaration or an actual qualified source reference in a selected declaration body.</text>
</svg>
